{
.appVersion = "3134";
.formatVersion = 3;
customParameters = (
{
name = fsType;
value = (
3
);
}
);
date = "2023-01-22 18:00:01 +0000";
familyName = "PTF Neue Soviet";
fontMaster = (
{
id = m01;
metricValues = (
{
over = 16;
pos = 969;
},
{
over = 16;
pos = 728;
},
{
over = 16;
pos = 546;
},
{
over = -16;
},
{
over = -16;
pos = -241;
}
);
name = Regular;
userData = {
GSCornerRadius = 15;
};
}
);
glyphs = (
{
glyphname = A;
lastChange = "2023-04-12 18:47:14 +0000";
layers = (
{
layerId = m01;
shapes = (
{
closed = 1;
nodes = (
(319,-9,o),
(365,42,o),
(386,87,c),
(393,87,l),
(393,15,ls),
(393,6,o),
(399,0,o),
(408,0,cs),
(526,0,ls),
(535,0,o),
(541,6,o),
(541,15,cs),
(541,531,ls),
(541,540,o),
(535,546,o),
(526,546,cs),
(405,546,ls),
(396,546,o),
(390,540,o),
(390,531,cs),
(390,454,l),
(386,454,l),
(366,499,o),
(322,553,o),
(230,553,cs),
(111,553,o),
(10,459,o),
(10,272,cs),
(10,90,o),
(106,-9,o),
(231,-9,cs)
);
},
{
closed = 1;
nodes = (
(205,111,o),
(165,178,o),
(165,272,cs),
(165,367,o),
(204,433,o),
(279,433,cs),
(352,433,o),
(394,370,o),
(394,272,cs),
(394,176,o),
(352,111,o),
(279,111,cs)
);
}
);
width = 571;
}
);
unicode = 65;
userData = {
com.typemytype.robofont.guideline.magnetic.bPqRSFRUb5 = 5;
"interface.width-adjustments" = (
-16
);
};
},
{
glyphname = B;
lastChange = "2023-04-12 18:47:14 +0000";
layers = (
{
layerId = m01;
shapes = (
{
closed = 1;
nodes = (
(465,-9,o),
(561,90,o),
(561,272,cs),
(561,459,o),
(460,553,o),
(341,553,cs),
(249,553,o),
(205,499,o),
(185,454,c),
(181,454,l),
(181,713,ls),
(181,722,o),
(175,728,o),
(166,728,cs),
(45,728,ls),
(36,728,o),
(30,722,o),
(30,713,cs),
(30,15,ls),
(30,6,o),
(36,0,o),
(45,0,cs),
(163,0,ls),
(172,0,o),
(178,6,o),
(178,15,cs),
(178,87,l),
(185,87,l),
(206,42,o),
(252,-9,o),
(340,-9,cs)
);
},
{
closed = 1;
nodes = (
(219,111,o),
(177,176,o),
(177,272,cs),
(177,370,o),
(219,433,o),
(292,433,cs),
(367,433,o),
(407,367,o),
(407,272,cs),
(407,178,o),
(366,111,o),
(292,111,cs)
);
}
);
width = 571;
}
);
note = "== p with vertical stem raised.\012Top anchor should match top anchor of i";
unicode = 66;
userData = {
"interface.width-adjustments" = (
-16
);
};
},
{
glyphname = C;
lastChange = "2023-04-12 18:47:14 +0000";
layers = (
{
layerId = m01;
shapes = (
{
closed = 1;
nodes = (
(418,-11,o),
(507,69,o),
(520,186,cs),
(521,195,o),
(515,200,o),
(505,200,cs),
(393,200,ls),
(384,200,o),
(379,195,o),
(376,186,cs),
(364,137,o),
(327,107,o),
(280,107,cs),
(209,107,o),
(163,168,o),
(163,272,cs),
(163,376,o),
(209,435,o),
(280,435,cs),
(330,435,o),
(364,404,o),
(376,357,cs),
(378,348,o),
(384,344,o),
(393,344,cs),
(505,344,ls),
(515,344,o),
(521,350,o),
(520,360,cs),
(507,477,o),
(414,553,o),
(277,553,cs),
(112,553,o),
(10,438,o),
(10,271,cs),
(10,104,o),
(110,-11,o),
(278,-11,cs)
);
}
);
width = 531;
}
);
unicode = 67;
userData = {
com.typemytype.robofont.guideline.magnetic.woLfa0Gzpt = 5;
"interface.width-adjustments" = (
-16
);
};
},
{
glyphname = D;
lastChange = "2023-04-12 18:47:14 +0000";
layers = (
{
layerId = m01;
shapes = (
{
closed = 1;
nodes = (
(319,-9,o),
(365,42,o),
(386,87,c),
(393,87,l),
(393,15,ls),
(393,6,o),
(399,0,o),
(408,0,cs),
(526,0,ls),
(535,0,o),
(541,6,o),
(541,15,cs),
(541,713,ls),
(541,722,o),
(535,728,o),
(526,728,cs),
(405,728,ls),
(396,728,o),
(390,722,o),
(390,713,cs),
(390,454,l),
(386,454,l),
(366,499,o),
(322,553,o),
(230,553,cs),
(111,553,o),
(10,459,o),
(10,272,cs),
(10,90,o),
(106,-9,o),
(231,-9,cs)
);
},
{
closed = 1;
nodes = (
(205,111,o),
(165,178,o),
(165,272,cs),
(165,367,o),
(204,433,o),
(279,433,cs),
(352,433,o),
(394,370,o),
(394,272,cs),
(394,176,o),
(352,111,o),
(279,111,cs)
);
}
);
width = 571;
}
);
note = "mirror of b";
unicode = 68;
userData = {
"interface.width-adjustments" = (
-16
);
};
},
{
glyphname = E;
lastChange = "2023-04-12 18:47:14 +0000";
layers = (
{
layerId = m01;
shapes = (
{
closed = 1;
nodes = (
(409,-11,o),
(496,50,o),
(523,143,cs),
(525,151,o),
(519,156,o),
(509,157,cs),
(399,164,ls),
(391,165,o),
(385,161,o),
(381,153,cs),
(363,120,o),
(328,102,o),
(283,102,cs),
(208,102,o),
(159,155,o),
(159,243,cs),
(159,309,ls),
(159,385,o),
(200,440,o),
(274,440,cs),
(342,440,o),
(381,394,o),
(386,321,cs),
(387,310,o),
(394,305,o),
(404,309,cs),
(422,316,ls),
(432,319,o),
(420,328,o),
(406,328,cs),
(85,328,ls),
(76,328,o),
(70,322,o),
(70,313,cs),
(70,249,ls),
(70,240,o),
(76,234,o),
(85,234,cs),
(516,234,ls),
(525,234,o),
(531,240,o),
(531,249,cs),
(531,275,ls),
(531,461,o),
(417,553,o),
(273,553,cs),
(113,553,o),
(10,438,o),
(10,271,cs),
(10,97,o),
(112,-11,o),
(280,-11,cs)
);
}
);
width = 541;
}
);
unicode = 69;
userData = {
com.typemytype.robofont.guideline.magnetic.5XWlAkuiPv = 5;
"interface.width-adjustments" = (
-16
);
};
},
{
glyphname = Edieresis;
lastChange = "2023-04-12 18:47:14 +0000";
layers = (
{
layerId = m01;
shapes = (
{
closed = 1;
nodes = (
(409,-11,o),
(496,50,o),
(523,143,cs),
(525,151,o),
(519,156,o),
(509,157,cs),
(399,164,ls),
(391,165,o),
(385,161,o),
(381,153,cs),
(363,120,o),
(328,102,o),
(283,102,cs),
(208,102,o),
(159,155,o),
(159,243,cs),
(159,309,ls),
(159,385,o),
(200,440,o),
(274,440,cs),
(342,440,o),
(381,394,o),
(386,321,cs),
(387,310,o),
(394,305,o),
(404,309,cs),
(422,316,ls),
(432,319,o),
(420,328,o),
(406,328,cs),
(85,328,ls),
(76,328,o),
(70,322,o),
(70,313,cs),
(70,249,ls),
(70,240,o),
(76,234,o),
(85,234,cs),
(516,234,ls),
(525,234,o),
(531,240,o),
(531,249,cs),
(531,275,ls),
(531,461,o),
(417,553,o),
(273,553,cs),
(113,553,o),
(10,438,o),
(10,271,cs),
(10,97,o),
(112,-11,o),
(280,-11,cs)
);
},
{
closed = 1;
nodes = (
(420,620,o),
(453,653,o),
(453,692,cs),
(453,732,o),
(420,765,o),
(379,765,cs),
(338,765,o),
(305,732,o),
(305,692,cs),
(305,653,o),
(338,620,o),
(379,620,cs)
);
},
{
closed = 1;
nodes = (
(203,620,o),
(236,653,o),
(236,692,cs),
(236,732,o),
(203,765,o),
(162,765,cs),
(121,765,o),
(88,732,o),
(88,692,cs),
(88,653,o),
(121,620,o),
(162,620,cs)
);
}
);
width = 541;
}
);
unicode = 203;
userData = {
com.typemytype.robofont.guideline.magnetic.Ew5u8cWgVT = 5;
"interface.width-adjustments" = (
-16
);
};
},
{
glyphname = F;
lastChange = "2023-04-12 18:47:14 +0000";
layers = (
{
layerId = m01;
shapes = (
{
closed = 1;
nodes = (
(222,0,ls),
(231,0,o),
(237,6,o),
(237,15,cs),
(237,582,ls),
(237,619,o),
(252,641,o),
(297,641,cs),
(309,641,o),
(320,639,o),
(330,637,cs),
(340,635,o),
(347,639,o),
(349,648,cs),
(369,732,ls),
(371,742,o),
(367,748,o),
(358,751,cs),
(336,756,o),
(302,762,o),
(265,762,cs),
(162,762,o),
(86,703,o),
(86,585,cs),
(86,15,ls),
(86,6,o),
(92,0,o),
(101,0,cs)
);
},
{
closed = 1;
nodes = (
(25,546,ls),
(16,546,o),
(10,540,o),
(10,531,cs),
(10,447,ls),
(10,438,o),
(16,432,o),
(25,432,cs),
(330,432,ls),
(339,432,o),
(345,438,o),
(345,447,cs),
(345,531,ls),
(345,540,o),
(339,546,o),
(330,546,cs)
);
}
);
width = 382;
}
);
unicode = 70;
userData = {
"interface.width-adjustments" = (
-16
);
};
},
{
glyphname = G;
lastChange = "2023-04-12 18:47:14 +0000";
layers = (
{
anchors = (
{
name = bottom;
pos = (279,-208);
}
);
layerId = m01;
shapes = (
{
closed = 1;
nodes = (
(432,-216,o),
(542,-145,o),
(542,-6,cs),
(542,531,ls),
(542,540,o),
(536,546,o),
(527,546,cs),
(409,546,ls),
(400,546,o),
(394,540,o),
(394,531,cs),
(394,454,l),
(388,454,l),
(367,499,o),
(322,553,o),
(231,553,cs),
(111,553,o),
(10,459,o),
(10,273,cs),
(10,92,o),
(109,8,o),
(231,8,cs),
(318,8,o),
(367,51,o),
(387,97,c),
(393,97,l),
(393,-3,ls),
(393,-78,o),
(345,-107,o),
(280,-107,cs),
(221,-107,o),
(188,-85,o),
(172,-57,cs),
(168,-49,o),
(162,-46,o),
(154,-47,cs),
(43,-61,ls),
(33,-62,o),
(28,-69,o),
(31,-78,cs),
(55,-158,o),
(138,-216,o),
(276,-216,cs)
);
},
{
closed = 1;
nodes = (
(205,122,o),
(164,181,o),
(164,274,cs),
(164,367,o),
(204,433,o),
(279,433,cs),
(352,433,o),
(394,370,o),
(394,274,cs),
(394,179,o),
(352,122,o),
(279,122,cs)
);
}
);
width = 572;
}
);
unicode = 71;
userData = {
"interface.width-adjustments" = (
-16
);
};
},
{
glyphname = H;
lastChange = "2023-04-12 18:47:14 +0000";
layers = (
{
layerId = m01;
shapes = (
{
closed = 1;
nodes = (
(181,386,o),
(224,427,o),
(285,427,cs),
(348,427,o),
(384,388,o),
(384,320,cs),
(384,15,ls),
(384,6,o),
(390,0,o),
(399,0,cs),
(519,0,ls),
(528,0,o),
(534,6,o),
(534,15,cs),
(534,347,ls),
(534,475,o),
(459,553,o),
(346,553,cs),
(263,553,o),
(208,513,o),
(183,449,c),
(176,449,l),
(176,713,ls),
(176,722,o),
(170,728,o),
(161,728,cs),
(45,728,ls),
(36,728,o),
(30,722,o),
(30,713,cs),
(30,15,ls),
(30,6,o),
(36,0,o),
(45,0,cs),
(166,0,ls),
(175,0,o),
(181,6,o),
(181,15,cs),
(181,315,ls)
);
}
);
width = 564;
}
);
note = "based on \"n\" and made slightly wider, brining the top vertical stem with it out.";
unicode = 72;
userData = {
"interface.width-adjustments" = (
-16
);
};
},
{
glyphname = I;
lastChange = "2023-04-12 18:47:14 +0000";
layers = (
{
layerId = m01;
shapes = (
{
closed = 1;
nodes = (
(173,0,ls),
(182,0,o),
(188,6,o),
(188,15,cs),
(188,531,ls),
(188,540,o),
(182,546,o),
(173,546,cs),
(52,546,ls),
(43,546,o),
(37,540,o),
(37,531,cs),
(37,15,ls),
(37,6,o),
(43,0,o),
(52,0,cs)
);
},
{
closed = 1;
nodes = (
(157,616,o),
(195,650,o),
(195,692,cs),
(195,734,o),
(157,769,o),
(113,769,cs),
(68,769,o),
(30,734,o),
(30,692,cs),
(30,650,o),
(68,616,o),
(113,616,cs)
);
}
);
width = 225;
}
);
unicode = 73;
userData = {
com.typemytype.robofont.guideline.magnetic.5MtFEmPLYm = 5;
"interface.width-adjustments" = (
-16
);
};
},
{
glyphname = Idieresis;
lastChange = "2023-04-12 18:47:14 +0000";
layers = (
{
layerId = m01;
shapes = (
{
closed = 1;
nodes = (
(214,0,ls),
(223,0,o),
(229,6,o),
(229,15,cs),
(229,531,ls),
(229,540,o),
(223,546,o),
(214,546,cs),
(93,546,ls),
(84,546,o),
(78,540,o),
(78,531,cs),
(78,15,ls),
(78,6,o),
(84,0,o),
(93,0,cs)
);
},
{
closed = 1;
nodes = (
(302,620,o),
(335,653,o),
(335,692,cs),
(335,732,o),
(302,765,o),
(261,765,cs),
(220,765,o),
(187,732,o),
(187,692,cs),
(187,653,o),
(220,620,o),
(261,620,cs)
);
},
{
closed = 1;
nodes = (
(85,620,o),
(118,653,o),
(118,692,cs),
(118,732,o),
(85,765,o),
(44,765,cs),
(3,765,o),
(-30,732,o),
(-30,692,cs),
(-30,653,o),
(3,620,o),
(44,620,cs)
);
}
);
width = 305;
}
);
unicode = 207;
userData = {
com.typemytype.robofont.guideline.magnetic.KJr4MnInNF = 5;
com.typemytype.robofont.guideline.magnetic.c104ZGFTIo = 5;
interface.gridadjust.original = "{'width': 935.0, 'leftMargin': 14, 'rightMargin': 14.0}";
};
},
{
glyphname = J;
lastChange = "2023-04-12 18:47:14 +0000";
layers = (
{
layerId = m01;
shapes = (
{
closed = 1;
nodes = (
(51,-25,ls),
(51,-65,o),
(33,-86,o),
(-16,-86,cs),
(-20,-86,ls),
(-29,-86,o),
(-35,-92,o),
(-35,-101,cs),
(-35,-189,ls),
(-35,-198,o),
(-29,-204,o),
(-20,-204,cs),
(-5,-204,ls),
(123,-204,o),
(202,-153,o),
(202,-27,cs),
(202,531,ls),
(202,540,o),
(196,546,o),
(187,546,cs),
(66,546,ls),
(57,546,o),
(51,540,o),
(51,531,cs)
);
},
{
closed = 1;
nodes = (
(170,616,o),
(208,650,o),
(208,692,cs),
(208,734,o),
(170,769,o),
(126,769,cs),
(81,769,o),
(43,734,o),
(43,692,cs),
(43,650,o),
(81,616,o),
(126,616,cs)
);
}
);
width = 238;
}
);
unicode = 74;
userData = {
com.typemytype.robofont.guideline.magnetic.v9s2NJYLVO = 5;
"interface.width-adjustments" = (
-16
);
};
},
{
glyphname = K;
lastChange = "2023-04-12 18:47:14 +0000";
layers = (
{
layerId = m01;
shapes = (
{
closed = 1;
nodes = (
(266,271,l),
(292,271,ls),
(299,271,o),
(305,274,o),
(310,280,cs),
(521,528,ls),
(529,538,o),
(526,546,o),
(513,546,cs),
(375,546,ls),
(368,546,o),
(362,543,o),
(357,537,cs),
(189,338,l),
(178,338,ls),
(171,338,o),
(166,332,o),
(166,323,cs),
(166,185,ls),
(166,172,o),
(175,167,o),
(184,178,cs)
);
},
{
closed = 1;
nodes = (
(166,0,ls),
(175,0,o),
(181,6,o),
(181,15,cs),
(181,713,ls),
(181,722,o),
(175,728,o),
(166,728,cs),
(45,728,ls),
(36,728,o),
(30,722,o),
(30,713,cs),
(30,15,ls),
(30,6,o),
(36,0,o),
(45,0,cs)
);
},
{
closed = 1;
nodes = (
(525,0,ls),
(537,0,o),
(542,7,o),
(535,18,cs),
(321,331,ls),
(315,339,o),
(306,340,o),
(299,333,cs),
(219,247,ls),
(213,241,o),
(213,234,o),
(218,226,cs),
(364,10,ls),
(368,4,o),
(374,0,o),
(382,0,cs)
);
}
);
width = 557;
}
);
unicode = 75;
userData = {
"interface.width-adjustments" = (
-16
);
};
},
{
glyphname = L;
lastChange = "2023-04-12 18:47:14 +0000";
layers = (
{
layerId = m01;
shapes = (
{
closed = 1;
nodes = (
(45,728,ls),
(36,728,o),
(30,722,o),
(30,713,cs),
(30,15,ls),
(30,6,o),
(36,0,o),
(45,0,cs),
(166,0,ls),
(175,0,o),
(181,6,o),
(181,15,cs),
(181,713,ls),
(181,722,o),
(175,728,o),
(166,728,cs)
);
}
);
width = 211;
}
);
unicode = 76;
userData = {
"interface.width-adjustments" = (
-16
);
};
},
{
glyphname = M;
lastChange = "2023-04-12 18:47:14 +0000";
layers = (
{
layerId = m01;
shapes = (
{
closed = 1;
nodes = (
(166,0,ls),
(175,0,o),
(181,6,o),
(181,15,cs),
(181,327,ls),
(181,388,o),
(219,428,o),
(270,428,cs),
(319,428,o),
(352,394,o),
(352,341,cs),
(352,15,ls),
(352,6,o),
(358,0,o),
(367,0,cs),
(484,0,ls),
(493,0,o),
(499,6,o),
(499,15,cs),
(499,333,ls),
(499,390,o),
(532,428,o),
(587,428,cs),
(635,428,o),
(671,398,o),
(671,337,cs),
(671,15,ls),
(671,6,o),
(677,0,o),
(686,0,cs),
(808,0,ls),
(817,0,o),
(823,6,o),
(823,15,cs),
(823,367,ls),
(823,485,o),
(752,553,o),
(650,553,cs),
(570,553,o),
(508,512,o),
(486,449,c),
(480,449,l),
(463,512,o),
(407,553,o),
(332,553,cs),
(259,553,o),
(202,513,o),
(180,449,c),
(173,449,l),
(173,531,ls),
(173,540,o),
(167,546,o),
(158,546,cs),
(45,546,ls),
(36,546,o),
(30,540,o),
(30,531,cs),
(30,15,ls),
(30,6,o),
(36,0,o),
(45,0,cs)
);
}
);
width = 843;
}
);
unicode = 77;
userData = {
"interface.width-adjustments" = (
-16
);
};
},
{
glyphname = N;
lastChange = "2023-04-12 18:47:14 +0000";
layers = (
{
layerId = m01;
shapes = (
{
closed = 1;
nodes = (
(181,386,o),
(223,427,o),
(284,427,cs),
(345,427,o),
(381,387,o),
(381,320,cs),
(381,15,ls),
(381,6,o),
(387,0,o),
(396,0,cs),
(517,0,ls),
(526,0,o),
(532,6,o),
(532,15,cs),
(532,347,ls),
(532,475,o),
(458,553,o),
(344,553,cs),
(263,553,o),
(208,513,o),
(184,449,c),
(178,449,l),
(178,531,ls),
(178,540,o),
(172,546,o),
(163,546,cs),
(45,546,ls),
(36,546,o),
(30,540,o),
(30,531,cs),
(30,15,ls),
(30,6,o),
(36,0,o),
(45,0,cs),
(166,0,ls),
(175,0,o),
(181,6,o),
(181,15,cs),
(181,315,ls)
);
}
);
width = 552;
}
);
unicode = 78;
userData = {
"interface.width-adjustments" = (
-16
);
};
},
{
glyphname = O;
lastChange = "2023-04-12 18:47:14 +0000";
layers = (
{
layerId = m01;
shapes = (
{
closed = 1;
nodes = (
(444,-11,o),
(546,103,o),
(546,271,cs),
(546,439,o),
(444,553,o),
(278,553,cs),
(112,553,o),
(10,439,o),
(10,271,cs),
(10,103,o),
(112,-11,o),
(278,-11,cs)
);
},
{
closed = 1;
nodes = (
(202,107,o),
(163,176,o),
(163,271,cs),
(163,367,o),
(202,435,o),
(278,435,cs),
(353,435,o),
(392,367,o),
(392,271,cs),
(392,176,o),
(353,107,o),
(278,107,cs)
);
}
);
width = 556;
}
);
unicode = 79;
userData = {
com.typemytype.robofont.guideline.magnetic.k4vPhVkDP6 = 5;
"interface.width-adjustments" = (
-16
);
};
},
{
glyphname = P;
lastChange = "2023-04-12 18:47:14 +0000";
layers = (
{
layerId = m01;
shapes = (
{
closed = 1;
nodes = (
(166,-204,ls),
(175,-204,o),
(181,-198,o),
(181,-189,cs),
(181,87,l),
(185,87,l),
(206,42,o),
(252,-9,o),
(340,-9,cs),
(465,-9,o),
(561,90,o),
(561,272,cs),
(561,459,o),
(460,553,o),
(341,553,cs),
(249,553,o),
(205,499,o),
(185,454,c),
(178,454,l),
(178,531,ls),
(178,540,o),
(172,546,o),
(163,546,cs),
(45,546,ls),
(36,546,o),
(30,540,o),
(30,531,cs),
(30,-189,ls),
(30,-198,o),
(36,-204,o),
(45,-204,cs)
);
},
{
closed = 1;
nodes = (
(219,111,o),
(177,176,o),
(177,272,cs),
(177,370,o),
(219,433,o),
(292,433,cs),
(367,433,o),
(407,367,o),
(407,272,cs),
(407,178,o),
(366,111,o),
(292,111,cs)
);
}
);
width = 571;
}
);
unicode = 80;
userData = {
"interface.width-adjustments" = (
-16
);
};
},
{
glyphname = Q;
lastChange = "2023-04-12 18:47:14 +0000";
layers = (
{
layerId = m01;
shapes = (
{
closed = 1;
nodes = (
(541,531,ls),
(541,540,o),
(535,546,o),
(526,546,cs),
(408,546,ls),
(399,546,o),
(393,540,o),
(393,531,cs),
(393,454,l),
(386,454,l),
(366,499,o),
(322,553,o),
(230,553,cs),
(111,553,o),
(10,459,o),
(10,272,cs),
(10,90,o),
(106,-9,o),
(231,-9,cs),
(319,-9,o),
(365,42,o),
(386,87,c),
(390,87,l),
(390,-189,ls),
(390,-198,o),
(396,-204,o),
(405,-204,cs),
(526,-204,ls),
(535,-204,o),
(541,-198,o),
(541,-189,cs)
);
},
{
closed = 1;
nodes = (
(205,111,o),
(164,178,o),
(164,272,cs),
(164,367,o),
(204,433,o),
(279,433,cs),
(352,433,o),
(394,370,o),
(394,272,cs),
(394,176,o),
(352,111,o),
(279,111,cs)
);
}
);
width = 571;
}
);
unicode = 81;
userData = {
"interface.width-adjustments" = (
-16
);
};
},
{
glyphname = R;
lastChange = "2023-04-12 18:47:14 +0000";
layers = (
{
layerId = m01;
shapes = (
{
closed = 1;
nodes = (
(166,0,ls),
(175,0,o),
(181,6,o),
(181,15,cs),
(181,309,ls),
(181,375,o),
(230,422,o),
(296,422,cs),
(311,422,o),
(329,420,o),
(344,418,cs),
(354,416,o),
(360,421,o),
(360,431,cs),
(360,534,ls),
(360,543,o),
(356,549,o),
(347,550,cs),
(336,552,o),
(323,553,o),
(313,553,cs),
(252,553,o),
(201,518,o),
(182,450,c),
(176,450,l),
(176,531,ls),
(176,540,o),
(170,546,o),
(161,546,cs),
(45,546,ls),
(36,546,o),
(30,540,o),
(30,531,cs),
(30,15,ls),
(30,6,o),
(36,0,o),
(45,0,cs)
);
}
);
width = 370;
}
);
unicode = 82;
},
{
glyphname = S;
lastChange = "2023-04-12 18:47:14 +0000";
layers = (
{
layerId = m01;
shapes = (
{
closed = 1;
nodes = (
(476,497,o),
(396,553,o),
(266,553,cs),
(126,553,o),
(35,488,o),
(35,383,cs),
(35,301,o),
(86,249,o),
(192,228,cs),
(287,208,ls),
(335,198,o),
(357,181,o),
(357,153,cs),
(357,121,o),
(321,98,o),
(268,98,cs),
(220,98,o),
(186,117,o),
(173,153,cs),
(170,162,o),
(164,165,o),
(155,165,cs),
(36,159,ls),
(26,158,o),
(21,152,o),
(23,142,cs),
(44,47,o),
(130,-11,o),
(268,-11,cs),
(409,-11,o),
(510,62,o),
(510,169,cs),
(510,248,o),
(459,296,o),
(353,317,cs),
(254,336,ls),
(204,347,o),
(185,365,o),
(185,392,cs),
(185,424,o),
(221,445,o),
(268,445,cs),
(314,445,o),
(344,423,o),
(356,395,cs),
(359,386,o),
(364,383,o),
(373,383,cs),
(482,389,ls),
(492,390,o),
(497,396,o),
(495,406,cs)
);
}
);
width = 530;
}
);
unicode = 83;
userData = {
com.typemytype.robofont.guideline.magnetic.1Y8sphnsuc = 5;
com.typemytype.robofont.guideline.magnetic.DuqEUxnaaT = 5;
com.typemytype.robofont.guideline.magnetic.XmDxFVnKBu = 5;
"interface.width-adjustments" = (
-16
);
};
},
{
glyphname = T;
lastChange = "2023-04-12 18:47:14 +0000";
layers = (
{
layerId = m01;
shapes = (
{
closed = 1;
nodes = (
(94,148,ls),
(94,49,o),
(156,-8,o),
(265,-8,cs),
(291,-8,o),
(316,-4,o),
(344,2,cs),
(353,5,o),
(357,10,o),
(355,20,cs),
(337,105,ls),
(335,114,o),
(329,118,o),
(319,117,cs),
(312,116,o),
(304,115,o),
(297,115,cs),
(261,115,o),
(245,131,o),
(245,168,cs),
(245,661,ls),
(245,670,o),
(239,676,o),
(230,676,cs),
(109,676,ls),
(100,676,o),
(94,670,o),
(94,661,cs)
);
},
{
closed = 1;
nodes = (
(35,546,ls),
(26,546,o),
(20,540,o),
(20,531,cs),
(20,447,ls),
(20,438,o),
(26,432,o),
(35,432,cs),
(334,432,ls),
(343,432,o),
(349,438,o),
(349,447,cs),
(349,531,ls),
(349,540,o),
(343,546,o),
(334,546,cs)
);
}
);
width = 368;
}
);
unicode = 84;
userData = {
com.typemytype.robofont.guideline.magnetic.y5AZhPlfwM = 5;
"interface.width-adjustments" = (
-16
);
};
},
{
glyphname = U;
lastChange = "2023-04-12 18:47:14 +0000";
layers = (
{
layerId = m01;
shapes = (
{
closed = 1;
nodes = (
(369,159,o),
(319,121,o),
(266,121,cs),
(208,121,o),
(171,161,o),
(171,225,cs),
(171,531,ls),
(171,540,o),
(165,546,o),
(156,546,cs),
(35,546,ls),
(26,546,o),
(20,540,o),
(20,531,cs),
(20,198,ls),
(20,71,o),
(94,-7,o),
(204,-7,cs),
(286,-7,o),
(345,35,o),
(369,99,c),
(375,99,l),
(375,15,ls),
(375,6,o),
(381,0,o),
(390,0,cs),
(506,0,ls),
(515,0,o),
(521,6,o),
(521,15,cs),
(521,531,ls),
(521,540,o),
(515,546,o),
(506,546,cs),
(384,546,ls),
(375,546,o),
(369,540,o),
(369,531,cs),
(369,232,ls)
);
}
);
width = 551;
}
);
unicode = 85;
userData = {
com.typemytype.robofont.guideline.magnetic.nBhGDD3LHZ = 5;
"interface.width-adjustments" = (
-16
);
};
},
{
glyphname = V;
lastChange = "2023-04-12 18:47:14 +0000";
layers = (
{
layerId = m01;
shapes = (
{
closed = 1;
nodes = (
(417,546,ls),
(409,546,o),
(402,542,o),
(400,533,cs),
(291,155,l),
(285,155,l),
(174,533,ls),
(172,541,o),
(165,546,o),
(157,546,cs),
(28,546,ls),
(17,546,o),
(12,540,o),
(16,529,cs),
(196,12,ls),
(199,3,o),
(205,0,o),
(213,0,cs),
(358,0,ls),
(366,0,o),
(372,3,o),
(375,12,cs),
(556,529,ls),
(560,540,o),
(555,546,o),
(544,546,cs)
);
}
);
width = 572;
}
);
unicode = 86;
userData = {
com.typemytype.robofont.guideline.magnetic.HsEeMarF5L = 5;
"interface.width-adjustments" = (
-16
);
};
},
{
glyphname = W;
lastChange = "2023-04-12 18:47:14 +0000";
layers = (
{
layerId = m01;
shapes = (
{
closed = 1;
nodes = (
(305,0,ls),
(314,0,o),
(319,5,o),
(321,13,cs),
(412,343,l),
(418,343,l),
(509,13,ls),
(511,5,o),
(516,0,o),
(525,0,cs),
(659,0,ls),
(668,0,o),
(673,5,o),
(675,13,cs),
(816,529,ls),
(819,540,o),
(814,546,o),
(804,546,cs),
(681,546,ls),
(672,546,o),
(667,541,o),
(665,533,cs),
(585,181,l),
(580,181,l),
(493,533,ls),
(491,541,o),
(486,546,o),
(477,546,cs),
(354,546,ls),
(345,546,o),
(340,541,o),
(338,533,cs),
(252,179,l),
(247,179,l),
(165,533,ls),
(163,541,o),
(158,546,o),
(149,546,cs),
(27,546,ls),
(17,546,o),
(12,540,o),
(15,529,cs),
(155,13,ls),
(157,5,o),
(162,0,o),
(171,0,cs)
);
}
);
width = 831;
}
);
unicode = 87;
userData = {
com.typemytype.robofont.guideline.magnetic.p3iasCA57f = 5;
"interface.width-adjustments" = (
-16
);
};
},
{
glyphname = X;
lastChange = "2023-04-12 18:47:14 +0000";
layers = (
{
layerId = m01;
shapes = (
{
closed = 1;
nodes = (
(37,546,ls),
(25,546,o),
(20,539,o),
(26,528,cs),
(172,272,l),
(21,18,ls),
(15,7,o),
(19,0,o),
(31,0,cs),
(154,0,ls),
(162,0,o),
(168,2,o),
(172,10,cs),
(272,188,l),
(374,10,ls),
(378,2,o),
(384,0,o),
(392,0,cs),
(513,0,ls),
(525,0,o),
(529,7,o),
(523,18,cs),
(372,272,l),
(520,528,ls),
(526,539,o),
(521,546,o),
(509,546,cs),
(386,546,ls),
(378,546,o),
(372,543,o),
(368,535,cs),
(272,354,l),
(178,535,ls),
(174,543,o),
(168,546,o),
(160,546,cs)
);
}
);
width = 544;
}
);
unicode = 88;
userData = {
com.typemytype.robofont.guideline.magnetic.lFaJLQuFPv = 5;
"interface.width-adjustments" = (
-16
);
};
},
{
glyphname = Y;
lastChange = "2023-04-12 18:47:14 +0000";
layers = (
{
layerId = m01;
shapes = (
{
closed = 1;
nodes = (
(258,-208,o),
(318,-151,o),
(348,-63,cs),
(556,529,ls),
(560,540,o),
(555,546,o),
(544,546,cs),
(415,546,ls),
(406,546,o),
(400,542,o),
(398,533,cs),
(288,145,l),
(282,145,l),
(173,533,ls),
(171,542,o),
(165,546,o),
(156,546,cs),
(28,546,ls),
(17,546,o),
(13,539,o),
(16,529,cs),
(205,-16,l),
(196,-43,ls),
(179,-92,o),
(140,-96,o),
(90,-81,cs),
(87,-80,o),
(84,-85,o),
(81,-94,cs),
(54,-179,ls),
(51,-189,o),
(55,-195,o),
(64,-198,cs),
(85,-204,o),
(114,-208,o),
(146,-208,cs)
);
}
);
width = 572;
}
);
unicode = 89;
userData = {
com.typemytype.robofont.guideline.magnetic.lsCjxlYELh = 5;
"interface.width-adjustments" = (
-16
);
};
},
{
glyphname = Z;
lastChange = "2023-04-12 18:47:14 +0000";
layers = (
{
layerId = m01;
shapes = (
{
closed = 1;
nodes = (
(463,0,ls),
(472,0,o),
(478,6,o),
(478,15,cs),
(478,106,ls),
(478,115,o),
(472,121,o),
(463,121,cs),
(218,121,l),
(218,125,l),
(463,439,ls),
(467,445,o),
(469,450,o),
(469,457,cs),
(469,531,ls),
(469,540,o),
(463,546,o),
(454,546,cs),
(43,546,ls),
(34,546,o),
(28,540,o),
(28,531,cs),
(28,440,ls),
(28,431,o),
(34,425,o),
(43,425,cs),
(287,425,l),
(287,421,l),
(27,98,ls),
(23,92,o),
(20,87,o),
(20,80,cs),
(20,15,ls),
(20,6,o),
(26,0,o),
(35,0,cs)
);
}
);
width = 498;
}
);
unicode = 90;
userData = {
com.typemytype.robofont.guideline.magnetic.R2Ni5F405P = 5;
"interface.width-adjustments" = (
-16
);
};
},
{
glyphname = a;
lastChange = "2023-04-12 18:47:14 +0000";
layers = (
{
layerId = m01;
shapes = (
{
closed = 1;
nodes = (
(319,-9,o),
(365,42,o),
(386,87,c),
(393,87,l),
(393,15,ls),
(393,6,o),
(399,0,o),
(408,0,cs),
(526,0,ls),
(535,0,o),
(541,6,o),
(541,15,cs),
(541,531,ls),
(541,540,o),
(535,546,o),
(526,546,cs),
(405,546,ls),
(396,546,o),
(390,540,o),
(390,531,cs),
(390,454,l),
(386,454,l),
(366,499,o),
(322,553,o),
(230,553,cs),
(111,553,o),
(10,459,o),
(10,272,cs),
(10,90,o),
(106,-9,o),
(231,-9,cs)
);
},
{
closed = 1;
nodes = (
(205,111,o),
(165,178,o),
(165,272,cs),
(165,367,o),
(204,433,o),
(279,433,cs),
(352,433,o),
(394,370,o),
(394,272,cs),
(394,176,o),
(352,111,o),
(279,111,cs)
);
}
);
width = 571;
}
);
unicode = 97;
userData = {
com.typemytype.robofont.guideline.magnetic.bPqRSFRUb5 = 5;
"interface.width-adjustments" = (
-16
);
};
},
{
glyphname = b;
lastChange = "2023-04-12 18:47:14 +0000";
layers = (
{
layerId = m01;
shapes = (
{
closed = 1;
nodes = (
(465,-9,o),
(561,90,o),
(561,272,cs),
(561,459,o),
(460,553,o),
(341,553,cs),
(249,553,o),
(205,499,o),
(185,454,c),
(181,454,l),
(181,713,ls),
(181,722,o),
(175,728,o),
(166,728,cs),
(45,728,ls),
(36,728,o),
(30,722,o),
(30,713,cs),
(30,15,ls),
(30,6,o),
(36,0,o),
(45,0,cs),
(163,0,ls),
(172,0,o),
(178,6,o),
(178,15,cs),
(178,87,l),
(185,87,l),
(206,42,o),
(252,-9,o),
(340,-9,cs)
);
},
{
closed = 1;
nodes = (
(219,111,o),
(177,176,o),
(177,272,cs),
(177,370,o),
(219,433,o),
(292,433,cs),
(367,433,o),
(407,367,o),
(407,272,cs),
(407,178,o),
(366,111,o),
(292,111,cs)
);
}
);
width = 571;
}
);
note = "== p with vertical stem raised.\012Top anchor should match top anchor of i";
unicode = 98;
userData = {
"interface.width-adjustments" = (
-16
);
};
},
{
glyphname = c;
lastChange = "2023-04-12 18:47:14 +0000";
layers = (
{
layerId = m01;
shapes = (
{
closed = 1;
nodes = (
(418,-11,o),
(507,69,o),
(520,186,cs),
(521,195,o),
(515,200,o),
(505,200,cs),
(393,200,ls),
(384,200,o),
(379,195,o),
(376,186,cs),
(364,137,o),
(327,107,o),
(280,107,cs),
(209,107,o),
(163,168,o),
(163,272,cs),
(163,376,o),
(209,435,o),
(280,435,cs),
(330,435,o),
(364,404,o),
(376,357,cs),
(378,348,o),
(384,344,o),
(393,344,cs),
(505,344,ls),
(515,344,o),
(521,350,o),
(520,360,cs),
(507,477,o),
(414,553,o),
(277,553,cs),
(112,553,o),
(10,438,o),
(10,271,cs),
(10,104,o),
(110,-11,o),
(278,-11,cs)
);
}
);
width = 531;
}
);
unicode = 99;
userData = {
com.typemytype.robofont.guideline.magnetic.woLfa0Gzpt = 5;
"interface.width-adjustments" = (
-16
);
};
},
{
glyphname = d;
lastChange = "2023-04-12 18:47:14 +0000";
layers = (
{
layerId = m01;
shapes = (
{
closed = 1;
nodes = (
(319,-9,o),
(365,42,o),
(386,87,c),
(393,87,l),
(393,15,ls),
(393,6,o),
(399,0,o),
(408,0,cs),
(526,0,ls),
(535,0,o),
(541,6,o),
(541,15,cs),
(541,713,ls),
(541,722,o),
(535,728,o),
(526,728,cs),
(405,728,ls),
(396,728,o),
(390,722,o),
(390,713,cs),
(390,454,l),
(386,454,l),
(366,499,o),
(322,553,o),
(230,553,cs),
(111,553,o),
(10,459,o),
(10,272,cs),
(10,90,o),
(106,-9,o),
(231,-9,cs)
);
},
{
closed = 1;
nodes = (
(205,111,o),
(165,178,o),
(165,272,cs),
(165,367,o),
(204,433,o),
(279,433,cs),
(352,433,o),
(394,370,o),
(394,272,cs),
(394,176,o),
(352,111,o),
(279,111,cs)
);
}
);
width = 571;
}
);
note = "mirror of b";
unicode = 100;
userData = {
"interface.width-adjustments" = (
-16
);
};
},
{
glyphname = e;
lastChange = "2023-04-12 18:47:14 +0000";
layers = (
{
layerId = m01;
shapes = (
{
closed = 1;
nodes = (
(409,-11,o),
(496,50,o),
(523,143,cs),
(525,151,o),
(519,156,o),
(509,157,cs),
(399,164,ls),
(391,165,o),
(385,161,o),
(381,153,cs),
(363,120,o),
(328,102,o),
(283,102,cs),
(208,102,o),
(159,155,o),
(159,243,cs),
(159,309,ls),
(159,385,o),
(200,440,o),
(274,440,cs),
(342,440,o),
(381,394,o),
(386,321,cs),
(387,310,o),
(394,305,o),
(404,309,cs),
(422,316,ls),
(432,319,o),
(420,328,o),
(406,328,cs),
(85,328,ls),
(76,328,o),
(70,322,o),
(70,313,cs),
(70,249,ls),
(70,240,o),
(76,234,o),
(85,234,cs),
(516,234,ls),
(525,234,o),
(531,240,o),
(531,249,cs),
(531,275,ls),
(531,461,o),
(417,553,o),
(273,553,cs),
(113,553,o),
(10,438,o),
(10,271,cs),
(10,97,o),
(112,-11,o),
(280,-11,cs)
);
}
);
width = 541;
}
);
unicode = 101;
userData = {
com.typemytype.robofont.guideline.magnetic.5XWlAkuiPv = 5;
"interface.width-adjustments" = (
-16
);
};
},
{
glyphname = edieresis;
lastChange = "2023-04-12 18:47:14 +0000";
layers = (
{
layerId = m01;
shapes = (
{
closed = 1;
nodes = (
(409,-11,o),
(496,50,o),
(523,143,cs),
(525,151,o),
(519,156,o),
(509,157,cs),
(399,164,ls),
(391,165,o),
(385,161,o),
(381,153,cs),
(363,120,o),
(328,102,o),
(283,102,cs),
(208,102,o),
(159,155,o),
(159,243,cs),
(159,309,ls),
(159,385,o),
(200,440,o),
(274,440,cs),
(342,440,o),
(381,394,o),
(386,321,cs),
(387,310,o),
(394,305,o),
(404,309,cs),
(422,316,ls),
(432,319,o),
(420,328,o),
(406,328,cs),
(85,328,ls),
(76,328,o),
(70,322,o),
(70,313,cs),
(70,249,ls),
(70,240,o),
(76,234,o),
(85,234,cs),
(516,234,ls),
(525,234,o),
(531,240,o),
(531,249,cs),
(531,275,ls),
(531,461,o),
(417,553,o),
(273,553,cs),
(113,553,o),
(10,438,o),
(10,271,cs),
(10,97,o),
(112,-11,o),
(280,-11,cs)
);
},
{
closed = 1;
nodes = (
(420,620,o),
(453,653,o),
(453,692,cs),
(453,732,o),
(420,765,o),
(379,765,cs),
(338,765,o),
(305,732,o),
(305,692,cs),
(305,653,o),
(338,620,o),
(379,620,cs)
);
},
{
closed = 1;
nodes = (
(203,620,o),
(236,653,o),
(236,692,cs),
(236,732,o),
(203,765,o),
(162,765,cs),
(121,765,o),
(88,732,o),
(88,692,cs),
(88,653,o),
(121,620,o),
(162,620,cs)
);
}
);
width = 541;
}
);
unicode = 235;
userData = {
com.typemytype.robofont.guideline.magnetic.Ew5u8cWgVT = 5;
"interface.width-adjustments" = (
-16
);
};
},
{
glyphname = f;
lastChange = "2023-04-12 18:47:14 +0000";
layers = (
{
layerId = m01;
shapes = (
{
closed = 1;
nodes = (
(222,0,ls),
(231,0,o),
(237,6,o),
(237,15,cs),
(237,582,ls),
(237,619,o),
(252,641,o),
(297,641,cs),
(309,641,o),
(320,639,o),
(330,637,cs),
(340,635,o),
(347,639,o),
(349,648,cs),
(369,732,ls),
(371,742,o),
(367,748,o),
(358,751,cs),
(336,756,o),
(302,762,o),
(265,762,cs),
(162,762,o),
(86,703,o),
(86,585,cs),
(86,15,ls),
(86,6,o),
(92,0,o),
(101,0,cs)
);
},
{
closed = 1;
nodes = (
(25,546,ls),
(16,546,o),
(10,540,o),
(10,531,cs),
(10,447,ls),
(10,438,o),
(16,432,o),
(25,432,cs),
(330,432,ls),
(339,432,o),
(345,438,o),
(345,447,cs),
(345,531,ls),
(345,540,o),
(339,546,o),
(330,546,cs)
);
}
);
width = 382;
}
);
unicode = 102;
userData = {
"interface.width-adjustments" = (
-16
);
};
},
{
glyphname = g;
lastChange = "2023-04-12 18:47:14 +0000";
layers = (
{
anchors = (
{
name = bottom;
pos = (279,-208);
}
);
layerId = m01;
shapes = (
{
closed = 1;
nodes = (
(432,-216,o),
(542,-145,o),
(542,-6,cs),
(542,531,ls),
(542,540,o),
(536,546,o),
(527,546,cs),
(409,546,ls),
(400,546,o),
(394,540,o),
(394,531,cs),
(394,454,l),
(388,454,l),
(367,499,o),
(322,553,o),
(231,553,cs),
(111,553,o),
(10,459,o),
(10,273,cs),
(10,92,o),
(109,8,o),
(231,8,cs),
(318,8,o),
(367,51,o),
(387,97,c),
(393,97,l),
(393,-3,ls),
(393,-78,o),
(345,-107,o),
(280,-107,cs),
(221,-107,o),
(188,-85,o),
(172,-57,cs),
(168,-49,o),
(162,-46,o),
(154,-47,cs),
(43,-61,ls),
(33,-62,o),
(28,-69,o),
(31,-78,cs),
(55,-158,o),
(138,-216,o),
(276,-216,cs)
);
},
{
closed = 1;
nodes = (
(205,122,o),
(164,181,o),
(164,274,cs),
(164,367,o),
(204,433,o),
(279,433,cs),
(352,433,o),
(394,370,o),
(394,274,cs),
(394,179,o),
(352,122,o),
(279,122,cs)
);
}
);
width = 572;
}
);
unicode = 103;
userData = {
"interface.width-adjustments" = (
-16
);
};
},
{
glyphname = h;
lastChange = "2023-04-12 18:47:14 +0000";
layers = (
{
layerId = m01;
shapes = (
{
closed = 1;
nodes = (
(181,386,o),
(224,427,o),
(285,427,cs),
(348,427,o),
(384,388,o),
(384,320,cs),
(384,15,ls),
(384,6,o),
(390,0,o),
(399,0,cs),
(519,0,ls),
(528,0,o),
(534,6,o),
(534,15,cs),
(534,347,ls),
(534,475,o),
(459,553,o),
(346,553,cs),
(263,553,o),
(208,513,o),
(183,449,c),
(176,449,l),
(176,713,ls),
(176,722,o),
(170,728,o),
(161,728,cs),
(45,728,ls),
(36,728,o),
(30,722,o),
(30,713,cs),
(30,15,ls),
(30,6,o),
(36,0,o),
(45,0,cs),
(166,0,ls),
(175,0,o),
(181,6,o),
(181,15,cs),
(181,315,ls)
);
}
);
width = 564;
}
);
note = "based on \"n\" and made slightly wider, brining the top vertical stem with it out.";
unicode = 104;
userData = {
"interface.width-adjustments" = (
-16
);
};
},
{
glyphname = i;
lastChange = "2023-04-12 18:47:14 +0000";
layers = (
{
layerId = m01;
shapes = (
{
closed = 1;
nodes = (
(173,0,ls),
(182,0,o),
(188,6,o),
(188,15,cs),
(188,531,ls),
(188,540,o),
(182,546,o),
(173,546,cs),
(52,546,ls),
(43,546,o),
(37,540,o),
(37,531,cs),
(37,15,ls),
(37,6,o),
(43,0,o),
(52,0,cs)
);
},
{
closed = 1;
nodes = (
(157,616,o),
(195,650,o),
(195,692,cs),
(195,734,o),
(157,769,o),
(113,769,cs),
(68,769,o),
(30,734,o),
(30,692,cs),
(30,650,o),
(68,616,o),
(113,616,cs)
);
}
);
width = 225;
}
);
unicode = 105;
userData = {
com.typemytype.robofont.guideline.magnetic.5MtFEmPLYm = 5;
"interface.width-adjustments" = (
-16
);
};
},
{
glyphname = idieresis;
lastChange = "2023-04-12 18:47:14 +0000";
layers = (
{
layerId = m01;
shapes = (
{
closed = 1;
nodes = (
(214,0,ls),
(223,0,o),
(229,6,o),
(229,15,cs),
(229,531,ls),
(229,540,o),
(223,546,o),
(214,546,cs),
(93,546,ls),
(84,546,o),
(78,540,o),
(78,531,cs),
(78,15,ls),
(78,6,o),
(84,0,o),
(93,0,cs)
);
},
{
closed = 1;
nodes = (
(302,620,o),
(335,653,o),
(335,692,cs),
(335,732,o),
(302,765,o),
(261,765,cs),
(220,765,o),
(187,732,o),
(187,692,cs),
(187,653,o),
(220,620,o),
(261,620,cs)
);
},
{
closed = 1;
nodes = (
(85,620,o),
(118,653,o),
(118,692,cs),
(118,732,o),
(85,765,o),
(44,765,cs),
(3,765,o),
(-30,732,o),
(-30,692,cs),
(-30,653,o),
(3,620,o),
(44,620,cs)
);
}
);
width = 305;
}
);
unicode = 239;
userData = {
com.typemytype.robofont.guideline.magnetic.KJr4MnInNF = 5;
com.typemytype.robofont.guideline.magnetic.c104ZGFTIo = 5;
interface.gridadjust.original = "{'width': 935.0, 'leftMargin': 14, 'rightMargin': 14.0}";
};
},
{
glyphname = j;
lastChange = "2023-04-12 18:47:14 +0000";
layers = (
{
layerId = m01;
shapes = (
{
closed = 1;
nodes = (
(51,-25,ls),
(51,-65,o),
(33,-86,o),
(-16,-86,cs),
(-20,-86,ls),
(-29,-86,o),
(-35,-92,o),
(-35,-101,cs),
(-35,-189,ls),
(-35,-198,o),
(-29,-204,o),
(-20,-204,cs),
(-5,-204,ls),
(123,-204,o),
(202,-153,o),
(202,-27,cs),
(202,531,ls),
(202,540,o),
(196,546,o),
(187,546,cs),
(66,546,ls),
(57,546,o),
(51,540,o),
(51,531,cs)
);
},
{
closed = 1;
nodes = (
(170,616,o),
(208,650,o),
(208,692,cs),
(208,734,o),
(170,769,o),
(126,769,cs),
(81,769,o),
(43,734,o),
(43,692,cs),
(43,650,o),
(81,616,o),
(126,616,cs)
);
}
);
width = 238;
}
);
unicode = 106;
userData = {
com.typemytype.robofont.guideline.magnetic.v9s2NJYLVO = 5;
"interface.width-adjustments" = (
-16
);
};
},
{
glyphname = k;
lastChange = "2023-04-12 18:47:14 +0000";
layers = (
{
layerId = m01;
shapes = (
{
closed = 1;
nodes = (
(266,271,l),
(292,271,ls),
(299,271,o),
(305,274,o),
(310,280,cs),
(521,528,ls),
(529,538,o),
(526,546,o),
(513,546,cs),
(375,546,ls),
(368,546,o),
(362,543,o),
(357,537,cs),
(189,338,l),
(178,338,ls),
(171,338,o),
(166,332,o),
(166,323,cs),
(166,185,ls),
(166,172,o),
(175,167,o),
(184,178,cs)
);
},
{
closed = 1;
nodes = (
(166,0,ls),
(175,0,o),
(181,6,o),
(181,15,cs),
(181,713,ls),
(181,722,o),
(175,728,o),
(166,728,cs),
(45,728,ls),
(36,728,o),
(30,722,o),
(30,713,cs),
(30,15,ls),
(30,6,o),
(36,0,o),
(45,0,cs)
);
},
{
closed = 1;
nodes = (
(525,0,ls),
(537,0,o),
(542,7,o),
(535,18,cs),
(321,331,ls),
(315,339,o),
(306,340,o),
(299,333,cs),
(219,247,ls),
(213,241,o),
(213,234,o),
(218,226,cs),
(364,10,ls),
(368,4,o),
(374,0,o),
(382,0,cs)
);
}
);
width = 557;
}
);
unicode = 107;
userData = {
"interface.width-adjustments" = (
-16
);
};
},
{
glyphname = l;
lastChange = "2023-04-12 18:47:14 +0000";
layers = (
{
layerId = m01;
shapes = (
{
closed = 1;
nodes = (
(45,728,ls),
(36,728,o),
(30,722,o),
(30,713,cs),
(30,15,ls),
(30,6,o),
(36,0,o),
(45,0,cs),
(166,0,ls),
(175,0,o),
(181,6,o),
(181,15,cs),
(181,713,ls),
(181,722,o),
(175,728,o),
(166,728,cs)
);
}
);
width = 211;
}
);
unicode = 108;
userData = {
"interface.width-adjustments" = (
-16
);
};
},
{
glyphname = m;
lastChange = "2023-04-12 18:47:14 +0000";
layers = (
{
layerId = m01;
shapes = (
{
closed = 1;
nodes = (
(166,0,ls),
(175,0,o),
(181,6,o),
(181,15,cs),
(181,327,ls),
(181,388,o),
(219,428,o),
(270,428,cs),
(319,428,o),
(352,394,o),
(352,341,cs),
(352,15,ls),
(352,6,o),
(358,0,o),
(367,0,cs),
(484,0,ls),
(493,0,o),
(499,6,o),
(499,15,cs),
(499,333,ls),
(499,390,o),
(532,428,o),
(587,428,cs),
(635,428,o),
(671,398,o),
(671,337,cs),
(671,15,ls),
(671,6,o),
(677,0,o),
(686,0,cs),
(808,0,ls),
(817,0,o),
(823,6,o),
(823,15,cs),
(823,367,ls),
(823,485,o),
(752,553,o),
(650,553,cs),
(570,553,o),
(508,512,o),
(486,449,c),
(480,449,l),
(463,512,o),
(407,553,o),
(332,553,cs),
(259,553,o),
(202,513,o),
(180,449,c),
(173,449,l),
(173,531,ls),
(173,540,o),
(167,546,o),
(158,546,cs),
(45,546,ls),
(36,546,o),
(30,540,o),
(30,531,cs),
(30,15,ls),
(30,6,o),
(36,0,o),
(45,0,cs)
);
}
);
width = 843;
}
);
unicode = 109;
userData = {
"interface.width-adjustments" = (
-16
);
};
},
{
glyphname = n;
lastChange = "2023-04-12 18:47:14 +0000";
layers = (
{
layerId = m01;
shapes = (
{
closed = 1;
nodes = (
(181,386,o),
(223,427,o),
(284,427,cs),
(345,427,o),
(381,387,o),
(381,320,cs),
(381,15,ls),
(381,6,o),
(387,0,o),
(396,0,cs),
(517,0,ls),
(526,0,o),
(532,6,o),
(532,15,cs),
(532,347,ls),
(532,475,o),
(458,553,o),
(344,553,cs),
(263,553,o),
(208,513,o),
(184,449,c),
(178,449,l),
(178,531,ls),
(178,540,o),
(172,546,o),
(163,546,cs),
(45,546,ls),
(36,546,o),
(30,540,o),
(30,531,cs),
(30,15,ls),
(30,6,o),
(36,0,o),
(45,0,cs),
(166,0,ls),
(175,0,o),
(181,6,o),
(181,15,cs),
(181,315,ls)
);
}
);
width = 552;
}
);
unicode = 110;
userData = {
"interface.width-adjustments" = (
-16
);
};
},
{
glyphname = o;
lastChange = "2023-04-12 18:47:14 +0000";
layers = (
{
layerId = m01;
shapes = (
{
closed = 1;
nodes = (
(444,-11,o),
(546,103,o),
(546,271,cs),
(546,439,o),
(444,553,o),
(278,553,cs),
(112,553,o),
(10,439,o),
(10,271,cs),
(10,103,o),
(112,-11,o),
(278,-11,cs)
);
},
{
closed = 1;
nodes = (
(202,107,o),
(163,176,o),
(163,271,cs),
(163,367,o),
(202,435,o),
(278,435,cs),
(353,435,o),
(392,367,o),
(392,271,cs),
(392,176,o),
(353,107,o),
(278,107,cs)
);
}
);
width = 556;
}
);
unicode = 111;
userData = {
com.typemytype.robofont.guideline.magnetic.k4vPhVkDP6 = 5;
"interface.width-adjustments" = (
-16
);
};
},
{
glyphname = p;
lastChange = "2023-04-12 18:47:14 +0000";
layers = (
{
layerId = m01;
shapes = (
{
closed = 1;
nodes = (
(166,-204,ls),
(175,-204,o),
(181,-198,o),
(181,-189,cs),
(181,87,l),
(185,87,l),
(206,42,o),
(252,-9,o),
(340,-9,cs),
(465,-9,o),
(561,90,o),
(561,272,cs),
(561,459,o),
(460,553,o),
(341,553,cs),
(249,553,o),
(205,499,o),
(185,454,c),
(178,454,l),
(178,531,ls),
(178,540,o),
(172,546,o),
(163,546,cs),
(45,546,ls),
(36,546,o),
(30,540,o),
(30,531,cs),
(30,-189,ls),
(30,-198,o),
(36,-204,o),
(45,-204,cs)
);
},
{
closed = 1;
nodes = (
(219,111,o),
(177,176,o),
(177,272,cs),
(177,370,o),
(219,433,o),
(292,433,cs),
(367,433,o),
(407,367,o),
(407,272,cs),
(407,178,o),
(366,111,o),
(292,111,cs)
);
}
);
width = 571;
}
);
unicode = 112;
userData = {
"interface.width-adjustments" = (
-16
);
};
},
{
glyphname = q;
lastChange = "2023-04-12 18:47:14 +0000";
layers = (
{
layerId = m01;
shapes = (
{
closed = 1;
nodes = (
(541,531,ls),
(541,540,o),
(535,546,o),
(526,546,cs),
(408,546,ls),
(399,546,o),
(393,540,o),
(393,531,cs),
(393,454,l),
(386,454,l),
(366,499,o),
(322,553,o),
(230,553,cs),
(111,553,o),
(10,459,o),
(10,272,cs),
(10,90,o),
(106,-9,o),
(231,-9,cs),
(319,-9,o),
(365,42,o),
(386,87,c),
(390,87,l),
(390,-189,ls),
(390,-198,o),
(396,-204,o),
(405,-204,cs),
(526,-204,ls),
(535,-204,o),
(541,-198,o),
(541,-189,cs)
);
},
{
closed = 1;
nodes = (
(205,111,o),
(164,178,o),
(164,272,cs),
(164,367,o),
(204,433,o),
(279,433,cs),
(352,433,o),
(394,370,o),
(394,272,cs),
(394,176,o),
(352,111,o),
(279,111,cs)
);
}
);
width = 571;
}
);
unicode = 113;
userData = {
"interface.width-adjustments" = (
-16
);
};
},
{
glyphname = r;
lastChange = "2023-04-12 18:47:14 +0000";
layers = (
{
layerId = m01;
shapes = (
{
closed = 1;
nodes = (
(166,0,ls),
(175,0,o),
(181,6,o),
(181,15,cs),
(181,309,ls),
(181,375,o),
(230,422,o),
(296,422,cs),
(311,422,o),
(329,420,o),
(344,418,cs),
(354,416,o),
(360,421,o),
(360,431,cs),
(360,534,ls),
(360,543,o),
(356,549,o),
(347,550,cs),
(336,552,o),
(323,553,o),
(313,553,cs),
(252,553,o),
(201,518,o),
(182,450,c),
(176,450,l),
(176,531,ls),
(176,540,o),
(170,546,o),
(161,546,cs),
(45,546,ls),
(36,546,o),
(30,540,o),
(30,531,cs),
(30,15,ls),
(30,6,o),
(36,0,o),
(45,0,cs)
);
}
);
width = 370;
}
);
unicode = 114;
},
{
glyphname = s;
lastChange = "2023-04-12 18:47:14 +0000";
layers = (
{
layerId = m01;
shapes = (
{
closed = 1;
nodes = (
(476,497,o),
(396,553,o),
(266,553,cs),
(126,553,o),
(35,488,o),
(35,383,cs),
(35,301,o),
(86,249,o),
(192,228,cs),
(287,208,ls),
(335,198,o),
(357,181,o),
(357,153,cs),
(357,121,o),
(321,98,o),
(268,98,cs),
(220,98,o),
(186,117,o),
(173,153,cs),
(170,162,o),
(164,165,o),
(155,165,cs),
(36,159,ls),
(26,158,o),
(21,152,o),
(23,142,cs),
(44,47,o),
(130,-11,o),
(268,-11,cs),
(409,-11,o),
(510,62,o),
(510,169,cs),
(510,248,o),
(459,296,o),
(353,317,cs),
(254,336,ls),
(204,347,o),
(185,365,o),
(185,392,cs),
(185,424,o),
(221,445,o),
(268,445,cs),
(314,445,o),
(344,423,o),
(356,395,cs),
(359,386,o),
(364,383,o),
(373,383,cs),
(482,389,ls),
(492,390,o),
(497,396,o),
(495,406,cs)
);
}
);
width = 530;
}
);
unicode = 115;
userData = {
com.typemytype.robofont.guideline.magnetic.1Y8sphnsuc = 5;
com.typemytype.robofont.guideline.magnetic.DuqEUxnaaT = 5;
com.typemytype.robofont.guideline.magnetic.XmDxFVnKBu = 5;
"interface.width-adjustments" = (
-16
);
};
},
{
glyphname = t;
lastChange = "2023-04-12 18:47:14 +0000";
layers = (
{
layerId = m01;
shapes = (
{
closed = 1;
nodes = (
(94,148,ls),
(94,49,o),
(156,-8,o),
(265,-8,cs),
(291,-8,o),
(316,-4,o),
(344,2,cs),
(353,5,o),
(357,10,o),
(355,20,cs),
(337,105,ls),
(335,114,o),
(329,118,o),
(319,117,cs),
(312,116,o),
(304,115,o),
(297,115,cs),
(261,115,o),
(245,131,o),
(245,168,cs),
(245,661,ls),
(245,670,o),
(239,676,o),
(230,676,cs),
(109,676,ls),
(100,676,o),
(94,670,o),
(94,661,cs)
);
},
{
closed = 1;
nodes = (
(35,546,ls),
(26,546,o),
(20,540,o),
(20,531,cs),
(20,447,ls),
(20,438,o),
(26,432,o),
(35,432,cs),
(334,432,ls),
(343,432,o),
(349,438,o),
(349,447,cs),
(349,531,ls),
(349,540,o),
(343,546,o),
(334,546,cs)
);
}
);
width = 368;
}
);
unicode = 116;
userData = {
com.typemytype.robofont.guideline.magnetic.y5AZhPlfwM = 5;
"interface.width-adjustments" = (
-16
);
};
},
{
glyphname = u;
lastChange = "2023-04-12 18:47:14 +0000";
layers = (
{
layerId = m01;
shapes = (
{
closed = 1;
nodes = (
(369,159,o),
(319,121,o),
(266,121,cs),
(208,121,o),
(171,161,o),
(171,225,cs),
(171,531,ls),
(171,540,o),
(165,546,o),
(156,546,cs),
(35,546,ls),
(26,546,o),
(20,540,o),
(20,531,cs),
(20,198,ls),
(20,71,o),
(94,-7,o),
(204,-7,cs),
(286,-7,o),
(345,35,o),
(369,99,c),
(375,99,l),
(375,15,ls),
(375,6,o),
(381,0,o),
(390,0,cs),
(506,0,ls),
(515,0,o),
(521,6,o),
(521,15,cs),
(521,531,ls),
(521,540,o),
(515,546,o),
(506,546,cs),
(384,546,ls),
(375,546,o),
(369,540,o),
(369,531,cs),
(369,232,ls)
);
}
);
width = 551;
}
);
unicode = 117;
userData = {
com.typemytype.robofont.guideline.magnetic.nBhGDD3LHZ = 5;
"interface.width-adjustments" = (
-16
);
};
},
{
glyphname = v;
lastChange = "2023-04-12 18:47:14 +0000";
layers = (
{
layerId = m01;
shapes = (
{
closed = 1;
nodes = (
(417,546,ls),
(409,546,o),
(402,542,o),
(400,533,cs),
(291,155,l),
(285,155,l),
(174,533,ls),
(172,541,o),
(165,546,o),
(157,546,cs),
(28,546,ls),
(17,546,o),
(12,540,o),
(16,529,cs),
(196,12,ls),
(199,3,o),
(205,0,o),
(213,0,cs),
(358,0,ls),
(366,0,o),
(372,3,o),
(375,12,cs),
(556,529,ls),
(560,540,o),
(555,546,o),
(544,546,cs)
);
}
);
width = 572;
}
);
unicode = 118;
userData = {
com.typemytype.robofont.guideline.magnetic.HsEeMarF5L = 5;
"interface.width-adjustments" = (
-16
);
};
},
{
glyphname = w;
lastChange = "2023-04-12 18:47:14 +0000";
layers = (
{
layerId = m01;
shapes = (
{
closed = 1;
nodes = (
(305,0,ls),
(314,0,o),
(319,5,o),
(321,13,cs),
(412,343,l),
(418,343,l),
(509,13,ls),
(511,5,o),
(516,0,o),
(525,0,cs),
(659,0,ls),
(668,0,o),
(673,5,o),
(675,13,cs),
(816,529,ls),
(819,540,o),
(814,546,o),
(804,546,cs),
(681,546,ls),
(672,546,o),
(667,541,o),
(665,533,cs),
(585,181,l),
(580,181,l),
(493,533,ls),
(491,541,o),
(486,546,o),
(477,546,cs),
(354,546,ls),
(345,546,o),
(340,541,o),
(338,533,cs),
(252,179,l),
(247,179,l),
(165,533,ls),
(163,541,o),
(158,546,o),
(149,546,cs),
(27,546,ls),
(17,546,o),
(12,540,o),
(15,529,cs),
(155,13,ls),
(157,5,o),
(162,0,o),
(171,0,cs)
);
}
);
width = 831;
}
);
unicode = 119;
userData = {
com.typemytype.robofont.guideline.magnetic.p3iasCA57f = 5;
"interface.width-adjustments" = (
-16
);
};
},
{
glyphname = x;
lastChange = "2023-04-12 18:47:14 +0000";
layers = (
{
layerId = m01;
shapes = (
{
closed = 1;
nodes = (
(37,546,ls),
(25,546,o),
(20,539,o),
(26,528,cs),
(172,272,l),
(21,18,ls),
(15,7,o),
(19,0,o),
(31,0,cs),
(154,0,ls),
(162,0,o),
(168,2,o),
(172,10,cs),
(272,188,l),
(374,10,ls),
(378,2,o),
(384,0,o),
(392,0,cs),
(513,0,ls),
(525,0,o),
(529,7,o),
(523,18,cs),
(372,272,l),
(520,528,ls),
(526,539,o),
(521,546,o),
(509,546,cs),
(386,546,ls),
(378,546,o),
(372,543,o),
(368,535,cs),
(272,354,l),
(178,535,ls),
(174,543,o),
(168,546,o),
(160,546,cs)
);
}
);
width = 544;
}
);
unicode = 120;
userData = {
com.typemytype.robofont.guideline.magnetic.lFaJLQuFPv = 5;
"interface.width-adjustments" = (
-16
);
};
},
{
glyphname = y;
lastChange = "2023-04-12 18:47:14 +0000";
layers = (
{
layerId = m01;
shapes = (
{
closed = 1;
nodes = (
(258,-208,o),
(318,-151,o),
(348,-63,cs),
(556,529,ls),
(560,540,o),
(555,546,o),
(544,546,cs),
(415,546,ls),
(406,546,o),
(400,542,o),
(398,533,cs),
(288,145,l),
(282,145,l),
(173,533,ls),
(171,542,o),
(165,546,o),
(156,546,cs),
(28,546,ls),
(17,546,o),
(13,539,o),
(16,529,cs),
(205,-16,l),
(196,-43,ls),
(179,-92,o),
(140,-96,o),
(90,-81,cs),
(87,-80,o),
(84,-85,o),
(81,-94,cs),
(54,-179,ls),
(51,-189,o),
(55,-195,o),
(64,-198,cs),
(85,-204,o),
(114,-208,o),
(146,-208,cs)
);
}
);
width = 572;
}
);
unicode = 121;
userData = {
com.typemytype.robofont.guideline.magnetic.lsCjxlYELh = 5;
"interface.width-adjustments" = (
-16
);
};
},
{
glyphname = z;
lastChange = "2023-04-12 18:47:14 +0000";
layers = (
{
layerId = m01;
shapes = (
{
closed = 1;
nodes = (
(463,0,ls),
(472,0,o),
(478,6,o),
(478,15,cs),
(478,106,ls),
(478,115,o),
(472,121,o),
(463,121,cs),
(218,121,l),
(218,125,l),
(463,439,ls),
(467,445,o),
(469,450,o),
(469,457,cs),
(469,531,ls),
(469,540,o),
(463,546,o),
(454,546,cs),
(43,546,ls),
(34,546,o),
(28,540,o),
(28,531,cs),
(28,440,ls),
(28,431,o),
(34,425,o),
(43,425,cs),
(287,425,l),
(287,421,l),
(27,98,ls),
(23,92,o),
(20,87,o),
(20,80,cs),
(20,15,ls),
(20,6,o),
(26,0,o),
(35,0,cs)
);
}
);
width = 498;
}
);
unicode = 122;
userData = {
com.typemytype.robofont.guideline.magnetic.R2Ni5F405P = 5;
"interface.width-adjustments" = (
-16
);
};
},
{
glyphname = "A-cy";
lastChange = "2023-04-12 18:47:14 +0000";
layers = (
{
layerId = m01;
shapes = (
{
closed = 1;
nodes = (
(541,531,ls),
(541,540,o),
(535,546,o),
(526,546,cs),
(408,546,ls),
(399,546,o),
(393,540,o),
(393,531,cs),
(393,454,l),
(386,454,l),
(366,499,o),
(322,553,o),
(230,553,cs),
(111,553,o),
(10,459,o),
(10,272,cs),
(10,90,o),
(106,-9,o),
(231,-9,cs),
(319,-9,o),
(365,42,o),
(386,87,c),
(390,87,l),
(390,15,ls),
(390,6,o),
(396,0,o),
(405,0,cs),
(526,0,ls),
(535,0,o),
(541,6,o),
(541,15,cs)
);
},
{
closed = 1;
nodes = (
(205,111,o),
(164,178,o),
(164,272,cs),
(164,367,o),
(204,433,o),
(279,433,cs),
(352,433,o),
(394,370,o),
(394,272,cs),
(394,176,o),
(352,111,o),
(279,111,cs)
);
}
);
width = 571;
}
);
unicode = 1040;
},
{
glyphname = "Be-cy";
lastChange = "2023-04-12 18:47:14 +0000";
layers = (
{
layerId = m01;
shapes = (
{
closed = 1;
nodes = (
(436,724,o),
(383,728,o),
(312,728,cs),
(114,726,o),
(10,602,o),
(10,338,cs),
(10,294,ls),
(10,96,o),
(112,-10,o),
(278,-11,cs),
(442,-10,o),
(544,95,o),
(544,262,cs),
(544,422,o),
(450,517,o),
(311,517,cs),
(224,517,o),
(164,479,o),
(132,413,c),
(127,413,l),
(140,547,o),
(190,602,o),
(317,603,cs),
(421,604,o),
(475,608,o),
(519,639,cs),
(527,644,o),
(528,650,o),
(524,659,cs),
(490,732,ls),
(486,741,o),
(480,743,o),
(471,739,cs)
);
},
{
closed = 1;
nodes = (
(207,106,o),
(163,164,o),
(164,257,cs),
(164,350,o),
(207,403,o),
(277,403,cs),
(347,403,o),
(390,350,o),
(390,257,cs),
(390,164,o),
(347,106,o),
(278,106,cs)
);
}
);
width = 554;
}
);
unicode = 1041;
userData = {
interface.gridadjust.original = "{'width': 1559, 'leftMargin': 135, 'rightMargin': 92}";
"interface.width-adjustments" = (
-16
);
};
},
{
glyphname = "Ve-cy";
lastChange = "2023-04-12 18:47:14 +0000";
layers = (
{
layerId = m01;
shapes = (
{
closed = 1;
nodes = (
(298,0,ls),
(434,0,o),
(511,56,o),
(511,149,cs),
(511,221,o),
(453,277,o),
(356,284,c),
(434,298,o),
(480,339,o),
(480,398,cs),
(480,493,o),
(397,546,o),
(262,546,cs),
(45,546,ls),
(36,546,o),
(30,540,o),
(30,531,cs),
(30,15,ls),
(30,6,o),
(36,0,o),
(45,0,cs)
);
},
{
closed = 1;
nodes = (
(170,232,l),
(298,232,ls),
(340,232,o),
(365,208,o),
(365,170,cs),
(365,135,o),
(340,113,o),
(298,113,cs),
(170,113,l)
);
},
{
closed = 1;
nodes = (
(170,430,l),
(262,430,ls),
(309,430,o),
(338,410,o),
(338,376,cs),
(338,342,o),
(310,321,o),
(265,321,cs),
(170,321,l)
);
}
);
width = 531;
}
);
unicode = 1042;
userData = {
interface.gridadjust.original = "{'width': 1617.0, 'leftMargin': 213, 'rightMargin': 143.0}";
"interface.width-adjustments" = (
-16
);
};
},
{
glyphname = "Ge-cy";
lastChange = "2023-04-12 18:47:14 +0000";
layers = (
{
layerId = m01;
shapes = (
{
closed = 1;
nodes = (
(157,383,ls),
(166,383,o),
(171,386,o),
(174,395,cs),
(186,423,o),
(216,445,o),
(262,445,cs),
(309,445,o),
(345,424,o),
(345,392,cs),
(345,365,o),
(326,347,o),
(276,336,cs),
(177,317,ls),
(71,296,o),
(20,248,o),
(20,169,cs),
(20,62,o),
(121,-11,o),
(262,-11,cs),
(400,-11,o),
(486,47,o),
(507,142,cs),
(509,152,o),
(504,158,o),
(494,159,cs),
(375,165,ls),
(366,166,o),
(360,162,o),
(357,153,cs),
(344,117,o),
(310,98,o),
(262,98,cs),
(209,98,o),
(173,121,o),
(173,153,cs),
(173,181,o),
(195,198,o),
(243,208,cs),
(338,228,ls),
(444,249,o),
(495,301,o),
(495,383,cs),
(495,488,o),
(404,553,o),
(264,553,cs),
(134,553,o),
(54,497,o),
(35,406,cs),
(33,396,o),
(38,390,o),
(48,389,cs)
);
}
);
width = 530;
}
);
unicode = 1043;
userData = {
interface.gridadjust.original = "{'width': 1181, 'leftMargin': 210, 'rightMargin': 23}";
"interface.width-adjustments" = (
-16
);
};
},
{
glyphname = "Geupturn-cy";
lastChange = "2023-04-12 18:47:14 +0000";
layers = (
{
layerId = m01;
shapes = (
{
closed = 1;
nodes = (
(63,644,ls),
(54,645,o),
(48,639,o),
(47,630,cs),
(33,405,ls),
(32,396,o),
(38,390,o),
(47,389,cs),
(155,383,ls),
(164,382,o),
(170,388,o),
(171,397,cs),
(184,622,ls),
(185,631,o),
(179,637,o),
(170,638,cs)
);
},
{
closed = 1;
nodes = (
(157,383,ls),
(166,383,o),
(171,386,o),
(174,395,cs),
(186,423,o),
(216,445,o),
(262,445,cs),
(309,445,o),
(345,424,o),
(345,392,cs),
(345,365,o),
(326,346,o),
(276,336,cs),
(177,317,ls),
(71,297,o),
(20,248,o),
(20,169,cs),
(20,62,o),
(121,-11,o),
(262,-11,cs),
(400,-11,o),
(486,47,o),
(507,142,cs),
(509,152,o),
(504,158,o),
(494,159,cs),
(375,165,ls),
(366,166,o),
(360,162,o),
(357,153,cs),
(344,117,o),
(310,98,o),
(262,98,cs),
(209,98,o),
(173,121,o),
(173,153,cs),
(173,181,o),
(195,198,o),
(243,208,cs),
(338,228,ls),
(444,250,o),
(495,301,o),
(495,383,cs),
(495,488,o),
(404,553,o),
(264,553,cs),
(134,553,o),
(54,497,o),
(35,406,cs),
(33,396,o),
(38,390,o),
(48,389,cs)
);
}
);
width = 530;
}
);
unicode = 1168;
userData = {
interface.gridadjust.original = "{'width': 1260, 'leftMargin': 154, 'rightMargin': 110}";
"interface.width-adjustments" = (
-16
);
};
},
{
glyphname = "De-cy";
lastChange = "2023-04-12 18:47:14 +0000";
layers = (
{
anchors = (
{
name = bottom;
pos = (279,-208);
},
{
name = topr;
pos = (542,546);
}
);
layerId = m01;
shapes = (
{
closed = 1;
nodes = (
(432,-216,o),
(542,-145,o),
(542,-6,cs),
(542,531,ls),
(542,540,o),
(536,546,o),
(527,546,cs),
(409,546,ls),
(400,546,o),
(394,540,o),
(394,531,cs),
(394,454,l),
(388,454,l),
(367,499,o),
(322,553,o),
(231,553,cs),
(111,553,o),
(10,459,o),
(10,273,cs),
(10,92,o),
(109,8,o),
(231,8,cs),
(318,8,o),
(367,51,o),
(387,97,c),
(393,97,l),
(393,-3,ls),
(393,-78,o),
(345,-107,o),
(280,-107,cs),
(221,-107,o),
(188,-85,o),
(172,-57,cs),
(168,-49,o),
(162,-46,o),
(154,-47,cs),
(43,-61,ls),
(33,-62,o),
(28,-69,o),
(31,-78,cs),
(55,-158,o),
(138,-216,o),
(276,-216,cs)
);
},
{
closed = 1;
nodes = (
(205,122,o),
(164,181,o),
(164,274,cs),
(164,367,o),
(204,433,o),
(279,433,cs),
(352,433,o),
(394,370,o),
(394,274,cs),
(394,179,o),
(352,122,o),
(279,122,cs)
);
}
);
width = 572;
}
);
unicode = 1044;
userData = {
interface.gridadjust.original = "{'width': 1719, 'leftMargin': 62, 'rightMargin': 85}";
"interface.width-adjustments" = (
-16
);
};
},
{
glyphname = "Ie-cy";
lastChange = "2023-04-12 18:47:14 +0000";
layers = (
{
layerId = m01;
shapes = (
{
closed = 1;
nodes = (
(409,-11,o),
(496,50,o),
(523,143,cs),
(525,151,o),
(519,156,o),
(509,157,cs),
(399,164,ls),
(391,165,o),
(385,161,o),
(381,153,cs),
(363,120,o),
(328,102,o),
(283,102,cs),
(208,102,o),
(159,155,o),
(159,243,cs),
(159,309,ls),
(159,385,o),
(200,440,o),
(274,440,cs),
(342,440,o),
(381,394,o),
(386,321,cs),
(387,310,o),
(394,305,o),
(404,309,cs),
(422,316,ls),
(432,319,o),
(420,328,o),
(406,328,cs),
(85,328,ls),
(76,328,o),
(70,322,o),
(70,313,cs),
(70,249,ls),
(70,240,o),
(76,234,o),
(85,234,cs),
(516,234,ls),
(525,234,o),
(531,240,o),
(531,249,cs),
(531,275,ls),
(531,461,o),
(417,553,o),
(273,553,cs),
(113,553,o),
(10,438,o),
(10,271,cs),
(10,97,o),
(112,-11,o),
(280,-11,cs)
);
}
);
width = 541;
}
);
unicode = 1045;
},
{
glyphname = "Io-cy";
lastChange = "2023-04-12 18:47:14 +0000";
layers = (
{
anchors = (
{
name = ogonek;
pos = (526,156);
}
);
layerId = m01;
shapes = (
{
closed = 1;
nodes = (
(409,-11,o),
(496,50,o),
(523,143,cs),
(525,151,o),
(519,156,o),
(509,157,cs),
(399,164,ls),
(391,165,o),
(385,161,o),
(381,153,cs),
(363,120,o),
(328,102,o),
(283,102,cs),
(208,102,o),
(159,155,o),
(159,243,cs),
(159,309,ls),
(159,385,o),
(200,440,o),
(274,440,cs),
(342,440,o),
(381,394,o),
(386,321,cs),
(387,310,o),
(394,305,o),
(404,309,cs),
(422,316,ls),
(432,319,o),
(420,328,o),
(406,328,cs),
(85,328,ls),
(76,328,o),
(70,322,o),
(70,313,cs),
(70,249,ls),
(70,240,o),
(76,234,o),
(85,234,cs),
(516,234,ls),
(525,234,o),
(531,240,o),
(531,249,cs),
(531,275,ls),
(531,461,o),
(417,553,o),
(273,553,cs),
(113,553,o),
(10,438,o),
(10,271,cs),
(10,97,o),
(112,-11,o),
(280,-11,cs)
);
},
{
closed = 1;
nodes = (
(420,620,o),
(453,653,o),
(453,692,cs),
(453,732,o),
(420,765,o),
(379,765,cs),
(338,765,o),
(305,732,o),
(305,692,cs),
(305,653,o),
(338,620,o),
(379,620,cs)
);
},
{
closed = 1;
nodes = (
(203,620,o),
(236,653,o),
(236,692,cs),
(236,732,o),
(203,765,o),
(162,765,cs),
(121,765,o),
(88,732,o),
(88,692,cs),
(88,653,o),
(121,620,o),
(162,620,cs)
);
}
);
width = 541;
}
);
unicode = 1025;
},
{
glyphname = "Zhe-cy";
lastChange = "2023-04-12 18:47:14 +0000";
layers = (
{
anchors = (
{
name = cyrtic;
pos = (826,0);
}
);
layerId = m01;
shapes = (
{
closed = 1;
nodes = (
(194,0,ls),
(202,0,o),
(208,3,o),
(212,10,cs),
(346,213,l),
(368,213,l),
(368,15,ls),
(368,6,o),
(374,0,o),
(383,0,cs),
(504,0,ls),
(513,0,o),
(519,6,o),
(519,15,cs),
(519,213,l),
(541,213,l),
(675,10,ls),
(679,3,o),
(685,0,o),
(693,0,cs),
(836,0,ls),
(848,0,o),
(853,7,o),
(846,18,cs),
(667,284,l),
(844,528,ls),
(851,538,o),
(846,546,o),
(834,546,cs),
(696,546,ls),
(688,546,o),
(682,543,o),
(678,536,cs),
(542,332,l),
(519,332,l),
(519,531,ls),
(519,540,o),
(513,546,o),
(504,546,cs),
(383,546,ls),
(374,546,o),
(368,540,o),
(368,531,cs),
(368,332,l),
(345,332,l),
(208,536,ls),
(204,542,o),
(198,546,o),
(190,546,cs),
(53,546,ls),
(41,546,o),
(36,538,o),
(43,528,cs),
(220,284,l),
(41,18,ls),
(34,7,o),
(39,0,o),
(51,0,cs)
);
}
);
width = 878;
}
);
unicode = 1046;
userData = {
interface.gridadjust.original = "{'width': 2156.0, 'leftMargin': 29, 'rightMargin': 37.0}";
"interface.width-adjustments" = (
-16
);
};
},
{
glyphname = "Ze-cy";
lastChange = "2023-04-12 18:47:14 +0000";
layers = (
{
layerId = m01;
shapes = (
{
closed = 1;
nodes = (
(33,-113,o),
(143,-192,o),
(296,-192,cs),
(456,-192,o),
(576,-104,o),
(576,25,cs),
(576,122,o),
(509,216,o),
(356,231,c),
(356,237,l),
(544,426,ls),
(549,431,o),
(552,438,o),
(552,445,cs),
(552,531,ls),
(552,540,o),
(546,546,o),
(537,546,cs),
(71,546,ls),
(62,546,o),
(56,540,o),
(56,531,cs),
(56,435,ls),
(56,426,o),
(62,420,o),
(71,420,cs),
(363,420,l),
(363,415,l),
(208,255,ls),
(203,249,o),
(201,243,o),
(201,236,cs),
(201,155,ls),
(201,146,o),
(207,140,o),
(216,140,cs),
(280,140,ls),
(369,140,o),
(416,95,o),
(416,35,cs),
(416,-27,o),
(367,-65,o),
(297,-65,cs),
(236,-65,o),
(188,-37,o),
(177,10,cs),
(175,19,o),
(170,24,o),
(161,24,cs),
(36,24,ls),
(26,24,o),
(20,18,o),
(21,9,cs)
);
}
);
userData = {
RMXScaler = {
custom = -10;
height = 74.95;
weight = -20;
width = 79;
};
};
width = 596;
}
);
unicode = 1047;
userData = {
RMXScaler = {
source = three;
};
};
},
{
glyphname = "Ii-cy";
lastChange = "2023-04-12 18:47:14 +0000";
layers = (
{
layerId = m01;
shapes = (
{
closed = 1;
nodes = (
(369,159,o),
(319,121,o),
(266,121,cs),
(208,121,o),
(171,161,o),
(171,225,cs),
(171,531,ls),
(171,540,o),
(165,546,o),
(156,546,cs),
(35,546,ls),
(26,546,o),
(20,540,o),
(20,531,cs),
(20,198,ls),
(20,71,o),
(94,-7,o),
(204,-7,cs),
(286,-7,o),
(345,35,o),
(369,99,c),
(375,99,l),
(375,15,ls),
(375,6,o),
(381,0,o),
(390,0,cs),
(506,0,ls),
(515,0,o),
(521,6,o),
(521,15,cs),
(521,531,ls),
(521,540,o),
(515,546,o),
(506,546,cs),
(384,546,ls),
(375,546,o),
(369,540,o),
(369,531,cs),
(369,232,ls)
);
}
);
width = 551;
}
);
unicode = 1048;
userData = {
interface.gridadjust.original = "{'width': 1635, 'leftMargin': 213, 'rightMargin': 213}";
"interface.width-adjustments" = (
-16
);
};
},
{
glyphname = "Iishort-cy";
lastChange = "2023-04-12 18:47:14 +0000";
layers = (
{
layerId = m01;
shapes = (
{
closed = 1;
nodes = (
(371,607,o),
(440,661,o),
(446,742,cs),
(447,750,o),
(442,755,o),
(432,755,cs),
(355,755,ls),
(346,755,o),
(341,750,o),
(340,741,cs),
(334,709,o),
(309,689,o),
(271,689,cs),
(232,689,o),
(207,709,o),
(201,741,cs),
(200,750,o),
(195,755,o),
(186,755,cs),
(110,755,ls),
(100,755,o),
(95,750,o),
(96,740,cs),
(104,660,o),
(172,607,o),
(271,607,cs)
);
},
{
closed = 1;
nodes = (
(369,159,o),
(319,121,o),
(266,121,cs),
(208,121,o),
(171,161,o),
(171,225,cs),
(171,531,ls),
(171,540,o),
(165,546,o),
(156,546,cs),
(35,546,ls),
(26,546,o),
(20,540,o),
(20,531,cs),
(20,198,ls),
(20,71,o),
(94,-7,o),
(204,-7,cs),
(286,-7,o),
(345,35,o),
(369,99,c),
(375,99,l),
(375,15,ls),
(375,6,o),
(381,0,o),
(390,0,cs),
(506,0,ls),
(515,0,o),
(521,6,o),
(521,15,cs),
(521,531,ls),
(521,540,o),
(515,546,o),
(506,546,cs),
(384,546,ls),
(375,546,o),
(369,540,o),
(369,531,cs),
(369,232,ls)
);
}
);
width = 551;
}
);
unicode = 1049;
},
{
glyphname = "Ka-cy";
lastChange = "2023-04-12 18:47:14 +0000";
layers = (
{
layerId = m01;
shapes = (
{
closed = 1;
nodes = (
(166,0,ls),
(175,0,o),
(181,6,o),
(181,15,cs),
(181,205,l),
(236,205,l),
(366,10,ls),
(370,3,o),
(376,0,o),
(384,0,cs),
(529,0,ls),
(541,0,o),
(545,8,o),
(538,18,cs),
(357,274,l),
(537,528,ls),
(544,538,o),
(540,546,o),
(528,546,cs),
(384,546,ls),
(376,546,o),
(369,542,o),
(365,536,cs),
(221,324,l),
(181,324,l),
(181,531,ls),
(181,540,o),
(175,546,o),
(166,546,cs),
(45,546,ls),
(36,546,o),
(30,540,o),
(30,531,cs),
(30,15,ls),
(30,6,o),
(36,0,o),
(45,0,cs)
);
}
);
width = 561;
}
);
unicode = 1050;
userData = {
"interface.width-adjustments" = (
-16
);
};
},
{
glyphname = "El-cy";
lastChange = "2023-04-12 18:47:14 +0000";
layers = (
{
layerId = m01;
shapes = (
{
closed = 1;
nodes = (
(155,0,ls),
(163,0,o),
(170,4,o),
(172,13,cs),
(281,391,l),
(287,391,l),
(398,13,ls),
(400,5,o),
(407,0,o),
(415,0,cs),
(544,0,ls),
(555,0,o),
(560,6,o),
(556,17,cs),
(376,534,ls),
(373,543,o),
(367,546,o),
(359,546,cs),
(214,546,ls),
(206,546,o),
(200,543,o),
(197,534,cs),
(16,17,ls),
(12,6,o),
(17,0,o),
(28,0,cs)
);
}
);
width = 572;
}
);
unicode = 1051;
userData = {
interface.gridadjust.original = "{'width': 1638, 'leftMargin': 61, 'rightMargin': 213}";
"interface.width-adjustments" = (
-16
);
};
},
{
glyphname = "Em-cy";
lastChange = "2023-04-12 18:47:14 +0000";
layers = (
{
layerId = m01;
shapes = (
{
closed = 1;
nodes = (
(389,0,ls),
(397,0,o),
(404,4,o),
(407,12,cs),
(608,529,ls),
(612,540,o),
(607,546,o),
(596,546,cs),
(512,546,ls),
(504,546,o),
(497,542,o),
(494,534,cs),
(352,167,l),
(213,534,ls),
(210,542,o),
(204,546,o),
(196,546,cs),
(113,546,ls),
(102,546,o),
(97,540,o),
(101,529,cs),
(297,12,ls),
(300,4,o),
(307,0,o),
(315,0,cs)
);
},
{
closed = 1;
nodes = (
(159,0,ls),
(168,0,o),
(174,6,o),
(174,15,cs),
(174,531,ls),
(174,540,o),
(168,546,o),
(159,546,cs),
(45,546,ls),
(36,546,o),
(30,540,o),
(30,531,cs),
(30,15,ls),
(30,6,o),
(36,0,o),
(45,0,cs)
);
},
{
closed = 1;
nodes = (
(664,0,ls),
(673,0,o),
(679,6,o),
(679,15,cs),
(679,531,ls),
(679,540,o),
(673,546,o),
(664,546,cs),
(552,546,ls),
(543,546,o),
(537,540,o),
(537,531,cs),
(537,15,ls),
(537,6,o),
(543,0,o),
(552,0,cs)
);
}
);
width = 709;
}
);
unicode = 1052;
},
{
glyphname = "En-cy";
lastChange = "2023-04-12 18:47:14 +0000";
layers = (
{
layerId = m01;
shapes = (
{
closed = 1;
nodes = (
(153,333,ls),
(144,333,o),
(138,327,o),
(138,318,cs),
(138,229,ls),
(138,220,o),
(144,214,o),
(153,214,cs),
(409,214,ls),
(418,214,o),
(424,220,o),
(424,229,cs),
(424,318,ls),
(424,327,o),
(418,333,o),
(409,333,cs)
);
},
{
closed = 1;
nodes = (
(45,546,ls),
(36,546,o),
(30,540,o),
(30,531,cs),
(30,15,ls),
(30,6,o),
(36,0,o),
(45,0,cs),
(166,0,ls),
(175,0,o),
(181,6,o),
(181,15,cs),
(181,531,ls),
(181,540,o),
(175,546,o),
(166,546,cs)
);
},
{
closed = 1;
nodes = (
(396,546,ls),
(387,546,o),
(381,540,o),
(381,531,cs),
(381,15,ls),
(381,6,o),
(387,0,o),
(396,0,cs),
(517,0,ls),
(526,0,o),
(532,6,o),
(532,15,cs),
(532,531,ls),
(532,540,o),
(526,546,o),
(517,546,cs)
);
}
);
width = 562;
}
);
unicode = 1053;
},
{
glyphname = "O-cy";
lastChange = "2023-04-12 18:47:14 +0000";
layers = (
{
layerId = m01;
shapes = (
{
closed = 1;
nodes = (
(444,-11,o),
(546,103,o),
(546,271,cs),
(546,439,o),
(444,553,o),
(278,553,cs),
(112,553,o),
(10,439,o),
(10,271,cs),
(10,103,o),
(112,-11,o),
(278,-11,cs)
);
},
{
closed = 1;
nodes = (
(202,107,o),
(163,176,o),
(163,271,cs),
(163,367,o),
(202,435,o),
(278,435,cs),
(353,435,o),
(392,367,o),
(392,271,cs),
(392,176,o),
(353,107,o),
(278,107,cs)
);
}
);
width = 556;
}
);
unicode = 1054;
},
{
glyphname = "Pe-cy";
lastChange = "2023-04-12 18:47:14 +0000";
layers = (
{
layerId = m01;
shapes = (
{
closed = 1;
nodes = (
(182,387,o),
(232,425,o),
(285,425,cs),
(343,425,o),
(380,385,o),
(380,321,cs),
(380,15,ls),
(380,6,o),
(386,0,o),
(395,0,cs),
(516,0,ls),
(525,0,o),
(531,6,o),
(531,15,cs),
(531,348,ls),
(531,475,o),
(457,553,o),
(347,553,cs),
(265,553,o),
(206,511,o),
(182,447,c),
(176,447,l),
(176,531,ls),
(176,540,o),
(170,546,o),
(161,546,cs),
(45,546,ls),
(36,546,o),
(30,540,o),
(30,531,cs),
(30,15,ls),
(30,6,o),
(36,0,o),
(45,0,cs),
(167,0,ls),
(176,0,o),
(182,6,o),
(182,15,cs),
(182,314,ls)
);
}
);
width = 551;
}
);
unicode = 1055;
userData = {
interface.gridadjust.original = "{'width': 1635, 'leftMargin': 213, 'rightMargin': 213}";
"interface.width-adjustments" = (
-16
);
};
},
{
glyphname = "Er-cy";
lastChange = "2023-04-12 18:47:14 +0000";
layers = (
{
layerId = m01;
shapes = (
{
closed = 1;
nodes = (
(166,-204,ls),
(175,-204,o),
(181,-198,o),
(181,-189,cs),
(181,87,l),
(185,87,l),
(206,42,o),
(252,-9,o),
(340,-9,cs),
(465,-9,o),
(561,90,o),
(561,272,cs),
(561,459,o),
(460,553,o),
(341,553,cs),
(249,553,o),
(205,499,o),
(185,454,c),
(178,454,l),
(178,531,ls),
(178,540,o),
(172,546,o),
(163,546,cs),
(45,546,ls),
(36,546,o),
(30,540,o),
(30,531,cs),
(30,-189,ls),
(30,-198,o),
(36,-204,o),
(45,-204,cs)
);
},
{
closed = 1;
nodes = (
(219,111,o),
(177,176,o),
(177,272,cs),
(177,370,o),
(219,433,o),
(292,433,cs),
(367,433,o),
(407,367,o),
(407,272,cs),
(407,178,o),
(366,111,o),
(292,111,cs)
);
}
);
width = 581;
}
);
unicode = 1056;
},
{
glyphname = "Es-cy";
lastChange = "2023-04-12 18:47:14 +0000";
layers = (
{
anchors = (
{
name = topr;
pos = (521,344);
}
);
layerId = m01;
shapes = (
{
closed = 1;
nodes = (
(418,-11,o),
(507,69,o),
(520,186,cs),
(521,195,o),
(515,200,o),
(505,200,cs),
(393,200,ls),
(384,200,o),
(379,195,o),
(376,186,cs),
(364,137,o),
(327,107,o),
(280,107,cs),
(209,107,o),
(163,168,o),
(163,272,cs),
(163,376,o),
(209,435,o),
(280,435,cs),
(330,435,o),
(364,404,o),
(376,357,cs),
(378,348,o),
(384,344,o),
(393,344,cs),
(505,344,ls),
(515,344,o),
(521,350,o),
(520,360,cs),
(507,477,o),
(414,553,o),
(277,553,cs),
(112,553,o),
(10,438,o),
(10,271,cs),
(10,104,o),
(110,-11,o),
(278,-11,cs)
);
}
);
width = 531;
}
);
unicode = 1057;
},
{
glyphname = "Te-cy";
lastChange = "2023-04-12 18:47:14 +0000";
layers = (
{
layerId = m01;
shapes = (
{
closed = 1;
nodes = (
(166,0,ls),
(175,0,o),
(181,6,o),
(181,15,cs),
(181,327,ls),
(181,388,o),
(219,428,o),
(270,428,cs),
(319,428,o),
(352,394,o),
(352,341,cs),
(352,15,ls),
(352,6,o),
(358,0,o),
(367,0,cs),
(484,0,ls),
(493,0,o),
(499,6,o),
(499,15,cs),
(499,333,ls),
(499,390,o),
(532,428,o),
(587,428,cs),
(635,428,o),
(671,398,o),
(671,337,cs),
(671,15,ls),
(671,6,o),
(677,0,o),
(686,0,cs),
(808,0,ls),
(817,0,o),
(823,6,o),
(823,15,cs),
(823,367,ls),
(823,485,o),
(752,553,o),
(650,553,cs),
(570,553,o),
(508,512,o),
(486,449,c),
(480,449,l),
(463,512,o),
(407,553,o),
(332,553,cs),
(259,553,o),
(202,513,o),
(180,449,c),
(173,449,l),
(173,531,ls),
(173,540,o),
(167,546,o),
(158,546,cs),
(45,546,ls),
(36,546,o),
(30,540,o),
(30,531,cs),
(30,15,ls),
(30,6,o),
(36,0,o),
(45,0,cs)
);
}
);
width = 843;
}
);
unicode = 1058;
userData = {
interface.gridadjust.original = "{'width': 1357, 'leftMargin': 55, 'rightMargin': 55}";
"interface.width-adjustments" = (
-16
);
};
},
{
glyphname = "U-cy";
lastChange = "2023-04-12 18:47:14 +0000";
layers = (
{
layerId = m01;
shapes = (
{
closed = 1;
nodes = (
(258,-208,o),
(318,-151,o),
(348,-63,cs),
(556,529,ls),
(560,540,o),
(555,546,o),
(544,546,cs),
(415,546,ls),
(406,546,o),
(400,542,o),
(398,533,cs),
(288,145,l),
(282,145,l),
(173,533,ls),
(171,542,o),
(165,546,o),
(156,546,cs),
(28,546,ls),
(17,546,o),
(13,539,o),
(16,529,cs),
(205,-16,l),
(196,-43,ls),
(179,-92,o),
(140,-96,o),
(90,-81,cs),
(87,-80,o),
(84,-85,o),
(81,-94,cs),
(54,-179,ls),
(51,-189,o),
(55,-195,o),
(64,-198,cs),
(85,-204,o),
(114,-208,o),
(146,-208,cs)
);
}
);
width = 572;
}
);
unicode = 1059;
},
{
glyphname = "Ushort-cy";
lastChange = "2023-04-12 18:47:14 +0000";
layers = (
{
layerId = m01;
shapes = (
{
closed = 1;
nodes = (
(258,-208,o),
(318,-151,o),
(348,-63,cs),
(556,529,ls),
(560,540,o),
(555,546,o),
(544,546,cs),
(415,546,ls),
(406,546,o),
(400,542,o),
(398,533,cs),
(288,145,l),
(282,145,l),
(173,533,ls),
(171,542,o),
(165,546,o),
(156,546,cs),
(28,546,ls),
(17,546,o),
(13,539,o),
(16,529,cs),
(205,-16,l),
(196,-43,ls),
(179,-92,o),
(140,-96,o),
(90,-81,cs),
(87,-80,o),
(84,-85,o),
(81,-94,cs),
(54,-179,ls),
(51,-189,o),
(55,-195,o),
(64,-198,cs),
(85,-204,o),
(114,-208,o),
(146,-208,cs)
);
},
{
closed = 1;
nodes = (
(385,607,o),
(454,661,o),
(460,742,cs),
(461,750,o),
(456,755,o),
(446,755,cs),
(369,755,ls),
(360,755,o),
(355,750,o),
(354,741,cs),
(348,709,o),
(323,689,o),
(285,689,cs),
(246,689,o),
(221,709,o),
(215,741,cs),
(214,750,o),
(209,755,o),
(200,755,cs),
(124,755,ls),
(114,755,o),
(109,750,o),
(110,740,cs),
(118,660,o),
(186,607,o),
(285,607,cs)
);
}
);
width = 572;
}
);
unicode = 1038;
},
{
glyphname = "Ef-cy";
lastChange = "2023-04-12 18:47:14 +0000";
layers = (
{
layerId = m01;
shapes = (
{
closed = 1;
nodes = (
(526,-186,ls),
(535,-186,o),
(541,-180,o),
(541,-171,cs),
(541,87,l),
(545,87,l),
(566,42,o),
(612,-9,o),
(700,-9,cs),
(825,-9,o),
(921,90,o),
(921,272,cs),
(921,459,o),
(820,553,o),
(701,553,cs),
(609,553,o),
(565,499,o),
(545,454,c),
(541,454,l),
(541,713,ls),
(541,722,o),
(535,728,o),
(526,728,cs),
(405,728,ls),
(396,728,o),
(390,722,o),
(390,713,cs),
(390,454,l),
(386,454,l),
(366,499,o),
(322,553,o),
(230,553,cs),
(111,553,o),
(10,459,o),
(10,272,cs),
(10,90,o),
(106,-9,o),
(231,-9,cs),
(319,-9,o),
(365,42,o),
(386,87,c),
(390,87,l),
(390,-171,ls),
(390,-180,o),
(396,-186,o),
(405,-186,cs)
);
},
{
closed = 1;
nodes = (
(164,367,o),
(204,433,o),
(279,433,cs),
(339,433,o),
(378,391,o),
(390,321,c),
(390,223,l),
(378,155,o),
(339,111,o),
(279,111,cs),
(205,111,o),
(164,178,o),
(164,272,cs)
);
},
{
closed = 1;
nodes = (
(541,297,l),
(548,381,o),
(589,433,o),
(655,433,cs),
(730,433,o),
(770,367,o),
(770,272,cs),
(770,178,o),
(729,111,o),
(655,111,cs),
(589,111,o),
(548,165,o),
(541,247,c)
);
}
);
width = 931;
}
);
unicode = 1060;
userData = {
interface.gridadjust.original = "{'width': 2043, 'leftMargin': 135, 'rightMargin': 134}";
"interface.width-adjustments" = (
-16
);
};
},
{
glyphname = "Ha-cy";
lastChange = "2023-04-12 18:47:14 +0000";
layers = (
{
layerId = m01;
shapes = (
{
closed = 1;
nodes = (
(37,546,ls),
(25,546,o),
(20,539,o),
(26,528,cs),
(172,272,l),
(21,18,ls),
(15,7,o),
(19,0,o),
(31,0,cs),
(154,0,ls),
(162,0,o),
(168,2,o),
(172,10,cs),
(272,188,l),
(374,10,ls),
(378,2,o),
(384,0,o),
(392,0,cs),
(513,0,ls),
(525,0,o),
(529,7,o),
(523,18,cs),
(372,272,l),
(520,528,ls),
(526,539,o),
(521,546,o),
(509,546,cs),
(386,546,ls),
(378,546,o),
(372,543,o),
(368,535,cs),
(272,354,l),
(178,535,ls),
(174,543,o),
(168,546,o),
(160,546,cs)
);
}
);
width = 544;
}
);
unicode = 1061;
},
{
glyphname = "Che-cy";
lastChange = "2023-04-12 18:47:14 +0000";
layers = (
{
layerId = m01;
shapes = (
{
closed = 1;
nodes = (
(310,157,o),
(369,169,o),
(404,183,cs),
(410,186,o),
(413,191,o),
(413,199,cs),
(413,288,ls),
(413,299,o),
(406,304,o),
(396,300,cs),
(347,285,o),
(306,276,o),
(262,276,cs),
(192,276,o),
(161,298,o),
(161,360,cs),
(161,531,ls),
(161,540,o),
(155,546,o),
(146,546,cs),
(25,546,ls),
(16,546,o),
(10,540,o),
(10,531,cs),
(10,360,ls),
(10,224,o),
(97,157,o),
(262,157,cs)
);
},
{
closed = 1;
nodes = (
(475,0,ls),
(484,0,o),
(490,6,o),
(490,15,cs),
(490,531,ls),
(490,540,o),
(484,546,o),
(475,546,cs),
(354,546,ls),
(345,546,o),
(339,540,o),
(339,531,cs),
(339,15,ls),
(339,6,o),
(345,0,o),
(354,0,cs)
);
}
);
width = 520;
}
);
unicode = 1063;
userData = {
interface.gridadjust.original = "{'width': 1539, 'leftMargin': 140, 'rightMargin': 213}";
"interface.width-adjustments" = (
-16
);
};
},
{
glyphname = "Tse-cy";
lastChange = "2023-04-12 18:47:14 +0000";
layers = (
{
layerId = m01;
shapes = (
{
closed = 1;
nodes = (
(369,159,o),
(319,121,o),
(266,121,cs),
(208,121,o),
(171,161,o),
(171,225,cs),
(171,531,ls),
(171,540,o),
(165,546,o),
(156,546,cs),
(35,546,ls),
(26,546,o),
(20,540,o),
(20,531,cs),
(20,198,ls),
(20,71,o),
(94,-7,o),
(204,-7,cs),
(286,-7,o),
(345,35,o),
(369,99,c),
(375,99,l),
(375,15,ls),
(375,6,o),
(381,0,o),
(390,0,cs),
(506,0,ls),
(515,0,o),
(521,6,o),
(521,15,cs),
(521,531,ls),
(521,540,o),
(515,546,o),
(506,546,cs),
(384,546,ls),
(375,546,o),
(369,540,o),
(369,531,cs),
(369,232,ls)
);
},
{
closed = 1;
nodes = (
(514,-3,o),
(515,-30,o),
(421,-33,cs),
(410,-33,o),
(404,-39,o),
(404,-48,cs),
(404,-148,ls),
(404,-157,o),
(410,-163,o),
(420,-163,cs),
(669,-152,o),
(665,118,o),
(420,130,cs),
(409,130,o),
(404,124,o),
(404,115,cs),
(404,15,ls),
(404,6,o),
(409,0,o),
(420,0,cs)
);
}
);
width = 615;
}
);
note = "!post:RemoveOverlap";
unicode = 1062;
userData = {
interface.gridadjust.original = "{'width': 1683.0, 'leftMargin': 213, 'rightMargin': 78.0}";
"interface.width-adjustments" = (
-16
);
};
},
{
glyphname = "Sha-cy";
lastChange = "2023-04-12 18:47:14 +0000";
layers = (
{
layerId = m01;
shapes = (
{
closed = 1;
nodes = (
(677,546,ls),
(668,546,o),
(662,540,o),
(662,531,cs),
(662,219,ls),
(662,158,o),
(624,118,o),
(573,118,cs),
(524,118,o),
(491,152,o),
(491,205,cs),
(491,531,ls),
(491,540,o),
(485,546,o),
(476,546,cs),
(359,546,ls),
(350,546,o),
(344,540,o),
(344,531,cs),
(344,213,ls),
(344,156,o),
(311,118,o),
(256,118,cs),
(208,118,o),
(172,148,o),
(172,209,cs),
(172,531,ls),
(172,540,o),
(166,546,o),
(157,546,cs),
(35,546,ls),
(26,546,o),
(20,540,o),
(20,531,cs),
(20,179,ls),
(20,61,o),
(91,-7,o),
(193,-7,cs),
(273,-7,o),
(335,34,o),
(357,97,c),
(363,97,l),
(380,34,o),
(436,-7,o),
(511,-7,cs),
(584,-7,o),
(641,33,o),
(663,97,c),
(670,97,l),
(670,15,ls),
(670,6,o),
(676,0,o),
(685,0,cs),
(798,0,ls),
(807,0,o),
(813,6,o),
(813,15,cs),
(813,531,ls),
(813,540,o),
(807,546,o),
(798,546,cs)
);
}
);
width = 843;
}
);
unicode = 1064;
userData = {
interface.gridadjust.original = "{'width': 2288.0, 'leftMargin': 213, 'rightMargin': 213.0}";
"interface.width-adjustments" = (
-16
);
};
},
{
glyphname = "Shcha-cy";
lastChange = "2023-04-12 18:47:14 +0000";
layers = (
{
layerId = m01;
shapes = (
{
closed = 1;
nodes = (
(677,546,ls),
(668,546,o),
(662,540,o),
(662,531,cs),
(662,219,ls),
(662,158,o),
(624,118,o),
(573,118,cs),
(524,118,o),
(491,152,o),
(491,205,cs),
(491,531,ls),
(491,540,o),
(485,546,o),
(476,546,cs),
(359,546,ls),
(350,546,o),
(344,540,o),
(344,531,cs),
(344,213,ls),
(344,156,o),
(311,118,o),
(256,118,cs),
(208,118,o),
(172,148,o),
(172,209,cs),
(172,531,ls),
(172,540,o),
(166,546,o),
(157,546,cs),
(35,546,ls),
(26,546,o),
(20,540,o),
(20,531,cs),
(20,179,ls),
(20,61,o),
(91,-7,o),
(193,-7,cs),
(273,-7,o),
(335,34,o),
(357,97,c),
(363,97,l),
(380,34,o),
(436,-7,o),
(511,-7,cs),
(584,-7,o),
(641,33,o),
(663,97,c),
(670,97,l),
(670,15,ls),
(670,6,o),
(676,0,o),
(685,0,cs),
(798,0,ls),
(807,0,o),
(813,6,o),
(813,15,cs),
(813,531,ls),
(813,540,o),
(807,546,o),
(798,546,cs)
);
},
{
closed = 1;
nodes = (
(810,-3,o),
(810,-30,o),
(716,-33,cs),
(705,-33,o),
(699,-39,o),
(699,-48,cs),
(699,-148,ls),
(699,-157,o),
(705,-163,o),
(715,-163,cs),
(964,-152,o),
(961,118,o),
(715,130,cs),
(704,130,o),
(699,124,o),
(699,115,cs),
(699,15,ls),
(699,6,o),
(705,0,o),
(715,0,cs)
);
}
);
width = 930;
}
);
unicode = 1065;
userData = {
interface.gridadjust.original = "{'width': 2346, 'leftMargin': 196, 'rightMargin': 72}";
"interface.width-adjustments" = (
-16
);
};
},
{
glyphname = "Softsign-cy";
lastChange = "2023-04-12 18:47:14 +0000";
layers = (
{
layerId = m01;
shapes = (
{
closed = 1;
nodes = (
(127,273,ls),
(127,264,o),
(133,258,o),
(142,258,cs),
(290,258,ls),
(342,258,o),
(374,231,o),
(374,187,cs),
(374,146,o),
(342,119,o),
(290,119,cs),
(181,119,l),
(181,531,ls),
(181,540,o),
(175,546,o),
(166,546,cs),
(45,546,ls),
(36,546,o),
(30,540,o),
(30,531,cs),
(30,15,ls),
(30,6,o),
(36,0,o),
(45,0,cs),
(290,0,ls),
(435,0,o),
(522,77,o),
(522,188,cs),
(522,302,o),
(435,377,o),
(290,377,cs),
(142,377,ls),
(133,377,o),
(127,371,o),
(127,362,cs)
);
}
);
width = 532;
}
);
unicode = 1068;
userData = {
interface.gridadjust.original = "{'width': 1535, 'leftMargin': 213, 'rightMargin': 121}";
"interface.width-adjustments" = (
-16
);
};
},
{
glyphname = "Yeru-cy";
lastChange = "2023-04-12 18:47:14 +0000";
layers = (
{
layerId = m01;
shapes = (
{
closed = 1;
nodes = (
(127,273,ls),
(127,264,o),
(133,258,o),
(142,258,cs),
(290,258,ls),
(342,258,o),
(374,231,o),
(374,187,cs),
(374,146,o),
(342,119,o),
(290,119,cs),
(181,119,l),
(181,531,ls),
(181,540,o),
(175,546,o),
(166,546,cs),
(45,546,ls),
(36,546,o),
(30,540,o),
(30,531,cs),
(30,15,ls),
(30,6,o),
(36,0,o),
(45,0,cs),
(290,0,ls),
(435,0,o),
(522,77,o),
(522,188,cs),
(522,302,o),
(435,377,o),
(290,377,cs),
(142,377,ls),
(133,377,o),
(127,371,o),
(127,362,cs)
);
},
{
closed = 1;
nodes = (
(706,0,ls),
(715,0,o),
(721,6,o),
(721,15,cs),
(721,531,ls),
(721,540,o),
(715,546,o),
(706,546,cs),
(585,546,ls),
(576,546,o),
(570,540,o),
(570,531,cs),
(570,15,ls),
(570,6,o),
(576,0,o),
(585,0,cs)
);
}
);
width = 751;
}
);
unicode = 1067;
userData = {
interface.gridadjust.original = "{'width': 2203, 'leftMargin': 168, 'rightMargin': 244}";
"interface.width-adjustments" = (
-16
);
};
},
{
glyphname = "Hardsign-cy";
lastChange = "2023-04-12 18:47:14 +0000";
layers = (
{
layerId = m01;
shapes = (
{
closed = 1;
nodes = (
(188,432,ls),
(197,432,o),
(203,438,o),
(203,447,cs),
(203,531,ls),
(203,540,o),
(197,546,o),
(188,546,cs),
(25,546,ls),
(16,546,o),
(10,540,o),
(10,531,cs),
(10,447,ls),
(10,438,o),
(16,432,o),
(25,432,cs)
);
},
{
closed = 1;
nodes = (
(247,273,ls),
(247,264,o),
(253,258,o),
(262,258,cs),
(410,258,ls),
(462,258,o),
(494,231,o),
(494,187,cs),
(494,146,o),
(462,119,o),
(410,119,cs),
(301,119,l),
(301,531,ls),
(301,540,o),
(295,546,o),
(286,546,cs),
(165,546,ls),
(156,546,o),
(150,540,o),
(150,531,cs),
(150,15,ls),
(150,6,o),
(156,0,o),
(165,0,cs),
(410,0,ls),
(555,0,o),
(642,77,o),
(642,188,cs),
(642,302,o),
(555,377,o),
(410,377,cs),
(262,377,ls),
(253,377,o),
(247,371,o),
(247,362,cs)
);
}
);
width = 662;
}
);
unicode = 1066;
userData = {
interface.gridadjust.original = "{'width': 1742, 'leftMargin': 40, 'rightMargin': 67}";
"interface.width-adjustments" = (
-16
);
};
},
{
glyphname = "E-cy";
lastChange = "2023-04-12 18:47:14 +0000";
layers = (
{
layerId = m01;
shapes = (
{
closed = 1;
nodes = (
(310,432,o),
(344,407,o),
(349,367,cs),
(350,359,o),
(355,354,o),
(364,354,cs),
(471,354,ls),
(480,354,o),
(486,359,o),
(485,369,cs),
(477,479,o),
(383,554,o),
(263,555,cs),
(98,554,o),
(10,433,o),
(10,279,cs),
(10,266,ls),
(10,110,o),
(97,-10,o),
(263,-10,cs),
(390,-10,o),
(479,66,o),
(486,190,cs),
(486,200,o),
(480,205,o),
(471,205,cs),
(365,205,ls),
(356,205,o),
(350,200,o),
(349,190,cs),
(344,147,o),
(312,113,o),
(263,112,cs),
(179,113,o),
(154,195,o),
(154,266,cs),
(154,279,ls),
(154,356,o),
(180,432,o),
(263,433,cs)
);
},
{
closed = 1;
nodes = (
(111,243,ls),
(111,234,o),
(117,228,o),
(126,228,cs),
(288,228,ls),
(297,228,o),
(303,234,o),
(303,243,cs),
(303,302,ls),
(303,311,o),
(297,317,o),
(288,317,cs),
(126,317,ls),
(117,317,o),
(111,311,o),
(111,302,cs)
);
}
);
width = 496;
}
);
unicode = 1028;
userData = {
interface.gridadjust.original = "{'width': 1517, 'leftMargin': 135, 'rightMargin': 147}";
"interface.width-adjustments" = (
-16
);
};
},
{
glyphname = "Ereversed-cy";
lastChange = "2023-04-12 18:47:14 +0000";
layers = (
{
layerId = m01;
shapes = (
{
closed = 1;
nodes = (
(316,432,o),
(342,356,o),
(342,279,cs),
(342,266,ls),
(342,195,o),
(317,113,o),
(233,112,cs),
(184,113,o),
(152,147,o),
(147,190,cs),
(146,200,o),
(140,205,o),
(131,205,cs),
(25,205,ls),
(16,205,o),
(10,200,o),
(10,190,cs),
(17,66,o),
(106,-10,o),
(233,-10,cs),
(399,-10,o),
(486,110,o),
(486,266,cs),
(486,279,ls),
(486,433,o),
(398,554,o),
(233,555,cs),
(113,554,o),
(19,479,o),
(11,369,cs),
(10,359,o),
(16,354,o),
(25,354,cs),
(132,354,ls),
(141,354,o),
(145,359,o),
(147,368,cs),
(153,407,o),
(187,432,o),
(233,433,cs)
);
},
{
closed = 1;
nodes = (
(208,317,ls),
(199,317,o),
(193,311,o),
(193,302,cs),
(193,243,ls),
(193,234,o),
(199,228,o),
(208,228,cs),
(370,228,ls),
(379,228,o),
(385,234,o),
(385,243,cs),
(385,302,ls),
(385,311,o),
(379,317,o),
(370,317,cs)
);
}
);
width = 496;
}
);
unicode = 1069;
userData = {
interface.gridadjust.original = "{'width': 1517, 'leftMargin': 135, 'rightMargin': 147}";
"interface.width-adjustments" = (
-16
);
};
},
{
glyphname = "I-cy";
lastChange = "2023-04-12 18:47:14 +0000";
layers = (
{
layerId = m01;
shapes = (
{
closed = 1;
nodes = (
(173,0,ls),
(182,0,o),
(188,6,o),
(188,15,cs),
(188,531,ls),
(188,540,o),
(182,546,o),
(173,546,cs),
(52,546,ls),
(43,546,o),
(37,540,o),
(37,531,cs),
(37,15,ls),
(37,6,o),
(43,0,o),
(52,0,cs)
);
},
{
closed = 1;
nodes = (
(157,616,o),
(195,650,o),
(195,692,cs),
(195,734,o),
(157,769,o),
(113,769,cs),
(68,769,o),
(30,734,o),
(30,692,cs),
(30,650,o),
(68,616,o),
(113,616,cs)
);
}
);
width = 225;
}
);
unicode = 1030;
},
{
glyphname = "Yi-cy";
lastChange = "2023-04-12 18:47:14 +0000";
layers = (
{
anchors = (
{
name = ogonek;
pos = (229,0);
}
);
layerId = m01;
shapes = (
{
closed = 1;
nodes = (
(214,0,ls),
(223,0,o),
(229,6,o),
(229,15,cs),
(229,531,ls),
(229,540,o),
(223,546,o),
(214,546,cs),
(93,546,ls),
(84,546,o),
(78,540,o),
(78,531,cs),
(78,15,ls),
(78,6,o),
(84,0,o),
(93,0,cs)
);
},
{
closed = 1;
nodes = (
(302,620,o),
(335,653,o),
(335,692,cs),
(335,732,o),
(302,765,o),
(261,765,cs),
(220,765,o),
(187,732,o),
(187,692,cs),
(187,653,o),
(220,620,o),
(261,620,cs)
);
},
{
closed = 1;
nodes = (
(85,620,o),
(118,653,o),
(118,692,cs),
(118,732,o),
(85,765,o),
(44,765,cs),
(3,765,o),
(-30,732,o),
(-30,692,cs),
(-30,653,o),
(3,620,o),
(44,620,cs)
);
}
);
width = 305;
}
);
unicode = 1031;
},
{
glyphname = "Yu-cy";
lastChange = "2023-04-12 18:47:14 +0000";
layers = (
{
layerId = m01;
shapes = (
{
closed = 1;
nodes = (
(79,330,ls),
(70,330,o),
(64,324,o),
(64,315,cs),
(64,225,ls),
(64,216,o),
(70,210,o),
(79,210,cs),
(345,210,ls),
(354,210,o),
(360,216,o),
(360,225,cs),
(360,315,ls),
(360,324,o),
(354,330,o),
(345,330,cs)
);
},
{
closed = 1;
nodes = (
(45,546,ls),
(36,546,o),
(30,540,o),
(30,531,cs),
(30,15,ls),
(30,6,o),
(36,0,o),
(45,0,cs),
(166,0,ls),
(175,0,o),
(181,6,o),
(181,15,cs),
(181,531,ls),
(181,540,o),
(175,546,o),
(166,546,cs)
);
},
{
closed = 1;
nodes = (
(686,-10,o),
(786,107,o),
(786,272,cs),
(786,438,o),
(686,553,o),
(523,553,cs),
(361,553,o),
(260,438,o),
(261,272,cs),
(260,107,o),
(361,-10,o),
(523,-11,cs)
);
},
{
closed = 1;
nodes = (
(439,112,o),
(404,179,o),
(405,272,cs),
(404,367,o),
(439,432,o),
(523,433,cs),
(607,432,o),
(641,366,o),
(641,272,cs),
(641,179,o),
(607,112,o),
(523,111,cs)
);
}
);
width = 796;
}
);
unicode = 1070;
userData = {
interface.gridadjust.original = "{'width': 2300, 'leftMargin': 249, 'rightMargin': 45}";
"interface.width-adjustments" = (
-16
);
};
},
{
glyphname = "Ya-cy";
lastChange = "2023-04-12 18:47:14 +0000";
layers = (
{
layerId = m01;
shapes = (
{
closed = 1;
nodes = (
(493,0,ls),
(502,0,o),
(508,6,o),
(508,15,cs),
(508,531,ls),
(508,540,o),
(502,546,o),
(493,546,cs),
(265,546,ls),
(123,545,o),
(35,473,o),
(36,367,cs),
(35,265,o),
(123,197,o),
(263,197,cs),
(403,197,ls),
(412,197,o),
(418,203,o),
(418,212,cs),
(418,284,ls),
(418,293,o),
(412,299,o),
(403,299,cs),
(263,299,ls),
(208,299,o),
(179,327,o),
(180,362,cs),
(179,397,o),
(209,427,o),
(265,427,cs),
(367,427,l),
(367,15,ls),
(367,6,o),
(373,0,o),
(382,0,cs)
);
},
{
closed = 1;
nodes = (
(153,0,ls),
(161,0,o),
(167,3,o),
(171,11,cs),
(307,266,ls),
(312,276,o),
(308,284,o),
(297,284,cs),
(184,284,ls),
(176,284,o),
(170,281,o),
(166,273,cs),
(30,18,ls),
(25,8,o),
(29,0,o),
(40,0,cs)
);
}
);
width = 538;
}
);
unicode = 1071;
userData = {
interface.gridadjust.original = "{'width': 1550, 'leftMargin': 51, 'rightMargin': 213}";
"interface.width-adjustments" = (
-16
);
};
},
{
glyphname = "a-cy";
lastChange = "2023-04-12 18:47:14 +0000";
layers = (
{
layerId = m01;
shapes = (
{
closed = 1;
nodes = (
(541,531,ls),
(541,540,o),
(535,546,o),
(526,546,cs),
(408,546,ls),
(399,546,o),
(393,540,o),
(393,531,cs),
(393,454,l),
(386,454,l),
(366,499,o),
(322,553,o),
(230,553,cs),
(111,553,o),
(10,459,o),
(10,272,cs),
(10,90,o),
(106,-9,o),
(231,-9,cs),
(319,-9,o),
(365,42,o),
(386,87,c),
(390,87,l),
(390,15,ls),
(390,6,o),
(396,0,o),
(405,0,cs),
(526,0,ls),
(535,0,o),
(541,6,o),
(541,15,cs)
);
},
{
closed = 1;
nodes = (
(205,111,o),
(164,178,o),
(164,272,cs),
(164,367,o),
(204,433,o),
(279,433,cs),
(352,433,o),
(394,370,o),
(394,272,cs),
(394,176,o),
(352,111,o),
(279,111,cs)
);
}
);
width = 571;
}
);
unicode = 1072;
},
{
glyphname = "be-cy";
lastChange = "2023-04-12 18:47:14 +0000";
layers = (
{
layerId = m01;
shapes = (
{
closed = 1;
nodes = (
(436,724,o),
(383,728,o),
(312,728,cs),
(114,726,o),
(10,602,o),
(10,338,cs),
(10,294,ls),
(10,96,o),
(112,-10,o),
(278,-11,cs),
(442,-10,o),
(544,95,o),
(544,262,cs),
(544,422,o),
(450,517,o),
(311,517,cs),
(224,517,o),
(164,479,o),
(132,413,c),
(127,413,l),
(140,547,o),
(190,602,o),
(317,603,cs),
(421,604,o),
(475,608,o),
(519,639,cs),
(527,644,o),
(528,650,o),
(524,659,cs),
(490,732,ls),
(486,741,o),
(480,743,o),
(471,739,cs)
);
},
{
closed = 1;
nodes = (
(207,106,o),
(163,164,o),
(164,257,cs),
(164,350,o),
(207,403,o),
(277,403,cs),
(347,403,o),
(390,350,o),
(390,257,cs),
(390,164,o),
(347,106,o),
(278,106,cs)
);
}
);
width = 554;
}
);
unicode = 1073;
userData = {
interface.gridadjust.original = "{'width': 1559, 'leftMargin': 135, 'rightMargin': 92}";
"interface.width-adjustments" = (
-16
);
};
},
{
glyphname = "ve-cy";
lastChange = "2023-04-12 18:47:14 +0000";
layers = (
{
layerId = m01;
shapes = (
{
closed = 1;
nodes = (
(298,0,ls),
(434,0,o),
(511,56,o),
(511,149,cs),
(511,221,o),
(453,277,o),
(356,284,c),
(434,298,o),
(480,339,o),
(480,398,cs),
(480,493,o),
(397,546,o),
(262,546,cs),
(45,546,ls),
(36,546,o),
(30,540,o),
(30,531,cs),
(30,15,ls),
(30,6,o),
(36,0,o),
(45,0,cs)
);
},
{
closed = 1;
nodes = (
(170,232,l),
(298,232,ls),
(340,232,o),
(365,208,o),
(365,170,cs),
(365,135,o),
(340,113,o),
(298,113,cs),
(170,113,l)
);
},
{
closed = 1;
nodes = (
(170,430,l),
(262,430,ls),
(309,430,o),
(338,410,o),
(338,376,cs),
(338,342,o),
(310,321,o),
(265,321,cs),
(170,321,l)
);
}
);
width = 531;
}
);
unicode = 1074;
userData = {
interface.gridadjust.original = "{'width': 1617.0, 'leftMargin': 213, 'rightMargin': 143.0}";
"interface.width-adjustments" = (
-16
);
};
},
{
glyphname = "ge-cy";
lastChange = "2023-04-12 18:47:14 +0000";
layers = (
{
layerId = m01;
shapes = (
{
closed = 1;
nodes = (
(157,383,ls),
(166,383,o),
(171,386,o),
(174,395,cs),
(186,423,o),
(216,445,o),
(262,445,cs),
(309,445,o),
(345,424,o),
(345,392,cs),
(345,365,o),
(326,347,o),
(276,336,cs),
(177,317,ls),
(71,296,o),
(20,248,o),
(20,169,cs),
(20,62,o),
(121,-11,o),
(262,-11,cs),
(400,-11,o),
(486,47,o),
(507,142,cs),
(509,152,o),
(504,158,o),
(494,159,cs),
(375,165,ls),
(366,166,o),
(360,162,o),
(357,153,cs),
(344,117,o),
(310,98,o),
(262,98,cs),
(209,98,o),
(173,121,o),
(173,153,cs),
(173,181,o),
(195,198,o),
(243,208,cs),
(338,228,ls),
(444,249,o),
(495,301,o),
(495,383,cs),
(495,488,o),
(404,553,o),
(264,553,cs),
(134,553,o),
(54,497,o),
(35,406,cs),
(33,396,o),
(38,390,o),
(48,389,cs)
);
}
);
width = 530;
}
);
unicode = 1075;
userData = {
interface.gridadjust.original = "{'width': 1181, 'leftMargin': 210, 'rightMargin': 23}";
"interface.width-adjustments" = (
-16
);
};
},
{
glyphname = "geupturn-cy";
lastChange = "2023-04-12 18:47:14 +0000";
layers = (
{
layerId = m01;
shapes = (
{
closed = 1;
nodes = (
(63,644,ls),
(54,645,o),
(48,639,o),
(47,630,cs),
(33,405,ls),
(32,396,o),
(38,390,o),
(47,389,cs),
(155,383,ls),
(164,382,o),
(170,388,o),
(171,397,cs),
(184,622,ls),
(185,631,o),
(179,637,o),
(170,638,cs)
);
},
{
closed = 1;
nodes = (
(157,383,ls),
(166,383,o),
(171,386,o),
(174,395,cs),
(186,423,o),
(216,445,o),
(262,445,cs),
(309,445,o),
(345,424,o),
(345,392,cs),
(345,365,o),
(326,346,o),
(276,336,cs),
(177,317,ls),
(71,297,o),
(20,248,o),
(20,169,cs),
(20,62,o),
(121,-11,o),
(262,-11,cs),
(400,-11,o),
(486,47,o),
(507,142,cs),
(509,152,o),
(504,158,o),
(494,159,cs),
(375,165,ls),
(366,166,o),
(360,162,o),
(357,153,cs),
(344,117,o),
(310,98,o),
(262,98,cs),
(209,98,o),
(173,121,o),
(173,153,cs),
(173,181,o),
(195,198,o),
(243,208,cs),
(338,228,ls),
(444,250,o),
(495,301,o),
(495,383,cs),
(495,488,o),
(404,553,o),
(264,553,cs),
(134,553,o),
(54,497,o),
(35,406,cs),
(33,396,o),
(38,390,o),
(48,389,cs)
);
}
);
width = 530;
}
);
unicode = 1169;
userData = {
interface.gridadjust.original = "{'width': 1260, 'leftMargin': 154, 'rightMargin': 110}";
"interface.width-adjustments" = (
-16
);
};
},
{
glyphname = "de-cy";
lastChange = "2023-04-12 18:47:14 +0000";
layers = (
{
anchors = (
{
name = bottom;
pos = (279,-208);
},
{
name = topr;
pos = (542,546);
}
);
layerId = m01;
shapes = (
{
closed = 1;
nodes = (
(432,-216,o),
(542,-145,o),
(542,-6,cs),
(542,531,ls),
(542,540,o),
(536,546,o),
(527,546,cs),
(409,546,ls),
(400,546,o),
(394,540,o),
(394,531,cs),
(394,454,l),
(388,454,l),
(367,499,o),
(322,553,o),
(231,553,cs),
(111,553,o),
(10,459,o),
(10,273,cs),
(10,92,o),
(109,8,o),
(231,8,cs),
(318,8,o),
(367,51,o),
(387,97,c),
(393,97,l),
(393,-3,ls),
(393,-78,o),
(345,-107,o),
(280,-107,cs),
(221,-107,o),
(188,-85,o),
(172,-57,cs),
(168,-49,o),
(162,-46,o),
(154,-47,cs),
(43,-61,ls),
(33,-62,o),
(28,-69,o),
(31,-78,cs),
(55,-158,o),
(138,-216,o),
(276,-216,cs)
);
},
{
closed = 1;
nodes = (
(205,122,o),
(164,181,o),
(164,274,cs),
(164,367,o),
(204,433,o),
(279,433,cs),
(352,433,o),
(394,370,o),
(394,274,cs),
(394,179,o),
(352,122,o),
(279,122,cs)
);
}
);
width = 572;
}
);
unicode = 1076;
userData = {
interface.gridadjust.original = "{'width': 1719, 'leftMargin': 62, 'rightMargin': 85}";
"interface.width-adjustments" = (
-16
);
};
},
{
glyphname = "ie-cy";
lastChange = "2023-04-12 18:47:14 +0000";
layers = (
{
layerId = m01;
shapes = (
{
closed = 1;
nodes = (
(409,-11,o),
(496,50,o),
(523,143,cs),
(525,151,o),
(519,156,o),
(509,157,cs),
(399,164,ls),
(391,165,o),
(385,161,o),
(381,153,cs),
(363,120,o),
(328,102,o),
(283,102,cs),
(208,102,o),
(159,155,o),
(159,243,cs),
(159,309,ls),
(159,385,o),
(200,440,o),
(274,440,cs),
(342,440,o),
(381,394,o),
(386,321,cs),
(387,310,o),
(394,305,o),
(404,309,cs),
(422,316,ls),
(432,319,o),
(420,328,o),
(406,328,cs),
(85,328,ls),
(76,328,o),
(70,322,o),
(70,313,cs),
(70,249,ls),
(70,240,o),
(76,234,o),
(85,234,cs),
(516,234,ls),
(525,234,o),
(531,240,o),
(531,249,cs),
(531,275,ls),
(531,461,o),
(417,553,o),
(273,553,cs),
(113,553,o),
(10,438,o),
(10,271,cs),
(10,97,o),
(112,-11,o),
(280,-11,cs)
);
}
);
width = 541;
}
);
unicode = 1077;
},
{
glyphname = "io-cy";
lastChange = "2023-04-12 18:47:14 +0000";
layers = (
{
anchors = (
{
name = ogonek;
pos = (526,156);
}
);
layerId = m01;
shapes = (
{
closed = 1;
nodes = (
(409,-11,o),
(496,50,o),
(523,143,cs),
(525,151,o),
(519,156,o),
(509,157,cs),
(399,164,ls),
(391,165,o),
(385,161,o),
(381,153,cs),
(363,120,o),
(328,102,o),
(283,102,cs),
(208,102,o),
(159,155,o),
(159,243,cs),
(159,309,ls),
(159,385,o),
(200,440,o),
(274,440,cs),
(342,440,o),
(381,394,o),
(386,321,cs),
(387,310,o),
(394,305,o),
(404,309,cs),
(422,316,ls),
(432,319,o),
(420,328,o),
(406,328,cs),
(85,328,ls),
(76,328,o),
(70,322,o),
(70,313,cs),
(70,249,ls),
(70,240,o),
(76,234,o),
(85,234,cs),
(516,234,ls),
(525,234,o),
(531,240,o),
(531,249,cs),
(531,275,ls),
(531,461,o),
(417,553,o),
(273,553,cs),
(113,553,o),
(10,438,o),
(10,271,cs),
(10,97,o),
(112,-11,o),
(280,-11,cs)
);
},
{
closed = 1;
nodes = (
(420,620,o),
(453,653,o),
(453,692,cs),
(453,732,o),
(420,765,o),
(379,765,cs),
(338,765,o),
(305,732,o),
(305,692,cs),
(305,653,o),
(338,620,o),
(379,620,cs)
);
},
{
closed = 1;
nodes = (
(203,620,o),
(236,653,o),
(236,692,cs),
(236,732,o),
(203,765,o),
(162,765,cs),
(121,765,o),
(88,732,o),
(88,692,cs),
(88,653,o),
(121,620,o),
(162,620,cs)
);
}
);
width = 541;
}
);
unicode = 1105;
},
{
glyphname = "zhe-cy";
lastChange = "2023-04-12 18:47:14 +0000";
layers = (
{
anchors = (
{
name = cyrtic;
pos = (826,0);
}
);
layerId = m01;
shapes = (
{
closed = 1;
nodes = (
(194,0,ls),
(202,0,o),
(208,3,o),
(212,10,cs),
(346,213,l),
(368,213,l),
(368,15,ls),
(368,6,o),
(374,0,o),
(383,0,cs),
(504,0,ls),
(513,0,o),
(519,6,o),
(519,15,cs),
(519,213,l),
(541,213,l),
(675,10,ls),
(679,3,o),
(685,0,o),
(693,0,cs),
(836,0,ls),
(848,0,o),
(853,7,o),
(846,18,cs),
(667,284,l),
(844,528,ls),
(851,538,o),
(846,546,o),
(834,546,cs),
(696,546,ls),
(688,546,o),
(682,543,o),
(678,536,cs),
(542,332,l),
(519,332,l),
(519,531,ls),
(519,540,o),
(513,546,o),
(504,546,cs),
(383,546,ls),
(374,546,o),
(368,540,o),
(368,531,cs),
(368,332,l),
(345,332,l),
(208,536,ls),
(204,542,o),
(198,546,o),
(190,546,cs),
(53,546,ls),
(41,546,o),
(36,538,o),
(43,528,cs),
(220,284,l),
(41,18,ls),
(34,7,o),
(39,0,o),
(51,0,cs)
);
}
);
width = 878;
}
);
unicode = 1078;
userData = {
interface.gridadjust.original = "{'width': 2156.0, 'leftMargin': 29, 'rightMargin': 37.0}";
"interface.width-adjustments" = (
-16
);
};
},
{
glyphname = "ze-cy";
lastChange = "2023-04-12 18:47:14 +0000";
layers = (
{
layerId = m01;
shapes = (
{
closed = 1;
nodes = (
(33,-113,o),
(143,-192,o),
(296,-192,cs),
(456,-192,o),
(576,-104,o),
(576,25,cs),
(576,122,o),
(509,216,o),
(356,231,c),
(356,237,l),
(544,426,ls),
(549,431,o),
(552,438,o),
(552,445,cs),
(552,531,ls),
(552,540,o),
(546,546,o),
(537,546,cs),
(71,546,ls),
(62,546,o),
(56,540,o),
(56,531,cs),
(56,435,ls),
(56,426,o),
(62,420,o),
(71,420,cs),
(363,420,l),
(363,415,l),
(208,255,ls),
(203,249,o),
(201,243,o),
(201,236,cs),
(201,155,ls),
(201,146,o),
(207,140,o),
(216,140,cs),
(280,140,ls),
(369,140,o),
(416,95,o),
(416,35,cs),
(416,-27,o),
(367,-65,o),
(297,-65,cs),
(236,-65,o),
(188,-37,o),
(177,10,cs),
(175,19,o),
(170,24,o),
(161,24,cs),
(36,24,ls),
(26,24,o),
(20,18,o),
(21,9,cs)
);
}
);
userData = {
RMXScaler = {
custom = -10;
height = 74.95;
weight = -20;
width = 79;
};
};
width = 596;
}
);
unicode = 1079;
userData = {
RMXScaler = {
source = three;
};
};
},
{
glyphname = "ii-cy";
lastChange = "2023-04-12 18:47:14 +0000";
layers = (
{
layerId = m01;
shapes = (
{
closed = 1;
nodes = (
(369,159,o),
(319,121,o),
(266,121,cs),
(208,121,o),
(171,161,o),
(171,225,cs),
(171,531,ls),
(171,540,o),
(165,546,o),
(156,546,cs),
(35,546,ls),
(26,546,o),
(20,540,o),
(20,531,cs),
(20,198,ls),
(20,71,o),
(94,-7,o),
(204,-7,cs),
(286,-7,o),
(345,35,o),
(369,99,c),
(375,99,l),
(375,15,ls),
(375,6,o),
(381,0,o),
(390,0,cs),
(506,0,ls),
(515,0,o),
(521,6,o),
(521,15,cs),
(521,531,ls),
(521,540,o),
(515,546,o),
(506,546,cs),
(384,546,ls),
(375,546,o),
(369,540,o),
(369,531,cs),
(369,232,ls)
);
}
);
width = 551;
}
);
unicode = 1080;
userData = {
interface.gridadjust.original = "{'width': 1635, 'leftMargin': 213, 'rightMargin': 213}";
"interface.width-adjustments" = (
-16
);
};
},
{
glyphname = "iishort-cy";
lastChange = "2023-04-12 18:47:14 +0000";
layers = (
{
layerId = m01;
shapes = (
{
closed = 1;
nodes = (
(371,607,o),
(440,661,o),
(446,742,cs),
(447,750,o),
(442,755,o),
(432,755,cs),
(355,755,ls),
(346,755,o),
(341,750,o),
(340,741,cs),
(334,709,o),
(309,689,o),
(271,689,cs),
(232,689,o),
(207,709,o),
(201,741,cs),
(200,750,o),
(195,755,o),
(186,755,cs),
(110,755,ls),
(100,755,o),
(95,750,o),
(96,740,cs),
(104,660,o),
(172,607,o),
(271,607,cs)
);
},
{
closed = 1;
nodes = (
(369,159,o),
(319,121,o),
(266,121,cs),
(208,121,o),
(171,161,o),
(171,225,cs),
(171,531,ls),
(171,540,o),
(165,546,o),
(156,546,cs),
(35,546,ls),
(26,546,o),
(20,540,o),
(20,531,cs),
(20,198,ls),
(20,71,o),
(94,-7,o),
(204,-7,cs),
(286,-7,o),
(345,35,o),
(369,99,c),
(375,99,l),
(375,15,ls),
(375,6,o),
(381,0,o),
(390,0,cs),
(506,0,ls),
(515,0,o),
(521,6,o),
(521,15,cs),
(521,531,ls),
(521,540,o),
(515,546,o),
(506,546,cs),
(384,546,ls),
(375,546,o),
(369,540,o),
(369,531,cs),
(369,232,ls)
);
}
);
width = 551;
}
);
unicode = 1081;
},
{
glyphname = "ka-cy";
lastChange = "2023-04-12 18:47:14 +0000";
layers = (
{
layerId = m01;
shapes = (
{
closed = 1;
nodes = (
(166,0,ls),
(175,0,o),
(181,6,o),
(181,15,cs),
(181,205,l),
(236,205,l),
(366,10,ls),
(370,3,o),
(376,0,o),
(384,0,cs),
(529,0,ls),
(541,0,o),
(545,8,o),
(538,18,cs),
(357,274,l),
(537,528,ls),
(544,538,o),
(540,546,o),
(528,546,cs),
(384,546,ls),
(376,546,o),
(369,542,o),
(365,536,cs),
(221,324,l),
(181,324,l),
(181,531,ls),
(181,540,o),
(175,546,o),
(166,546,cs),
(45,546,ls),
(36,546,o),
(30,540,o),
(30,531,cs),
(30,15,ls),
(30,6,o),
(36,0,o),
(45,0,cs)
);
}
);
width = 561;
}
);
unicode = 1082;
userData = {
"interface.width-adjustments" = (
-16
);
};
},
{
glyphname = "el-cy";
lastChange = "2023-04-12 18:47:14 +0000";
layers = (
{
layerId = m01;
shapes = (
{
closed = 1;
nodes = (
(155,0,ls),
(163,0,o),
(170,4,o),
(172,13,cs),
(281,391,l),
(287,391,l),
(398,13,ls),
(400,5,o),
(407,0,o),
(415,0,cs),
(544,0,ls),
(555,0,o),
(560,6,o),
(556,17,cs),
(376,534,ls),
(373,543,o),
(367,546,o),
(359,546,cs),
(214,546,ls),
(206,546,o),
(200,543,o),
(197,534,cs),
(16,17,ls),
(12,6,o),
(17,0,o),
(28,0,cs)
);
}
);
width = 572;
}
);
unicode = 1083;
userData = {
interface.gridadjust.original = "{'width': 1638, 'leftMargin': 61, 'rightMargin': 213}";
"interface.width-adjustments" = (
-16
);
};
},
{
glyphname = "em-cy";
lastChange = "2023-04-12 18:47:14 +0000";
layers = (
{
layerId = m01;
shapes = (
{
closed = 1;
nodes = (
(389,0,ls),
(397,0,o),
(404,4,o),
(407,12,cs),
(608,529,ls),
(612,540,o),
(607,546,o),
(596,546,cs),
(512,546,ls),
(504,546,o),
(497,542,o),
(494,534,cs),
(352,167,l),
(213,534,ls),
(210,542,o),
(204,546,o),
(196,546,cs),
(113,546,ls),
(102,546,o),
(97,540,o),
(101,529,cs),
(297,12,ls),
(300,4,o),
(307,0,o),
(315,0,cs)
);
},
{
closed = 1;
nodes = (
(159,0,ls),
(168,0,o),
(174,6,o),
(174,15,cs),
(174,531,ls),
(174,540,o),
(168,546,o),
(159,546,cs),
(45,546,ls),
(36,546,o),
(30,540,o),
(30,531,cs),
(30,15,ls),
(30,6,o),
(36,0,o),
(45,0,cs)
);
},
{
closed = 1;
nodes = (
(664,0,ls),
(673,0,o),
(679,6,o),
(679,15,cs),
(679,531,ls),
(679,540,o),
(673,546,o),
(664,546,cs),
(552,546,ls),
(543,546,o),
(537,540,o),
(537,531,cs),
(537,15,ls),
(537,6,o),
(543,0,o),
(552,0,cs)
);
}
);
width = 709;
}
);
unicode = 1084;
},
{
glyphname = "en-cy";
lastChange = "2023-04-12 18:47:14 +0000";
layers = (
{
layerId = m01;
shapes = (
{
closed = 1;
nodes = (
(153,333,ls),
(144,333,o),
(138,327,o),
(138,318,cs),
(138,229,ls),
(138,220,o),
(144,214,o),
(153,214,cs),
(409,214,ls),
(418,214,o),
(424,220,o),
(424,229,cs),
(424,318,ls),
(424,327,o),
(418,333,o),
(409,333,cs)
);
},
{
closed = 1;
nodes = (
(45,546,ls),
(36,546,o),
(30,540,o),
(30,531,cs),
(30,15,ls),
(30,6,o),
(36,0,o),
(45,0,cs),
(166,0,ls),
(175,0,o),
(181,6,o),
(181,15,cs),
(181,531,ls),
(181,540,o),
(175,546,o),
(166,546,cs)
);
},
{
closed = 1;
nodes = (
(396,546,ls),
(387,546,o),
(381,540,o),
(381,531,cs),
(381,15,ls),
(381,6,o),
(387,0,o),
(396,0,cs),
(517,0,ls),
(526,0,o),
(532,6,o),
(532,15,cs),
(532,531,ls),
(532,540,o),
(526,546,o),
(517,546,cs)
);
}
);
width = 562;
}
);
unicode = 1085;
},
{
glyphname = "o-cy";
lastChange = "2023-04-12 18:47:14 +0000";
layers = (
{
layerId = m01;
shapes = (
{
closed = 1;
nodes = (
(444,-11,o),
(546,103,o),
(546,271,cs),
(546,439,o),
(444,553,o),
(278,553,cs),
(112,553,o),
(10,439,o),
(10,271,cs),
(10,103,o),
(112,-11,o),
(278,-11,cs)
);
},
{
closed = 1;
nodes = (
(202,107,o),
(163,176,o),
(163,271,cs),
(163,367,o),
(202,435,o),
(278,435,cs),
(353,435,o),
(392,367,o),
(392,271,cs),
(392,176,o),
(353,107,o),
(278,107,cs)
);
}
);
width = 556;
}
);
unicode = 1086;
},
{
glyphname = "pe-cy";
lastChange = "2023-04-12 18:47:14 +0000";
layers = (
{
layerId = m01;
shapes = (
{
closed = 1;
nodes = (
(182,387,o),
(232,425,o),
(285,425,cs),
(343,425,o),
(380,385,o),
(380,321,cs),
(380,15,ls),
(380,6,o),
(386,0,o),
(395,0,cs),
(516,0,ls),
(525,0,o),
(531,6,o),
(531,15,cs),
(531,348,ls),
(531,475,o),
(457,553,o),
(347,553,cs),
(265,553,o),
(206,511,o),
(182,447,c),
(176,447,l),
(176,531,ls),
(176,540,o),
(170,546,o),
(161,546,cs),
(45,546,ls),
(36,546,o),
(30,540,o),
(30,531,cs),
(30,15,ls),
(30,6,o),
(36,0,o),
(45,0,cs),
(167,0,ls),
(176,0,o),
(182,6,o),
(182,15,cs),
(182,314,ls)
);
}
);
width = 551;
}
);
unicode = 1087;
userData = {
interface.gridadjust.original = "{'width': 1635, 'leftMargin': 213, 'rightMargin': 213}";
"interface.width-adjustments" = (
-16
);
};
},
{
glyphname = "er-cy";
lastChange = "2023-04-12 18:47:14 +0000";
layers = (
{
layerId = m01;
shapes = (
{
closed = 1;
nodes = (
(166,-204,ls),
(175,-204,o),
(181,-198,o),
(181,-189,cs),
(181,87,l),
(185,87,l),
(206,42,o),
(252,-9,o),
(340,-9,cs),
(465,-9,o),
(561,90,o),
(561,272,cs),
(561,459,o),
(460,553,o),
(341,553,cs),
(249,553,o),
(205,499,o),
(185,454,c),
(178,454,l),
(178,531,ls),
(178,540,o),
(172,546,o),
(163,546,cs),
(45,546,ls),
(36,546,o),
(30,540,o),
(30,531,cs),
(30,-189,ls),
(30,-198,o),
(36,-204,o),
(45,-204,cs)
);
},
{
closed = 1;
nodes = (
(219,111,o),
(177,176,o),
(177,272,cs),
(177,370,o),
(219,433,o),
(292,433,cs),
(367,433,o),
(407,367,o),
(407,272,cs),
(407,178,o),
(366,111,o),
(292,111,cs)
);
}
);
width = 581;
}
);
unicode = 1088;
},
{
glyphname = "es-cy";
lastChange = "2023-04-12 18:47:14 +0000";
layers = (
{
anchors = (
{
name = topr;
pos = (521,344);
}
);
layerId = m01;
shapes = (
{
closed = 1;
nodes = (
(418,-11,o),
(507,69,o),
(520,186,cs),
(521,195,o),
(515,200,o),
(505,200,cs),
(393,200,ls),
(384,200,o),
(379,195,o),
(376,186,cs),
(364,137,o),
(327,107,o),
(280,107,cs),
(209,107,o),
(163,168,o),
(163,272,cs),
(163,376,o),
(209,435,o),
(280,435,cs),
(330,435,o),
(364,404,o),
(376,357,cs),
(378,348,o),
(384,344,o),
(393,344,cs),
(505,344,ls),
(515,344,o),
(521,350,o),
(520,360,cs),
(507,477,o),
(414,553,o),
(277,553,cs),
(112,553,o),
(10,438,o),
(10,271,cs),
(10,104,o),
(110,-11,o),
(278,-11,cs)
);
}
);
width = 531;
}
);
unicode = 1089;
},
{
glyphname = "te-cy";
lastChange = "2023-04-12 18:47:14 +0000";
layers = (
{
layerId = m01;
shapes = (
{
closed = 1;
nodes = (
(166,0,ls),
(175,0,o),
(181,6,o),
(181,15,cs),
(181,327,ls),
(181,388,o),
(219,428,o),
(270,428,cs),
(319,428,o),
(352,394,o),
(352,341,cs),
(352,15,ls),
(352,6,o),
(358,0,o),
(367,0,cs),
(484,0,ls),
(493,0,o),
(499,6,o),
(499,15,cs),
(499,333,ls),
(499,390,o),
(532,428,o),
(587,428,cs),
(635,428,o),
(671,398,o),
(671,337,cs),
(671,15,ls),
(671,6,o),
(677,0,o),
(686,0,cs),
(808,0,ls),
(817,0,o),
(823,6,o),
(823,15,cs),
(823,367,ls),
(823,485,o),
(752,553,o),
(650,553,cs),
(570,553,o),
(508,512,o),
(486,449,c),
(480,449,l),
(463,512,o),
(407,553,o),
(332,553,cs),
(259,553,o),
(202,513,o),
(180,449,c),
(173,449,l),
(173,531,ls),
(173,540,o),
(167,546,o),
(158,546,cs),
(45,546,ls),
(36,546,o),
(30,540,o),
(30,531,cs),
(30,15,ls),
(30,6,o),
(36,0,o),
(45,0,cs)
);
}
);
width = 843;
}
);
unicode = 1090;
userData = {
interface.gridadjust.original = "{'width': 1357, 'leftMargin': 55, 'rightMargin': 55}";
"interface.width-adjustments" = (
-16
);
};
},
{
glyphname = "u-cy";
lastChange = "2023-04-12 18:47:14 +0000";
layers = (
{
layerId = m01;
shapes = (
{
closed = 1;
nodes = (
(258,-208,o),
(318,-151,o),
(348,-63,cs),
(556,529,ls),
(560,540,o),
(555,546,o),
(544,546,cs),
(415,546,ls),
(406,546,o),
(400,542,o),
(398,533,cs),
(288,145,l),
(282,145,l),
(173,533,ls),
(171,542,o),
(165,546,o),
(156,546,cs),
(28,546,ls),
(17,546,o),
(13,539,o),
(16,529,cs),
(205,-16,l),
(196,-43,ls),
(179,-92,o),
(140,-96,o),
(90,-81,cs),
(87,-80,o),
(84,-85,o),
(81,-94,cs),
(54,-179,ls),
(51,-189,o),
(55,-195,o),
(64,-198,cs),
(85,-204,o),
(114,-208,o),
(146,-208,cs)
);
}
);
width = 572;
}
);
unicode = 1091;
},
{
glyphname = "ushort-cy";
lastChange = "2023-04-12 18:47:14 +0000";
layers = (
{
layerId = m01;
shapes = (
{
closed = 1;
nodes = (
(258,-208,o),
(318,-151,o),
(348,-63,cs),
(556,529,ls),
(560,540,o),
(555,546,o),
(544,546,cs),
(415,546,ls),
(406,546,o),
(400,542,o),
(398,533,cs),
(288,145,l),
(282,145,l),
(173,533,ls),
(171,542,o),
(165,546,o),
(156,546,cs),
(28,546,ls),
(17,546,o),
(13,539,o),
(16,529,cs),
(205,-16,l),
(196,-43,ls),
(179,-92,o),
(140,-96,o),
(90,-81,cs),
(87,-80,o),
(84,-85,o),
(81,-94,cs),
(54,-179,ls),
(51,-189,o),
(55,-195,o),
(64,-198,cs),
(85,-204,o),
(114,-208,o),
(146,-208,cs)
);
},
{
closed = 1;
nodes = (
(385,607,o),
(454,661,o),
(460,742,cs),
(461,750,o),
(456,755,o),
(446,755,cs),
(369,755,ls),
(360,755,o),
(355,750,o),
(354,741,cs),
(348,709,o),
(323,689,o),
(285,689,cs),
(246,689,o),
(221,709,o),
(215,741,cs),
(214,750,o),
(209,755,o),
(200,755,cs),
(124,755,ls),
(114,755,o),
(109,750,o),
(110,740,cs),
(118,660,o),
(186,607,o),
(285,607,cs)
);
}
);
width = 572;
}
);
unicode = 1118;
},
{
glyphname = "ef-cy";
lastChange = "2023-04-12 18:47:14 +0000";
layers = (
{
layerId = m01;
shapes = (
{
closed = 1;
nodes = (
(526,-186,ls),
(535,-186,o),
(541,-180,o),
(541,-171,cs),
(541,87,l),
(545,87,l),
(566,42,o),
(612,-9,o),
(700,-9,cs),
(825,-9,o),
(921,90,o),
(921,272,cs),
(921,459,o),
(820,553,o),
(701,553,cs),
(609,553,o),
(565,499,o),
(545,454,c),
(541,454,l),
(541,713,ls),
(541,722,o),
(535,728,o),
(526,728,cs),
(405,728,ls),
(396,728,o),
(390,722,o),
(390,713,cs),
(390,454,l),
(386,454,l),
(366,499,o),
(322,553,o),
(230,553,cs),
(111,553,o),
(10,459,o),
(10,272,cs),
(10,90,o),
(106,-9,o),
(231,-9,cs),
(319,-9,o),
(365,42,o),
(386,87,c),
(390,87,l),
(390,-171,ls),
(390,-180,o),
(396,-186,o),
(405,-186,cs)
);
},
{
closed = 1;
nodes = (
(164,367,o),
(204,433,o),
(279,433,cs),
(339,433,o),
(378,391,o),
(390,321,c),
(390,223,l),
(378,155,o),
(339,111,o),
(279,111,cs),
(205,111,o),
(164,178,o),
(164,272,cs)
);
},
{
closed = 1;
nodes = (
(541,297,l),
(548,381,o),
(589,433,o),
(655,433,cs),
(730,433,o),
(770,367,o),
(770,272,cs),
(770,178,o),
(729,111,o),
(655,111,cs),
(589,111,o),
(548,165,o),
(541,247,c)
);
}
);
width = 931;
}
);
unicode = 1092;
userData = {
interface.gridadjust.original = "{'width': 2043, 'leftMargin': 135, 'rightMargin': 134}";
"interface.width-adjustments" = (
-16
);
};
},
{
glyphname = "ha-cy";
lastChange = "2023-04-12 18:47:14 +0000";
layers = (
{
layerId = m01;
shapes = (
{
closed = 1;
nodes = (
(37,546,ls),
(25,546,o),
(20,539,o),
(26,528,cs),
(172,272,l),
(21,18,ls),
(15,7,o),
(19,0,o),
(31,0,cs),
(154,0,ls),
(162,0,o),
(168,2,o),
(172,10,cs),
(272,188,l),
(374,10,ls),
(378,2,o),
(384,0,o),
(392,0,cs),
(513,0,ls),
(525,0,o),
(529,7,o),
(523,18,cs),
(372,272,l),
(520,528,ls),
(526,539,o),
(521,546,o),
(509,546,cs),
(386,546,ls),
(378,546,o),
(372,543,o),
(368,535,cs),
(272,354,l),
(178,535,ls),
(174,543,o),
(168,546,o),
(160,546,cs)
);
}
);
width = 544;
}
);
unicode = 1093;
},
{
glyphname = "che-cy";
lastChange = "2023-04-12 18:47:14 +0000";
layers = (
{
layerId = m01;
shapes = (
{
closed = 1;
nodes = (
(310,157,o),
(369,169,o),
(404,183,cs),
(410,186,o),
(413,191,o),
(413,199,cs),
(413,288,ls),
(413,299,o),
(406,304,o),
(396,300,cs),
(347,285,o),
(306,276,o),
(262,276,cs),
(192,276,o),
(161,298,o),
(161,360,cs),
(161,531,ls),
(161,540,o),
(155,546,o),
(146,546,cs),
(25,546,ls),
(16,546,o),
(10,540,o),
(10,531,cs),
(10,360,ls),
(10,224,o),
(97,157,o),
(262,157,cs)
);
},
{
closed = 1;
nodes = (
(475,0,ls),
(484,0,o),
(490,6,o),
(490,15,cs),
(490,531,ls),
(490,540,o),
(484,546,o),
(475,546,cs),
(354,546,ls),
(345,546,o),
(339,540,o),
(339,531,cs),
(339,15,ls),
(339,6,o),
(345,0,o),
(354,0,cs)
);
}
);
width = 520;
}
);
unicode = 1095;
userData = {
interface.gridadjust.original = "{'width': 1539, 'leftMargin': 140, 'rightMargin': 213}";
"interface.width-adjustments" = (
-16
);
};
},
{
glyphname = "tse-cy";
lastChange = "2023-04-12 18:47:14 +0000";
layers = (
{
layerId = m01;
shapes = (
{
closed = 1;
nodes = (
(369,159,o),
(319,121,o),
(266,121,cs),
(208,121,o),
(171,161,o),
(171,225,cs),
(171,531,ls),
(171,540,o),
(165,546,o),
(156,546,cs),
(35,546,ls),
(26,546,o),
(20,540,o),
(20,531,cs),
(20,198,ls),
(20,71,o),
(94,-7,o),
(204,-7,cs),
(286,-7,o),
(345,35,o),
(369,99,c),
(375,99,l),
(375,15,ls),
(375,6,o),
(381,0,o),
(390,0,cs),
(506,0,ls),
(515,0,o),
(521,6,o),
(521,15,cs),
(521,531,ls),
(521,540,o),
(515,546,o),
(506,546,cs),
(384,546,ls),
(375,546,o),
(369,540,o),
(369,531,cs),
(369,232,ls)
);
},
{
closed = 1;
nodes = (
(514,-3,o),
(515,-30,o),
(421,-33,cs),
(410,-33,o),
(404,-39,o),
(404,-48,cs),
(404,-148,ls),
(404,-157,o),
(410,-163,o),
(420,-163,cs),
(669,-152,o),
(665,118,o),
(420,130,cs),
(409,130,o),
(404,124,o),
(404,115,cs),
(404,15,ls),
(404,6,o),
(409,0,o),
(420,0,cs)
);
}
);
width = 615;
}
);
note = "!post:RemoveOverlap";
unicode = 1094;
userData = {
interface.gridadjust.original = "{'width': 1683.0, 'leftMargin': 213, 'rightMargin': 78.0}";
"interface.width-adjustments" = (
-16
);
};
},
{
glyphname = "sha-cy";
lastChange = "2023-04-12 18:47:14 +0000";
layers = (
{
layerId = m01;
shapes = (
{
closed = 1;
nodes = (
(677,546,ls),
(668,546,o),
(662,540,o),
(662,531,cs),
(662,219,ls),
(662,158,o),
(624,118,o),
(573,118,cs),
(524,118,o),
(491,152,o),
(491,205,cs),
(491,531,ls),
(491,540,o),
(485,546,o),
(476,546,cs),
(359,546,ls),
(350,546,o),
(344,540,o),
(344,531,cs),
(344,213,ls),
(344,156,o),
(311,118,o),
(256,118,cs),
(208,118,o),
(172,148,o),
(172,209,cs),
(172,531,ls),
(172,540,o),
(166,546,o),
(157,546,cs),
(35,546,ls),
(26,546,o),
(20,540,o),
(20,531,cs),
(20,179,ls),
(20,61,o),
(91,-7,o),
(193,-7,cs),
(273,-7,o),
(335,34,o),
(357,97,c),
(363,97,l),
(380,34,o),
(436,-7,o),
(511,-7,cs),
(584,-7,o),
(641,33,o),
(663,97,c),
(670,97,l),
(670,15,ls),
(670,6,o),
(676,0,o),
(685,0,cs),
(798,0,ls),
(807,0,o),
(813,6,o),
(813,15,cs),
(813,531,ls),
(813,540,o),
(807,546,o),
(798,546,cs)
);
}
);
width = 843;
}
);
unicode = 1096;
userData = {
interface.gridadjust.original = "{'width': 2288.0, 'leftMargin': 213, 'rightMargin': 213.0}";
"interface.width-adjustments" = (
-16
);
};
},
{
glyphname = "shcha-cy";
lastChange = "2023-04-12 18:47:14 +0000";
layers = (
{
layerId = m01;
shapes = (
{
closed = 1;
nodes = (
(677,546,ls),
(668,546,o),
(662,540,o),
(662,531,cs),
(662,219,ls),
(662,158,o),
(624,118,o),
(573,118,cs),
(524,118,o),
(491,152,o),
(491,205,cs),
(491,531,ls),
(491,540,o),
(485,546,o),
(476,546,cs),
(359,546,ls),
(350,546,o),
(344,540,o),
(344,531,cs),
(344,213,ls),
(344,156,o),
(311,118,o),
(256,118,cs),
(208,118,o),
(172,148,o),
(172,209,cs),
(172,531,ls),
(172,540,o),
(166,546,o),
(157,546,cs),
(35,546,ls),
(26,546,o),
(20,540,o),
(20,531,cs),
(20,179,ls),
(20,61,o),
(91,-7,o),
(193,-7,cs),
(273,-7,o),
(335,34,o),
(357,97,c),
(363,97,l),
(380,34,o),
(436,-7,o),
(511,-7,cs),
(584,-7,o),
(641,33,o),
(663,97,c),
(670,97,l),
(670,15,ls),
(670,6,o),
(676,0,o),
(685,0,cs),
(798,0,ls),
(807,0,o),
(813,6,o),
(813,15,cs),
(813,531,ls),
(813,540,o),
(807,546,o),
(798,546,cs)
);
},
{
closed = 1;
nodes = (
(810,-3,o),
(810,-30,o),
(716,-33,cs),
(705,-33,o),
(699,-39,o),
(699,-48,cs),
(699,-148,ls),
(699,-157,o),
(705,-163,o),
(715,-163,cs),
(964,-152,o),
(961,118,o),
(715,130,cs),
(704,130,o),
(699,124,o),
(699,115,cs),
(699,15,ls),
(699,6,o),
(705,0,o),
(715,0,cs)
);
}
);
width = 930;
}
);
unicode = 1097;
userData = {
interface.gridadjust.original = "{'width': 2346, 'leftMargin': 196, 'rightMargin': 72}";
"interface.width-adjustments" = (
-16
);
};
},
{
glyphname = "softsign-cy";
lastChange = "2023-04-12 18:47:14 +0000";
layers = (
{
layerId = m01;
shapes = (
{
closed = 1;
nodes = (
(127,273,ls),
(127,264,o),
(133,258,o),
(142,258,cs),
(290,258,ls),
(342,258,o),
(374,231,o),
(374,187,cs),
(374,146,o),
(342,119,o),
(290,119,cs),
(181,119,l),
(181,531,ls),
(181,540,o),
(175,546,o),
(166,546,cs),
(45,546,ls),
(36,546,o),
(30,540,o),
(30,531,cs),
(30,15,ls),
(30,6,o),
(36,0,o),
(45,0,cs),
(290,0,ls),
(435,0,o),
(522,77,o),
(522,188,cs),
(522,302,o),
(435,377,o),
(290,377,cs),
(142,377,ls),
(133,377,o),
(127,371,o),
(127,362,cs)
);
}
);
width = 532;
}
);
unicode = 1100;
userData = {
interface.gridadjust.original = "{'width': 1535, 'leftMargin': 213, 'rightMargin': 121}";
"interface.width-adjustments" = (
-16
);
};
},
{
glyphname = "yeru-cy";
lastChange = "2023-04-12 18:47:14 +0000";
layers = (
{
layerId = m01;
shapes = (
{
closed = 1;
nodes = (
(127,273,ls),
(127,264,o),
(133,258,o),
(142,258,cs),
(290,258,ls),
(342,258,o),
(374,231,o),
(374,187,cs),
(374,146,o),
(342,119,o),
(290,119,cs),
(181,119,l),
(181,531,ls),
(181,540,o),
(175,546,o),
(166,546,cs),
(45,546,ls),
(36,546,o),
(30,540,o),
(30,531,cs),
(30,15,ls),
(30,6,o),
(36,0,o),
(45,0,cs),
(290,0,ls),
(435,0,o),
(522,77,o),
(522,188,cs),
(522,302,o),
(435,377,o),
(290,377,cs),
(142,377,ls),
(133,377,o),
(127,371,o),
(127,362,cs)
);
},
{
closed = 1;
nodes = (
(706,0,ls),
(715,0,o),
(721,6,o),
(721,15,cs),
(721,531,ls),
(721,540,o),
(715,546,o),
(706,546,cs),
(585,546,ls),
(576,546,o),
(570,540,o),
(570,531,cs),
(570,15,ls),
(570,6,o),
(576,0,o),
(585,0,cs)
);
}
);
width = 751;
}
);
unicode = 1099;
userData = {
interface.gridadjust.original = "{'width': 2203, 'leftMargin': 168, 'rightMargin': 244}";
"interface.width-adjustments" = (
-16
);
};
},
{
glyphname = "hardsign-cy";
lastChange = "2023-04-12 18:47:14 +0000";
layers = (
{
layerId = m01;
shapes = (
{
closed = 1;
nodes = (
(188,432,ls),
(197,432,o),
(203,438,o),
(203,447,cs),
(203,531,ls),
(203,540,o),
(197,546,o),
(188,546,cs),
(25,546,ls),
(16,546,o),
(10,540,o),
(10,531,cs),
(10,447,ls),
(10,438,o),
(16,432,o),
(25,432,cs)
);
},
{
closed = 1;
nodes = (
(247,273,ls),
(247,264,o),
(253,258,o),
(262,258,cs),
(410,258,ls),
(462,258,o),
(494,231,o),
(494,187,cs),
(494,146,o),
(462,119,o),
(410,119,cs),
(301,119,l),
(301,531,ls),
(301,540,o),
(295,546,o),
(286,546,cs),
(165,546,ls),
(156,546,o),
(150,540,o),
(150,531,cs),
(150,15,ls),
(150,6,o),
(156,0,o),
(165,0,cs),
(410,0,ls),
(555,0,o),
(642,77,o),
(642,188,cs),
(642,302,o),
(555,377,o),
(410,377,cs),
(262,377,ls),
(253,377,o),
(247,371,o),
(247,362,cs)
);
}
);
width = 662;
}
);
unicode = 1098;
userData = {
interface.gridadjust.original = "{'width': 1742, 'leftMargin': 40, 'rightMargin': 67}";
"interface.width-adjustments" = (
-16
);
};
},
{
glyphname = "e-cy";
lastChange = "2023-04-12 18:47:14 +0000";
layers = (
{
layerId = m01;
shapes = (
{
closed = 1;
nodes = (
(310,432,o),
(344,407,o),
(349,367,cs),
(350,359,o),
(355,354,o),
(364,354,cs),
(471,354,ls),
(480,354,o),
(486,359,o),
(485,369,cs),
(477,479,o),
(383,554,o),
(263,555,cs),
(98,554,o),
(10,433,o),
(10,279,cs),
(10,266,ls),
(10,110,o),
(97,-10,o),
(263,-10,cs),
(390,-10,o),
(479,66,o),
(486,190,cs),
(486,200,o),
(480,205,o),
(471,205,cs),
(365,205,ls),
(356,205,o),
(350,200,o),
(349,190,cs),
(344,147,o),
(312,113,o),
(263,112,cs),
(179,113,o),
(154,195,o),
(154,266,cs),
(154,279,ls),
(154,356,o),
(180,432,o),
(263,433,cs)
);
},
{
closed = 1;
nodes = (
(111,243,ls),
(111,234,o),
(117,228,o),
(126,228,cs),
(288,228,ls),
(297,228,o),
(303,234,o),
(303,243,cs),
(303,302,ls),
(303,311,o),
(297,317,o),
(288,317,cs),
(126,317,ls),
(117,317,o),
(111,311,o),
(111,302,cs)
);
}
);
width = 496;
}
);
unicode = 1108;
userData = {
interface.gridadjust.original = "{'width': 1517, 'leftMargin': 135, 'rightMargin': 147}";
"interface.width-adjustments" = (
-16
);
};
},
{
glyphname = "ereversed-cy";
lastChange = "2023-04-12 18:47:14 +0000";
layers = (
{
layerId = m01;
shapes = (
{
closed = 1;
nodes = (
(316,432,o),
(342,356,o),
(342,279,cs),
(342,266,ls),
(342,195,o),
(317,113,o),
(233,112,cs),
(184,113,o),
(152,147,o),
(147,190,cs),
(146,200,o),
(140,205,o),
(131,205,cs),
(25,205,ls),
(16,205,o),
(10,200,o),
(10,190,cs),
(17,66,o),
(106,-10,o),
(233,-10,cs),
(399,-10,o),
(486,110,o),
(486,266,cs),
(486,279,ls),
(486,433,o),
(398,554,o),
(233,555,cs),
(113,554,o),
(19,479,o),
(11,369,cs),
(10,359,o),
(16,354,o),
(25,354,cs),
(132,354,ls),
(141,354,o),
(145,359,o),
(147,368,cs),
(153,407,o),
(187,432,o),
(233,433,cs)
);
},
{
closed = 1;
nodes = (
(208,317,ls),
(199,317,o),
(193,311,o),
(193,302,cs),
(193,243,ls),
(193,234,o),
(199,228,o),
(208,228,cs),
(370,228,ls),
(379,228,o),
(385,234,o),
(385,243,cs),
(385,302,ls),
(385,311,o),
(379,317,o),
(370,317,cs)
);
}
);
width = 496;
}
);
unicode = 1101;
userData = {
interface.gridadjust.original = "{'width': 1517, 'leftMargin': 135, 'rightMargin': 147}";
"interface.width-adjustments" = (
-16
);
};
},
{
glyphname = "i-cy";
lastChange = "2023-04-12 18:47:14 +0000";
layers = (
{
layerId = m01;
shapes = (
{
closed = 1;
nodes = (
(173,0,ls),
(182,0,o),
(188,6,o),
(188,15,cs),
(188,531,ls),
(188,540,o),
(182,546,o),
(173,546,cs),
(52,546,ls),
(43,546,o),
(37,540,o),
(37,531,cs),
(37,15,ls),
(37,6,o),
(43,0,o),
(52,0,cs)
);
},
{
closed = 1;
nodes = (
(157,616,o),
(195,650,o),
(195,692,cs),
(195,734,o),
(157,769,o),
(113,769,cs),
(68,769,o),
(30,734,o),
(30,692,cs),
(30,650,o),
(68,616,o),
(113,616,cs)
);
}
);
width = 225;
}
);
unicode = 1110;
},
{
glyphname = "yi-cy";
lastChange = "2023-04-12 18:47:14 +0000";
layers = (
{
anchors = (
{
name = ogonek;
pos = (229,0);
}
);
layerId = m01;
shapes = (
{
closed = 1;
nodes = (
(214,0,ls),
(223,0,o),
(229,6,o),
(229,15,cs),
(229,531,ls),
(229,540,o),
(223,546,o),
(214,546,cs),
(93,546,ls),
(84,546,o),
(78,540,o),
(78,531,cs),
(78,15,ls),
(78,6,o),
(84,0,o),
(93,0,cs)
);
},
{
closed = 1;
nodes = (
(302,620,o),
(335,653,o),
(335,692,cs),
(335,732,o),
(302,765,o),
(261,765,cs),
(220,765,o),
(187,732,o),
(187,692,cs),
(187,653,o),
(220,620,o),
(261,620,cs)
);
},
{
closed = 1;
nodes = (
(85,620,o),
(118,653,o),
(118,692,cs),
(118,732,o),
(85,765,o),
(44,765,cs),
(3,765,o),
(-30,732,o),
(-30,692,cs),
(-30,653,o),
(3,620,o),
(44,620,cs)
);
}
);
width = 305;
}
);
unicode = 1111;
},
{
glyphname = "yu-cy";
lastChange = "2023-04-12 18:47:14 +0000";
layers = (
{
layerId = m01;
shapes = (
{
closed = 1;
nodes = (
(79,330,ls),
(70,330,o),
(64,324,o),
(64,315,cs),
(64,225,ls),
(64,216,o),
(70,210,o),
(79,210,cs),
(345,210,ls),
(354,210,o),
(360,216,o),
(360,225,cs),
(360,315,ls),
(360,324,o),
(354,330,o),
(345,330,cs)
);
},
{
closed = 1;
nodes = (
(45,546,ls),
(36,546,o),
(30,540,o),
(30,531,cs),
(30,15,ls),
(30,6,o),
(36,0,o),
(45,0,cs),
(166,0,ls),
(175,0,o),
(181,6,o),
(181,15,cs),
(181,531,ls),
(181,540,o),
(175,546,o),
(166,546,cs)
);
},
{
closed = 1;
nodes = (
(686,-10,o),
(786,107,o),
(786,272,cs),
(786,438,o),
(686,553,o),
(523,553,cs),
(361,553,o),
(260,438,o),
(261,272,cs),
(260,107,o),
(361,-10,o),
(523,-11,cs)
);
},
{
closed = 1;
nodes = (
(439,112,o),
(404,179,o),
(405,272,cs),
(404,367,o),
(439,432,o),
(523,433,cs),
(607,432,o),
(641,366,o),
(641,272,cs),
(641,179,o),
(607,112,o),
(523,111,cs)
);
}
);
width = 796;
}
);
unicode = 1102;
userData = {
interface.gridadjust.original = "{'width': 2300, 'leftMargin': 249, 'rightMargin': 45}";
"interface.width-adjustments" = (
-16
);
};
},
{
glyphname = "ya-cy";
lastChange = "2023-04-12 18:47:14 +0000";
layers = (
{
layerId = m01;
shapes = (
{
closed = 1;
nodes = (
(493,0,ls),
(502,0,o),
(508,6,o),
(508,15,cs),
(508,531,ls),
(508,540,o),
(502,546,o),
(493,546,cs),
(265,546,ls),
(123,545,o),
(35,473,o),
(36,367,cs),
(35,265,o),
(123,197,o),
(263,197,cs),
(403,197,ls),
(412,197,o),
(418,203,o),
(418,212,cs),
(418,284,ls),
(418,293,o),
(412,299,o),
(403,299,cs),
(263,299,ls),
(208,299,o),
(179,327,o),
(180,362,cs),
(179,397,o),
(209,427,o),
(265,427,cs),
(367,427,l),
(367,15,ls),
(367,6,o),
(373,0,o),
(382,0,cs)
);
},
{
closed = 1;
nodes = (
(153,0,ls),
(161,0,o),
(167,3,o),
(171,11,cs),
(307,266,ls),
(312,276,o),
(308,284,o),
(297,284,cs),
(184,284,ls),
(176,284,o),
(170,281,o),
(166,273,cs),
(30,18,ls),
(25,8,o),
(29,0,o),
(40,0,cs)
);
}
);
width = 538;
}
);
unicode = 1103;
userData = {
interface.gridadjust.original = "{'width': 1550, 'leftMargin': 51, 'rightMargin': 213}";
"interface.width-adjustments" = (
-16
);
};
},
{
glyphname = zero;
lastChange = "2023-04-12 18:47:14 +0000";
layers = (
{
layerId = m01;
shapes = (
{
closed = 1;
nodes = (
(490,-10,o),
(598,127,o),
(598,363,cs),
(598,599,o),
(489,737,o),
(304,737,cs),
(119,737,o),
(10,599,o),
(10,363,cs),
(10,127,o),
(119,-10,o),
(304,-10,cs)
);
},
{
closed = 1;
nodes = (
(215,117,o),
(167,206,o),
(167,363,cs),
(167,521,o),
(216,611,o),
(304,611,cs),
(393,611,o),
(441,521,o),
(441,363,cs),
(441,206,o),
(393,117,o),
(304,117,cs)
);
},
{
closed = 1;
nodes = (
(465,607,ls),
(469,616,o),
(467,623,o),
(458,627,cs),
(422,642,ls),
(414,646,o),
(406,643,o),
(402,635,cs),
(143,123,ls),
(139,114,o),
(141,107,o),
(150,103,cs),
(184,87,ls),
(192,83,o),
(200,85,o),
(204,94,cs)
);
}
);
width = 608;
}
);
metricLeft = O;
metricRight = O;
unicode = 48;
},
{
glyphname = one;
lastChange = "2023-04-12 18:47:14 +0000";
layers = (
{
layerId = m01;
shapes = (
{
closed = 1;
nodes = (
(302,0,ls),
(311,0,o),
(317,6,o),
(317,15,cs),
(317,713,ls),
(317,722,o),
(311,728,o),
(302,728,cs),
(200,728,ls),
(192,728,o),
(186,724,o),
(183,716,cs),
(157,651,o),
(93,607,o),
(17,607,cs),
(12,607,o),
(10,601,o),
(10,592,cs),
(10,500,ls),
(10,491,o),
(15,485,o),
(25,485,cs),
(81,488,o),
(135,506,o),
(164,539,cs),
(170,547,o),
(171,552,o),
(169,554,cs),
(167,555,o),
(164,547,o),
(164,535,cs),
(164,15,ls),
(164,6,o),
(170,0,o),
(179,0,cs)
);
}
);
width = 347;
}
);
unicode = 49;
},
{
glyphname = two;
lastChange = "2023-04-12 18:47:14 +0000";
layers = (
{
layerId = m01;
shapes = (
{
closed = 1;
nodes = (
(531,0,ls),
(540,0,o),
(546,6,o),
(546,15,cs),
(546,110,ls),
(546,119,o),
(540,125,o),
(531,125,cs),
(240,125,l),
(240,131,l),
(346,235,l),
(496,371,o),
(536,439,o),
(536,521,cs),
(536,648,o),
(433,737,o),
(277,737,cs),
(130,737,o),
(28,652,o),
(20,518,cs),
(20,508,o),
(26,503,o),
(35,503,cs),
(151,503,ls),
(160,503,o),
(166,508,o),
(167,518,cs),
(172,579,o),
(214,615,o),
(276,615,cs),
(340,615,o),
(387,576,o),
(387,512,cs),
(387,454,o),
(351,414,o),
(286,351,cs),
(35,117,ls),
(29,111,o),
(27,106,o),
(27,99,cs),
(27,15,ls),
(27,6,o),
(33,0,o),
(42,0,cs)
);
}
);
width = 566;
}
);
unicode = 50;
},
{
glyphname = three;
lastChange = "2023-04-12 18:47:14 +0000";
layers = (
{
layerId = m01;
shapes = (
{
closed = 1;
nodes = (
(33,69,o),
(143,-10,o),
(296,-10,cs),
(456,-10,o),
(576,78,o),
(576,207,cs),
(576,304,o),
(509,398,o),
(356,413,c),
(356,419,l),
(544,608,ls),
(549,613,o),
(552,620,o),
(552,627,cs),
(552,713,ls),
(552,722,o),
(546,728,o),
(537,728,cs),
(71,728,ls),
(62,728,o),
(56,722,o),
(56,713,cs),
(56,617,ls),
(56,608,o),
(62,602,o),
(71,602,cs),
(363,602,l),
(363,597,l),
(208,437,ls),
(203,431,o),
(201,425,o),
(201,418,cs),
(201,337,ls),
(201,328,o),
(207,322,o),
(216,322,cs),
(280,322,ls),
(369,322,o),
(416,277,o),
(416,217,cs),
(416,155,o),
(367,117,o),
(297,117,cs),
(236,117,o),
(188,145,o),
(177,192,cs),
(175,201,o),
(170,206,o),
(161,206,cs),
(36,206,ls),
(26,206,o),
(20,200,o),
(21,191,cs)
);
}
);
width = 596;
}
);
unicode = 51;
},
{
glyphname = four;
lastChange = "2023-04-12 18:47:14 +0000";
layers = (
{
layerId = m01;
shapes = (
{
closed = 1;
nodes = (
(591,128,ls),
(600,128,o),
(606,134,o),
(606,143,cs),
(606,236,ls),
(606,245,o),
(600,251,o),
(591,251,cs),
(174,251,l),
(174,257,l),
(430,710,ls),
(436,721,o),
(431,728,o),
(419,728,cs),
(304,728,ls),
(296,728,o),
(290,726,o),
(286,718,cs),
(25,258,ls),
(22,252,o),
(20,246,o),
(20,239,cs),
(20,143,ls),
(20,134,o),
(26,128,o),
(35,128,cs)
);
},
{
closed = 1;
nodes = (
(498,0,ls),
(507,0,o),
(513,6,o),
(513,15,cs),
(513,439,ls),
(513,448,o),
(507,454,o),
(498,454,cs),
(388,454,ls),
(379,454,o),
(373,448,o),
(373,439,cs),
(373,219,l),
(369,164,l),
(369,15,ls),
(369,6,o),
(375,0,o),
(384,0,cs)
);
}
);
width = 626;
}
);
unicode = 52;
},
{
glyphname = five;
lastChange = "2023-04-12 18:47:14 +0000";
layers = (
{
layerId = m01;
shapes = (
{
closed = 1;
nodes = (
(444,-10,o),
(554,96,o),
(554,243,cs),
(554,382,o),
(458,481,o),
(326,481,cs),
(262,481,o),
(208,455,o),
(182,419,c),
(178,419,l),
(196,602,l),
(499,602,ls),
(508,602,o),
(514,608,o),
(514,617,cs),
(514,713,ls),
(514,722,o),
(508,728,o),
(499,728,cs),
(83,728,ls),
(74,728,o),
(69,724,o),
(68,714,cs),
(36,358,ls),
(35,348,o),
(40,343,o),
(49,341,cs),
(160,321,ls),
(169,319,o),
(174,322,o),
(180,328,cs),
(203,353,o),
(242,368,o),
(281,368,cs),
(354,368,o),
(406,315,o),
(406,239,cs),
(406,163,o),
(355,111,o),
(283,111,cs),
(227,111,o),
(180,143,o),
(171,192,cs),
(169,201,o),
(164,206,o),
(155,206,cs),
(35,206,ls),
(25,206,o),
(20,201,o),
(21,191,cs),
(31,73,o),
(138,-10,o),
(283,-10,cs)
);
}
);
width = 574;
}
);
unicode = 53;
},
{
glyphname = six;
lastChange = "2023-04-12 18:47:14 +0000";
layers = (
{
layerId = m01;
shapes = (
{
closed = 1;
nodes = (
(9,81,o),
(130,-10,o),
(275,-10,cs),
(426,-10,o),
(537,90,o),
(537,239,cs),
(537,379,o),
(440,476,o),
(306,476,cs),
(286,476,o),
(267,473,o),
(249,469,c),
(413,710,ls),
(420,721,o),
(415,728,o),
(403,728,cs),
(283,728,ls),
(275,728,o),
(269,724,o),
(265,718,cs),
(102,478,ls),
(39,385,o),
(10,313,o),
(10,236,cs)
);
},
{
closed = 1;
nodes = (
(160,307,o),
(206,358,o),
(275,358,cs),
(341,358,o),
(389,307,o),
(389,234,cs),
(389,162,o),
(342,110,o),
(275,110,cs),
(206,110,o),
(160,162,o),
(159,234,cs)
);
}
);
width = 547;
}
);
unicode = 54;
},
{
glyphname = seven;
lastChange = "2023-04-12 18:47:14 +0000";
layers = (
{
layerId = m01;
shapes = (
{
closed = 1;
nodes = (
(217,0,ls),
(225,0,o),
(230,4,o),
(234,11,cs),
(527,591,ls),
(530,598,o),
(531,603,o),
(531,610,cs),
(531,713,ls),
(531,722,o),
(525,728,o),
(516,728,cs),
(35,728,ls),
(26,728,o),
(20,722,o),
(20,713,cs),
(20,617,ls),
(20,608,o),
(26,602,o),
(35,602,cs),
(371,602,l),
(371,597,l),
(79,18,ls),
(74,7,o),
(79,0,o),
(90,0,cs)
);
}
);
width = 551;
}
);
unicode = 55;
},
{
glyphname = eight;
lastChange = "2023-04-12 18:47:14 +0000";
layers = (
{
layerId = m01;
shapes = (
{
closed = 1;
nodes = (
(456,-10,o),
(574,78,o),
(574,196,cs),
(574,286,o),
(503,361,o),
(417,375,c),
(417,380,l),
(493,396,o),
(547,462,o),
(547,542,cs),
(547,654,o),
(439,737,o),
(292,737,cs),
(145,737,o),
(37,654,o),
(37,542,cs),
(37,462,o),
(90,396,o),
(168,380,c),
(168,375,l),
(79,361,o),
(10,286,o),
(10,196,cs),
(10,78,o),
(127,-10,o),
(292,-10,cs)
);
},
{
closed = 1;
nodes = (
(219,103,o),
(170,146,o),
(170,208,cs),
(170,271,o),
(221,315,o),
(292,315,cs),
(362,315,o),
(414,271,o),
(414,208,cs),
(414,146,o),
(365,103,o),
(292,103,cs)
);
},
{
closed = 1;
nodes = (
(231,428,o),
(187,468,o),
(187,525,cs),
(187,583,o),
(230,621,o),
(292,621,cs),
(354,621,o),
(398,582,o),
(398,525,cs),
(398,468,o),
(353,428,o),
(292,428,cs)
);
}
);
width = 584;
}
);
note = "essentially two conjoined \"three\" glyphs";
unicode = 56;
},
{
glyphname = nine;
lastChange = "2023-04-12 18:47:14 +0000";
layers = (
{
layerId = m01;
shapes = (
{
closed = 1;
nodes = (
(10,348,o),
(106,251,o),
(240,251,cs),
(260,251,o),
(280,254,o),
(297,260,c),
(133,18,ls),
(126,7,o),
(131,0,o),
(143,0,cs),
(264,0,ls),
(272,0,o),
(278,4,o),
(282,10,cs),
(444,249,ls),
(507,342,o),
(537,415,o),
(537,491,cs),
(538,647,o),
(416,737,o),
(271,737,cs),
(120,737,o),
(10,637,o),
(10,488,cs)
);
},
{
closed = 1;
nodes = (
(158,565,o),
(205,617,o),
(273,617,cs),
(339,617,o),
(387,565,o),
(387,492,cs),
(387,420,o),
(339,369,o),
(273,369,cs),
(205,369,o),
(158,420,o),
(158,493,cs)
);
}
);
width = 547;
}
);
note = "six mirrored";
unicode = 57;
},
{
glyphname = period;
lastChange = "2023-04-12 18:47:14 +0000";
layers = (
{
anchors = (
{
name = _center;
pos = (169,76);
}
);
layerId = m01;
shapes = (
{
closed = 1;
nodes = (
(217,-9,o),
(255,28,o),
(255,76,cs),
(255,124,o),
(217,161,o),
(169,161,cs),
(121,161,o),
(83,124,o),
(83,76,cs),
(83,28,o),
(121,-9,o),
(169,-9,cs)
);
}
);
width = 337;
}
);
unicode = 46;
userData = {
"interface.width-adjustments" = (
-16
);
};
},
{
glyphname = exclam;
lastChange = "2023-04-12 18:47:14 +0000";
layers = (
{
anchors = (
{
name = _center;
pos = (173,364);
}
);
layerId = m01;
shapes = (
{
closed = 1;
nodes = (
(228,230,ls),
(237,230,o),
(243,236,o),
(243,245,cs),
(254,713,ls),
(254,722,o),
(248,728,o),
(239,728,cs),
(107,728,ls),
(98,728,o),
(92,722,o),
(92,713,cs),
(103,245,ls),
(103,236,o),
(109,230,o),
(118,230,cs)
);
},
{
closed = 1;
nodes = (
(225,-9,o),
(261,24,o),
(261,75,cs),
(261,125,o),
(225,158,o),
(173,158,cs),
(121,158,o),
(85,125,o),
(85,75,cs),
(85,24,o),
(121,-9,o),
(173,-9,cs)
);
}
);
width = 346;
}
);
unicode = 33;
userData = {
"interface.width-adjustments" = (
-16
);
};
},
{
glyphname = question;
lastChange = "2023-04-12 18:47:14 +0000";
layers = (
{
anchors = (
{
name = _center;
pos = (282,364);
}
);
layerId = m01;
shapes = (
{
closed = 1;
nodes = (
(310,224,ls),
(319,224,o),
(325,229,o),
(325,236,cs),
(325,305,o),
(351,332,o),
(406,365,cs),
(473,405,o),
(516,457,o),
(516,541,cs),
(516,665,o),
(417,737,o),
(275,737,cs),
(151,737,o),
(48,674,o),
(39,543,cs),
(38,533,o),
(44,528,o),
(53,528,cs),
(169,528,ls),
(178,528,o),
(183,533,o),
(184,542,cs),
(192,591,o),
(232,616,o),
(274,616,cs),
(322,616,o),
(361,584,o),
(361,535,cs),
(361,489,o),
(328,458,o),
(284,430,cs),
(224,393,o),
(190,360,o),
(190,236,cs),
(190,228,o),
(196,224,o),
(205,224,cs)
);
},
{
closed = 1;
nodes = (
(310,-9,o),
(346,24,o),
(346,75,cs),
(346,125,o),
(310,158,o),
(258,158,cs),
(206,158,o),
(170,125,o),
(170,75,cs),
(170,24,o),
(206,-9,o),
(258,-9,cs)
);
}
);
width = 563;
}
);
unicode = 63;
userData = {
"interface.width-adjustments" = (
-16
);
};
},
{
glyphname = bullet;
lastChange = "2023-04-12 18:47:14 +0000";
layers = (
{
layerId = m01;
shapes = (
{
closed = 1;
nodes = (
(318,134,o),
(388,204,o),
(388,290,cs),
(388,376,o),
(318,446,o),
(232,446,cs),
(146,446,o),
(76,376,o),
(76,290,cs),
(76,204,o),
(146,134,o),
(232,134,cs)
);
}
);
width = 464;
}
);
unicode = 8226;
userData = {
"interface.width-adjustments" = (
-16
);
};
},
{
glyphname = asterisk;
lastChange = "2023-04-12 18:47:14 +0000";
layers = (
{
layerId = m01;
shapes = (
{
closed = 1;
nodes = (
(314,318,ls),
(324,318,o),
(330,323,o),
(329,333,cs),
(321,456,l),
(423,388,ls),
(431,382,o),
(439,385,o),
(444,393,cs),
(475,449,ls),
(480,457,o),
(478,464,o),
(469,469,cs),
(360,522,l),
(469,576,ls),
(478,581,o),
(481,588,o),
(476,596,cs),
(444,653,ls),
(439,661,o),
(431,664,o),
(423,658,cs),
(321,590,l),
(329,713,ls),
(330,723,o),
(324,728,o),
(314,728,cs),
(250,728,ls),
(240,728,o),
(234,722,o),
(235,712,cs),
(244,590,l),
(142,658,ls),
(134,664,o),
(126,661,o),
(121,653,cs),
(89,596,ls),
(84,588,o),
(86,581,o),
(95,576,cs),
(205,522,l),
(95,469,ls),
(86,464,o),
(84,457,o),
(89,449,cs),
(121,392,ls),
(126,384,o),
(134,382,o),
(142,388,cs),
(244,456,l),
(235,334,ls),
(234,324,o),
(240,318,o),
(250,318,cs)
);
}
);
width = 565;
}
);
note = "hexagonal angle: 30 deg";
unicode = 42;
userData = {
com.typemytype.robofont.guideline.magnetic.x5LXEmmtln = 5;
"interface.width-adjustments" = (
-16
);
};
},
{
glyphname = hyphenbullet;
lastChange = "2023-04-12 18:47:14 +0000";
layers = (
{
layerId = m01;
shapes = (
{
closed = 1;
nodes = (
(106,350,ls),
(97,350,o),
(91,344,o),
(91,335,cs),
(91,245,ls),
(91,236,o),
(97,230,o),
(106,230,cs),
(358,230,ls),
(367,230,o),
(373,236,o),
(373,245,cs),
(373,335,ls),
(373,344,o),
(367,350,o),
(358,350,cs)
);
}
);
width = 464;
}
);
metricWidth = bullet;
unicode = 8259;
userData = {
interface.gridadjust.original = "{'width': 1196, 'leftMargin': 110, 'rightMargin': 110}";
"interface.width-adjustments" = (
-16
);
};
},
{
glyphname = numbersign;
lastChange = "2023-04-12 18:47:14 +0000";
layers = (
{
anchors = (
{
name = _center;
pos = (325,364);
}
);
layerId = m01;
shapes = (
{
closed = 1;
nodes = (
(435,0,ls),
(444,0,o),
(450,5,o),
(451,14,cs),
(566,712,ls),
(568,723,o),
(563,728,o),
(553,728,cs),
(470,728,ls),
(461,728,o),
(455,723,o),
(454,714,cs),
(339,16,ls),
(337,5,o),
(342,0,o),
(352,0,cs)
);
},
{
closed = 1;
nodes = (
(564,181,ls),
(573,181,o),
(578,186,o),
(580,195,cs),
(595,278,ls),
(597,289,o),
(592,294,o),
(582,294,cs),
(43,294,ls),
(34,294,o),
(28,289,o),
(27,280,cs),
(13,197,ls),
(11,186,o),
(16,181,o),
(26,181,cs)
);
},
{
closed = 1;
nodes = (
(180,0,ls),
(189,0,o),
(195,5,o),
(196,14,cs),
(310,712,ls),
(312,723,o),
(307,728,o),
(297,728,cs),
(214,728,ls),
(205,728,o),
(199,723,o),
(198,714,cs),
(84,16,ls),
(82,5,o),
(87,0,o),
(97,0,cs)
);
},
{
closed = 1;
nodes = (
(606,433,ls),
(615,433,o),
(621,438,o),
(622,447,cs),
(636,531,ls),
(638,542,o),
(633,547,o),
(623,547,cs),
(85,547,ls),
(76,547,o),
(70,542,o),
(69,533,cs),
(55,449,ls),
(53,438,o),
(58,433,o),
(68,433,cs)
);
}
);
width = 649;
}
);
note = "1. outline\0122. slant 9.4 deg\0123. remove extra shapes created by outlining";
unicode = 35;
userData = {
"interface.width-adjustments" = (
-16
);
};
},
{
glyphname = slash;
lastChange = "2023-04-12 18:47:14 +0000";
layers = (
{
layerId = m01;
shapes = (
{
closed = 1;
nodes = (
(260,762,ls),
(251,762,o),
(246,757,o),
(244,749,cs),
(18,-92,ls),
(15,-103,o),
(20,-109,o),
(30,-109,cs),
(130,-109,ls),
(139,-109,o),
(144,-104,o),
(146,-96,cs),
(372,745,ls),
(375,756,o),
(370,762,o),
(360,762,cs)
);
}
);
width = 390;
}
);
unicode = 47;
userData = {
"interface.width-adjustments" = (
-16
);
};
},
{
glyphname = backslash;
lastChange = "2023-04-12 18:47:14 +0000";
layers = (
{
layerId = m01;
shapes = (
{
closed = 1;
nodes = (
(360,-109,ls),
(370,-109,o),
(375,-103,o),
(372,-92,cs),
(146,749,ls),
(144,757,o),
(139,762,o),
(130,762,cs),
(30,762,ls),
(20,762,o),
(15,756,o),
(18,745,cs),
(244,-96,ls),
(246,-104,o),
(251,-109,o),
(260,-109,cs)
);
}
);
width = 390;
}
);
unicode = 92;
userData = {
"interface.width-adjustments" = (
-16
);
};
},
{
glyphname = hyphen;
lastChange = "2023-04-12 18:47:14 +0000";
layers = (
{
anchors = (
{
name = _center;
pos = (234,298);
}
);
layerId = m01;
shapes = (
{
closed = 1;
nodes = (
(83,358,ls),
(74,358,o),
(68,352,o),
(68,343,cs),
(68,253,ls),
(68,244,o),
(74,238,o),
(83,238,cs),
(385,238,ls),
(394,238,o),
(400,244,o),
(400,253,cs),
(400,343,ls),
(400,352,o),
(394,358,o),
(385,358,cs)
);
}
);
width = 468;
}
);
unicode = 45;
userData = {
"interface.width-adjustments" = (
-16
);
};
},
{
glyphname = endash;
lastChange = "2023-04-12 18:47:14 +0000";
layers = (
{
layerId = m01;
shapes = (
{
closed = 1;
nodes = (
(15,358,ls),
(6,358,o),
(0,352,o),
(0,343,cs),
(0,253,ls),
(0,244,o),
(6,238,o),
(15,238,cs),
(485,238,ls),
(494,238,o),
(500,244,o),
(500,253,cs),
(500,343,ls),
(500,352,o),
(494,358,o),
(485,358,cs)
);
}
);
width = 500;
}
);
unicode = 8211;
},
{
glyphname = emdash;
lastChange = "2023-04-12 18:47:14 +0000";
layers = (
{
layerId = m01;
shapes = (
{
closed = 1;
nodes = (
(15,358,ls),
(6,358,o),
(0,352,o),
(0,343,cs),
(0,253,ls),
(0,244,o),
(6,238,o),
(15,238,cs),
(985,238,ls),
(994,238,o),
(1000,244,o),
(1000,253,cs),
(1000,343,ls),
(1000,352,o),
(994,358,o),
(985,358,cs)
);
}
);
width = 1000;
}
);
unicode = 8212;
},
{
glyphname = figuredash;
lastChange = "2023-04-12 18:47:14 +0000";
layers = (
{
layerId = m01;
shapes = (
{
closed = 1;
nodes = (
(15,358,ls),
(6,358,o),
(0,352,o),
(0,343,cs),
(0,253,ls),
(0,244,o),
(6,238,o),
(15,238,cs),
(667,238,ls),
(676,238,o),
(682,244,o),
(682,253,cs),
(682,343,ls),
(682,352,o),
(676,358,o),
(667,358,cs)
);
}
);
width = 682;
}
);
metricWidth = zero.tf;
unicode = 8210;
userData = {
interface.gridadjust.original = "{'width': 1610, 'leftMargin': 256, 'rightMargin': 330}";
};
},
{
glyphname = underscore;
lastChange = "2023-04-12 18:47:14 +0000";
layers = (
{
anchors = (
{
name = _bottom;
pos = (238,68);
}
);
layerId = m01;
shapes = (
{
closed = 1;
nodes = (
(15,0,ls),
(6,0,o),
(0,-6,o),
(0,-15,cs),
(0,-100,ls),
(0,-109,o),
(6,-115,o),
(15,-115,cs),
(462,-115,ls),
(471,-115,o),
(477,-109,o),
(477,-100,cs),
(477,-15,ls),
(477,-6,o),
(471,0,o),
(462,0,cs)
);
}
);
width = 477;
}
);
unicode = 95;
},
{
glyphname = parenleft;
lastChange = "2023-04-12 18:47:14 +0000";
layers = (
{
layerId = m01;
shapes = (
{
closed = 1;
nodes = (
(80,153,o),
(122,8,o),
(199,-125,cs),
(204,-133,o),
(210,-136,o),
(218,-136,cs),
(327,-136,ls),
(338,-136,o),
(343,-129,o),
(338,-118,cs),
(263,56,o),
(234,173,o),
(234,296,cs),
(234,437,o),
(272,606,o),
(338,754,cs),
(343,765,o),
(338,772,o),
(327,772,cs),
(218,772,ls),
(210,772,o),
(204,769,o),
(200,762,cs),
(129,643,o),
(80,454,o),
(80,296,cs)
);
}
);
width = 377;
}
);
unicode = 40;
userData = {
com.typemytype.robofont.guideline.magnetic.6H1sRKKBfi = 5;
com.typemytype.robofont.guideline.magnetic.IYaB9kRuJP = 5;
com.typemytype.robofont.guideline.magnetic.PK9Z25O3at = 5;
com.typemytype.robofont.guideline.magnetic.pOwuJlK9ke = 5;
"interface.width-adjustments" = (
-16
);
};
},
{
glyphname = parenright;
lastChange = "2023-04-12 18:47:14 +0000";
layers = (
{
layerId = m01;
shapes = (
{
closed = 1;
nodes = (
(159,-136,ls),
(167,-136,o),
(173,-133,o),
(177,-126,cs),
(255,7,o),
(297,153,o),
(297,296,cs),
(297,454,o),
(248,643,o),
(177,762,cs),
(173,769,o),
(167,772,o),
(159,772,cs),
(50,772,ls),
(39,772,o),
(34,765,o),
(39,754,cs),
(104,606,o),
(143,437,o),
(143,296,cs),
(143,173,o),
(113,56,o),
(39,-118,cs),
(34,-129,o),
(39,-136,o),
(50,-136,cs)
);
}
);
width = 377;
}
);
metricLeft = "=|parenleft";
metricRight = "=|parenleft";
unicode = 41;
userData = {
"interface.width-adjustments" = (
-16
);
};
},
{
glyphname = braceleft;
lastChange = "2023-04-12 18:47:14 +0000";
layers = (
{
layerId = m01;
shapes = (
{
closed = 1;
nodes = (
(283,314,o),
(317,384,o),
(317,454,cs),
(317,558,ls),
(317,622,o),
(336,655,o),
(408,658,cs),
(418,658,o),
(423,664,o),
(423,673,cs),
(423,757,ls),
(423,766,o),
(418,772,o),
(408,772,cs),
(273,770,o),
(177,742,o),
(177,573,cs),
(177,490,ls),
(177,422,o),
(153,390,o),
(83,386,cs),
(73,386,o),
(68,380,o),
(68,371,cs),
(68,325,ls),
(68,316,o),
(74,310,o),
(84,310,cs)
);
},
{
closed = 1;
nodes = (
(423,-38,ls),
(423,-29,o),
(418,-23,o),
(408,-23,cs),
(336,-19,o),
(317,13,o),
(317,78,cs),
(317,182,ls),
(317,251,o),
(283,322,o),
(84,326,cs),
(74,326,o),
(68,320,o),
(68,311,cs),
(68,265,ls),
(68,256,o),
(73,250,o),
(83,250,cs),
(153,246,o),
(177,214,o),
(177,146,cs),
(177,63,ls),
(177,-106,o),
(273,-134,o),
(408,-136,cs),
(418,-136,o),
(423,-130,o),
(423,-121,cs)
);
},
{
closed = 1;
nodes = (
(187,250,ls),
(196,250,o),
(202,256,o),
(202,265,cs),
(202,371,ls),
(202,380,o),
(196,386,o),
(187,386,cs),
(83,386,ls),
(74,386,o),
(68,380,o),
(68,371,cs),
(68,265,ls),
(68,256,o),
(74,250,o),
(83,250,cs)
);
}
);
width = 472;
}
);
metricLeft = hyphen;
metricRight = bracketleft;
unicode = 123;
},
{
glyphname = braceright;
lastChange = "2023-04-12 18:47:14 +0000";
layers = (
{
layerId = m01;
shapes = (
{
closed = 1;
nodes = (
(404,371,ls),
(404,380,o),
(399,386,o),
(389,386,cs),
(319,390,o),
(295,422,o),
(295,490,cs),
(295,573,ls),
(295,742,o),
(200,770,o),
(64,772,cs),
(54,772,o),
(49,766,o),
(49,757,cs),
(49,673,ls),
(49,664,o),
(54,658,o),
(64,658,cs),
(137,655,o),
(155,622,o),
(155,558,cs),
(155,454,ls),
(155,384,o),
(190,314,o),
(388,310,cs),
(398,310,o),
(404,316,o),
(404,325,cs)
);
},
{
closed = 1;
nodes = (
(200,-134,o),
(295,-106,o),
(295,63,cs),
(295,146,ls),
(295,214,o),
(319,246,o),
(389,250,cs),
(399,250,o),
(404,256,o),
(404,265,cs),
(404,311,ls),
(404,320,o),
(398,326,o),
(388,326,cs),
(190,322,o),
(155,251,o),
(155,182,cs),
(155,78,ls),
(155,13,o),
(137,-19,o),
(64,-23,cs),
(54,-23,o),
(49,-29,o),
(49,-38,cs),
(49,-121,ls),
(49,-130,o),
(54,-136,o),
(64,-136,cs)
);
},
{
closed = 1;
nodes = (
(404,371,ls),
(404,380,o),
(398,386,o),
(389,386,cs),
(286,386,ls),
(277,386,o),
(271,380,o),
(271,371,cs),
(271,265,ls),
(271,256,o),
(277,250,o),
(286,250,cs),
(389,250,ls),
(398,250,o),
(404,256,o),
(404,265,cs)
);
}
);
width = 472;
}
);
metricLeft = "=|braceleft";
metricRight = "=|braceleft";
unicode = 125;
},
{
glyphname = bracketleft;
lastChange = "2023-04-12 18:47:14 +0000";
layers = (
{
anchors = (
{
name = cross;
pos = (159,318);
}
);
layerId = m01;
shapes = (
{
closed = 1;
nodes = (
(313,-136,ls),
(322,-136,o),
(328,-130,o),
(328,-121,cs),
(328,-37,ls),
(328,-28,o),
(322,-22,o),
(313,-22,cs),
(232,-22,l),
(232,658,l),
(313,658,ls),
(322,658,o),
(328,664,o),
(328,673,cs),
(328,757,ls),
(328,766,o),
(322,772,o),
(313,772,cs),
(101,772,ls),
(92,772,o),
(86,766,o),
(86,757,cs),
(86,-121,ls),
(86,-130,o),
(92,-136,o),
(101,-136,cs)
);
}
);
width = 377;
}
);
metricWidth = parenleft;
unicode = 91;
},
{
glyphname = bracketright;
lastChange = "2023-04-12 18:47:14 +0000";
layers = (
{
anchors = (
{
name = cross;
pos = (218,318);
}
);
layerId = m01;
shapes = (
{
closed = 1;
nodes = (
(277,-136,ls),
(286,-136,o),
(292,-130,o),
(292,-121,cs),
(292,757,ls),
(292,766,o),
(286,772,o),
(277,772,cs),
(64,772,ls),
(55,772,o),
(49,766,o),
(49,757,cs),
(49,673,ls),
(49,664,o),
(55,658,o),
(64,658,cs),
(146,658,l),
(146,-22,l),
(64,-22,ls),
(55,-22,o),
(49,-28,o),
(49,-37,cs),
(49,-121,ls),
(49,-130,o),
(55,-136,o),
(64,-136,cs)
);
}
);
width = 378;
}
);
metricLeft = "=|bracketleft";
metricRight = "=|bracketleft";
unicode = 93;
},
{
glyphname = quoteleft;
lastChange = "2023-04-12 18:47:14 +0000";
layers = (
{
layerId = m01;
shapes = (
{
closed = 1;
nodes = (
(217,423,ls),
(226,423,o),
(232,427,o),
(233,437,cs),
(272,712,ls),
(273,723,o),
(268,728,o),
(258,728,cs),
(185,728,ls),
(177,728,o),
(170,723,o),
(168,715,cs),
(86,440,ls),
(83,429,o),
(89,423,o),
(99,423,cs)
);
}
);
width = 355;
}
);
unicode = 8216;
userData = {
"interface.width-adjustments" = (
-16
);
};
},
{
glyphname = quoteright;
lastChange = "2023-04-12 18:47:14 +0000";
layers = (
{
layerId = m01;
shapes = (
{
closed = 1;
nodes = (
(170,423,ls),
(178,423,o),
(185,428,o),
(187,436,cs),
(269,711,ls),
(272,722,o),
(266,728,o),
(256,728,cs),
(138,728,ls),
(129,728,o),
(123,724,o),
(122,714,cs),
(83,439,ls),
(82,428,o),
(87,423,o),
(97,423,cs)
);
}
);
width = 355;
}
);
metricLeft = quoteleft;
metricRight = quoteleft;
unicode = (8217,700);
userData = {
"interface.width-adjustments" = (
-16
);
};
},
{
glyphname = quotereversed;
lastChange = "2023-04-12 18:47:14 +0000";
layers = (
{
layerId = m01;
shapes = (
{
closed = 1;
nodes = (
(258,423,ls),
(268,423,o),
(273,428,o),
(272,439,cs),
(233,714,ls),
(232,724,o),
(226,728,o),
(217,728,cs),
(99,728,ls),
(89,728,o),
(83,722,o),
(86,711,cs),
(168,436,ls),
(170,428,o),
(177,423,o),
(185,423,cs)
);
}
);
width = 355;
}
);
metricLeft = "=|quoteleft";
metricRight = "=|quoteleft";
unicode = 8219;
userData = {
interface.gridadjust.original = "{'width': 578, 'leftMargin': 106, 'rightMargin': 66}";
"interface.width-adjustments" = (
-16
);
};
},
{
glyphname = guilsinglleft;
lastChange = "2023-04-12 18:47:14 +0000";
layers = (
{
layerId = m01;
shapes = (
{
closed = 1;
nodes = (
(374,70,ls),
(387,70,o),
(391,78,o),
(383,88,cs),
(206,301,l),
(383,513,ls),
(391,523,o),
(387,531,o),
(374,531,cs),
(250,531,ls),
(243,531,o),
(237,529,o),
(232,523,cs),
(52,312,ls),
(46,305,o),
(46,297,o),
(52,290,cs),
(232,79,ls),
(237,73,o),
(243,70,o),
(250,70,cs)
);
}
);
width = 435;
}
);
unicode = 8249;
userData = {
"interface.width-adjustments" = (
-16
);
};
},
{
glyphname = guilsinglright;
lastChange = "2023-04-12 18:47:14 +0000";
layers = (
{
layerId = m01;
shapes = (
{
closed = 1;
nodes = (
(186,70,ls),
(193,70,o),
(199,72,o),
(204,78,cs),
(384,290,ls),
(390,297,o),
(390,305,o),
(384,312,cs),
(204,523,ls),
(199,529,o),
(193,531,o),
(186,531,cs),
(61,531,ls),
(48,531,o),
(44,523,o),
(52,513,cs),
(230,301,l),
(52,88,ls),
(44,78,o),
(48,70,o),
(61,70,cs)
);
}
);
width = 436;
}
);
metricLeft = "=|guilsinglleft";
metricRight = "=|guilsinglleft";
unicode = 8250;
userData = {
"interface.width-adjustments" = (
-16
);
};
},
{
glyphname = primerev;
lastChange = "2023-04-12 18:47:14 +0000";
layers = (
{
layerId = m01;
shapes = (
{
closed = 1;
nodes = (
(196,714,ls),
(195,724,o),
(190,728,o),
(181,728,cs),
(75,728,ls),
(65,728,o),
(59,723,o),
(61,712,cs),
(115,458,ls),
(117,449,o),
(123,445,o),
(132,445,cs),
(205,445,ls),
(215,445,o),
(221,451,o),
(220,461,cs)
);
}
);
width = 279;
}
);
metricWidth = prime;
unicode = 8245;
userData = {
interface.gridadjust.original = "{'width': 646, 'leftMargin': 110, 'rightMargin': 110}";
"interface.width-adjustments" = (
-16
);
};
},
{
glyphname = quotesingle;
lastChange = "2023-04-12 18:47:14 +0000";
layers = (
{
layerId = m01;
shapes = (
{
closed = 1;
nodes = (
(213,423,ls),
(222,423,o),
(229,429,o),
(229,438,cs),
(242,713,ls),
(242,723,o),
(238,728,o),
(228,728,cs),
(114,728,ls),
(104,728,o),
(100,722,o),
(100,713,cs),
(112,438,ls),
(112,429,o),
(119,423,o),
(128,423,cs)
);
}
);
width = 342;
}
);
unicode = 39;
userData = {
"interface.width-adjustments" = (
-16
);
};
},
{
glyphname = at;
lastChange = "2023-04-12 18:47:14 +0000";
layers = (
{
layerId = m01;
shapes = (
{
closed = 1;
nodes = (
(623,-209,o),
(718,-188,o),
(765,-164,cs),
(769,-162,o),
(770,-156,o),
(767,-148,cs),
(741,-72,ls),
(738,-62,o),
(731,-60,o),
(722,-63,cs),
(680,-77,o),
(608,-94,o),
(535,-94,cs),
(303,-94,o),
(177,29,o),
(177,253,cs),
(177,457,o),
(293,610,o),
(529,610,cs),
(701,610,o),
(858,528,o),
(858,305,cs),
(858,166,o),
(833,104,o),
(784,104,cs),
(760,104,o),
(745,122,o),
(745,154,cs),
(745,486,ls),
(745,495,o),
(739,501,o),
(730,501,cs),
(649,501,ls),
(640,501,o),
(634,495,o),
(634,486,cs),
(634,461,l),
(628,461,l),
(615,486,o),
(562,513,o),
(495,513,cs),
(369,513,o),
(264,417,o),
(264,254,cs),
(264,98,o),
(350,-6,o),
(486,-6,cs),
(562,-6,o),
(625,26,o),
(642,67,c),
(646,67,l),
(653,21,o),
(686,-10,o),
(751,-10,cs),
(918,-10,o),
(980,125,o),
(980,296,cs),
(980,549,o),
(813,724,o),
(531,724,cs),
(226,724,o),
(50,535,o),
(50,249,cs),
(50,-41,o),
(225,-209,o),
(526,-209,cs)
);
},
{
closed = 1;
nodes = (
(417,111,o),
(386,183,o),
(386,258,cs),
(386,339,o),
(431,392,o),
(510,392,cs),
(600,392,o),
(626,344,o),
(626,259,cs),
(626,162,o),
(597,111,o),
(510,111,cs)
);
}
);
width = 1031;
}
);
unicode = 64;
userData = {
"interface.width-adjustments" = (
-16
);
};
},
{
glyphname = ampersand;
lastChange = "2023-04-12 18:47:14 +0000";
layers = (
{
layerId = m01;
shapes = (
{
closed = 1;
nodes = (
(318,-11,o),
(388,8,o),
(442,51,c),
(484,77,l),
(548,125,o),
(594,214,o),
(598,339,cs),
(598,349,o),
(592,354,o),
(583,354,cs),
(487,354,ls),
(478,354,o),
(472,349,o),
(472,339,cs),
(464,203,o),
(359,110,o),
(261,110,cs),
(198,110,o),
(157,149,o),
(157,202,cs),
(157,229,o),
(176,261,o),
(215,290,cs),
(364,397,ls),
(425,442,o),
(460,497,o),
(460,565,cs),
(460,658,o),
(388,737,o),
(271,737,cs),
(152,737,o),
(74,656,o),
(74,550,cs),
(74,456,o),
(139,385,o),
(196,320,cs),
(476,8,ls),
(481,2,o),
(487,0,o),
(494,0,cs),
(617,0,ls),
(630,0,o),
(633,8,o),
(625,18,cs),
(296,396,ls),
(246,456,o),
(203,502,o),
(203,548,cs),
(203,584,o),
(231,615,o),
(273,615,cs),
(315,615,o),
(339,585,o),
(339,557,cs),
(339,526,o),
(323,502,o),
(286,478,cs),
(145,385,ls),
(66,329,o),
(10,279,o),
(10,193,cs),
(10,79,o),
(102,-11,o),
(253,-11,cs)
);
}
);
width = 644;
}
);
metricLeft = d;
unicode = 38;
userData = {
"interface.width-adjustments" = (
-16
);
};
},
{
glyphname = paragraph;
lastChange = "2023-04-12 18:47:14 +0000";
layers = (
{
layerId = m01;
shapes = (
{
closed = 1;
nodes = (
(480,713,ls),
(480,722,o),
(474,728,o),
(465,728,cs),
(296,728,ls),
(136,727,o),
(49,629,o),
(49,499,cs),
(49,367,o),
(136,270,o),
(296,270,cs),
(323,270,ls),
(332,270,o),
(338,276,o),
(338,285,cs),
(338,611,l),
(465,611,ls),
(474,611,o),
(480,617,o),
(480,626,cs)
);
},
{
closed = 1;
nodes = (
(531,0,ls),
(540,0,o),
(546,6,o),
(546,15,cs),
(546,713,ls),
(546,722,o),
(540,728,o),
(531,728,cs),
(441,728,ls),
(432,728,o),
(426,722,o),
(426,713,cs),
(426,15,ls),
(426,6,o),
(432,0,o),
(441,0,cs)
);
}
);
width = 576;
}
);
metricRight = H;
note = "aka PILCROW SIGN";
unicode = 182;
userData = {
interface.gridadjust.original = "{'width': 1386.0, 'leftMargin': 88, 'rightMargin': 231.0}";
"interface.width-adjustments" = (
-16
);
};
},
{
glyphname = section;
lastChange = "2023-04-12 18:47:14 +0000";
layers = (
{
layerId = m01;
shapes = (
{
closed = 1;
nodes = (
(490,664,o),
(410,737,o),
(292,737,cs),
(171,737,o),
(87,662,o),
(87,561,cs),
(87,505,o),
(111,464,o),
(147,429,c),
(147,428,l),
(111,417,o),
(62,388,o),
(57,328,cs),
(48,224,o),
(131,180,o),
(170,163,cs),
(307,101,ls),
(333,88,o),
(372,67,o),
(372,30,cs),
(372,-4,o),
(334,-19,o),
(298,-20,cs),
(248,-22,o),
(216,-2,o),
(209,34,cs),
(208,43,o),
(203,48,o),
(194,48,cs),
(90,48,ls),
(81,48,o),
(75,43,o),
(76,33,cs),
(83,-77,o),
(171,-147,o),
(296,-147,cs),
(416,-147,o),
(506,-82,o),
(506,30,cs),
(506,84,o),
(485,127,o),
(445,163,c),
(447,164,l),
(479,173,o),
(531,204,o),
(537,263,cs),
(546,366,o),
(462,410,o),
(425,427,cs),
(289,490,l),
(260,501,o),
(221,526,o),
(221,561,cs),
(221,594,o),
(253,611,o),
(292,611,cs),
(334,611,o),
(358,590,o),
(364,561,cs),
(366,552,o),
(371,547,o),
(380,547,cs),
(484,547,ls),
(494,547,o),
(499,552,o),
(498,562,cs)
);
},
{
closed = 1;
nodes = (
(409,225,o),
(379,208,o),
(356,218,cs),
(238,271,ls),
(198,288,o),
(177,311,o),
(181,335,cs),
(184,366,o),
(211,385,o),
(236,373,cs),
(355,319,ls),
(396,302,o),
(416,279,o),
(413,255,cs)
);
}
);
width = 593;
}
);
note = "composed of \"S\" scaled down with RMX Tuner in temporary duplicate file";
unicode = 167;
userData = {
interface.gridadjust.original = "{'width': 1733, 'leftMargin': 121, 'rightMargin': 150}";
"interface.width-adjustments" = (
-16
);
};
},
{
glyphname = copyright;
lastChange = "2023-04-12 18:47:14 +0000";
layers = (
{
layerId = m01;
shapes = (
{
closed = 1;
nodes = (
(260,253,o),
(350,164,o),
(460,164,cs),
(551,164,o),
(627,225,o),
(644,309,cs),
(646,319,o),
(640,325,o),
(630,325,cs),
(554,325,ls),
(546,325,o),
(541,321,o),
(537,312,cs),
(526,284,o),
(496,265,o),
(460,265,cs),
(406,265,o),
(361,309,o),
(361,364,cs),
(361,419,o),
(406,463,o),
(460,463,cs),
(496,463,o),
(528,444,o),
(540,415,cs),
(544,406,o),
(549,402,o),
(557,402,cs),
(633,402,ls),
(643,402,o),
(649,408,o),
(646,418,cs),
(629,502,o),
(551,564,o),
(460,563,cs),
(350,564,o),
(260,474,o),
(260,363,cs)
);
},
{
closed = 1;
nodes = (
(665,-11,o),
(833,157,o),
(832,363,cs),
(832,571,o),
(665,739,o),
(457,738,cs),
(251,739,o),
(83,571,o),
(82,363,cs),
(82,157,o),
(251,-11,o),
(457,-12,cs)
);
},
{
closed = 1;
nodes = (
(315,107,o),
(200,222,o),
(201,363,cs),
(201,505,o),
(316,621,o),
(457,621,cs),
(600,621,o),
(714,506,o),
(714,363,cs),
(715,222,o),
(600,107,o),
(457,107,cs)
);
}
);
width = 915;
}
);
metricWidth = circleblack;
note = "Stroke R: 116\012Stroke B: 160";
unicode = 169;
userData = {
interface.gridadjust.original = "{'width': 2204, 'leftMargin': 121, 'rightMargin': 132}";
"interface.width-adjustments" = (
-16
);
};
},
{
glyphname = registered;
lastChange = "2023-04-12 18:47:14 +0000";
layers = (
{
layerId = m01;
shapes = (
{
closed = 1;
nodes = (
(282,325,ls),
(291,325,o),
(297,331,o),
(297,340,cs),
(297,537,l),
(340,537,ls),
(359,537,o),
(376,526,o),
(376,501,cs),
(376,476,o),
(360,463,o),
(340,463,cs),
(281,463,ls),
(272,463,o),
(266,457,o),
(266,448,cs),
(266,429,ls),
(266,420,o),
(272,414,o),
(281,414,cs),
(354,414,ls),
(405,413,o),
(448,445,o),
(448,501,cs),
(448,556,o),
(407,587,o),
(357,587,cs),
(244,587,ls),
(235,587,o),
(229,581,o),
(229,572,cs),
(229,340,ls),
(229,331,o),
(235,325,o),
(244,325,cs)
);
},
{
closed = 1;
nodes = (
(345,446,ls),
(334,446,o),
(329,439,o),
(334,428,cs),
(376,336,ls),
(379,329,o),
(385,325,o),
(393,325,cs),
(437,325,ls),
(448,325,o),
(453,332,o),
(448,343,cs),
(401,435,ls),
(397,442,o),
(392,446,o),
(384,446,cs)
);
},
{
closed = 1;
nodes = (
(489,169,o),
(616,296,o),
(616,453,cs),
(616,610,o),
(489,737,o),
(332,737,cs),
(175,737,o),
(48,610,o),
(48,453,cs),
(48,296,o),
(175,169,o),
(332,169,cs)
);
},
{
closed = 1;
nodes = (
(216,244,o),
(123,338,o),
(123,453,cs),
(123,568,o),
(216,662,o),
(332,662,cs),
(447,662,o),
(541,568,o),
(541,453,cs),
(541,337,o),
(448,244,o),
(332,244,cs)
);
}
);
width = 664;
}
);
note = "Stroke L: 32\012Stroke R: 96\012Stroke B: 112";
unicode = 174;
userData = {
interface.gridadjust.original = "{'width': 2204, 'leftMargin': 121, 'rightMargin': 132}";
"interface.width-adjustments" = (
-16
);
};
},
{
glyphname = published;
lastChange = "2023-04-12 18:47:14 +0000";
layers = (
{
layerId = m01;
shapes = (
{
closed = 1;
nodes = (
(293,325,ls),
(302,325,o),
(308,331,o),
(308,340,cs),
(308,537,l),
(351,537,ls),
(372,537,o),
(390,520,o),
(390,495,cs),
(390,469,o),
(371,453,o),
(351,453,cs),
(292,453,ls),
(283,453,o),
(277,447,o),
(277,438,cs),
(277,417,ls),
(277,408,o),
(283,402,o),
(292,402,cs),
(360,402,ls),
(416,402,o),
(457,439,o),
(457,495,cs),
(457,550,o),
(417,587,o),
(363,587,cs),
(255,587,ls),
(246,587,o),
(240,581,o),
(240,572,cs),
(240,340,ls),
(240,331,o),
(246,325,o),
(255,325,cs)
);
},
{
closed = 1;
nodes = (
(489,169,o),
(616,296,o),
(616,453,cs),
(616,610,o),
(489,737,o),
(332,737,cs),
(175,737,o),
(48,610,o),
(48,453,cs),
(48,296,o),
(175,169,o),
(332,169,cs)
);
},
{
closed = 1;
nodes = (
(216,244,o),
(123,338,o),
(123,453,cs),
(123,568,o),
(216,662,o),
(332,662,cs),
(447,662,o),
(541,568,o),
(541,453,cs),
(541,338,o),
(448,244,o),
(332,244,cs)
);
}
);
width = 664;
}
);
metricWidth = registered;
unicode = 8471;
userData = {
interface.gridadjust.original = "{'width': 2199, 'leftMargin': 124, 'rightMargin': 124}";
"interface.width-adjustments" = (
-16
);
};
},
{
glyphname = trademark;
lastChange = "2023-04-12 18:47:14 +0000";
layers = (
{
layerId = m01;
shapes = (
{
closed = 1;
nodes = (
(459,466,ls),
(467,466,o),
(474,470,o),
(477,478,cs),
(569,711,ls),
(573,722,o),
(568,728,o),
(557,728,cs),
(531,728,ls),
(523,728,o),
(517,724,o),
(514,716,cs),
(453,555,l),
(393,716,ls),
(390,725,o),
(384,728,o),
(376,728,cs),
(350,728,ls),
(339,728,o),
(334,722,o),
(338,711,cs),
(430,478,ls),
(433,470,o),
(440,466,o),
(448,466,cs)
);
},
{
closed = 1;
nodes = (
(361,466,ls),
(370,466,o),
(376,472,o),
(376,481,cs),
(376,713,ls),
(376,722,o),
(370,728,o),
(361,728,cs),
(326,728,ls),
(317,728,o),
(311,722,o),
(311,713,cs),
(311,481,ls),
(311,472,o),
(317,466,o),
(326,466,cs)
);
},
{
closed = 1;
nodes = (
(582,466,ls),
(591,466,o),
(597,472,o),
(597,481,cs),
(597,713,ls),
(597,722,o),
(591,728,o),
(582,728,cs),
(546,728,ls),
(537,728,o),
(531,722,o),
(531,713,cs),
(531,481,ls),
(531,472,o),
(537,466,o),
(546,466,cs)
);
},
{
closed = 1;
nodes = (
(171,466,ls),
(180,466,o),
(186,472,o),
(186,481,cs),
(186,689,ls),
(186,698,o),
(180,704,o),
(171,704,cs),
(134,704,ls),
(125,704,o),
(119,698,o),
(119,689,cs),
(119,481,ls),
(119,472,o),
(125,466,o),
(134,466,cs)
);
},
{
closed = 1;
nodes = (
(250,673,ls),
(259,673,o),
(265,679,o),
(265,688,cs),
(265,713,ls),
(265,722,o),
(259,728,o),
(250,728,cs),
(55,728,ls),
(46,728,o),
(40,722,o),
(40,713,cs),
(40,688,ls),
(40,679,o),
(46,673,o),
(55,673,cs)
);
}
);
width = 643;
}
);
unicode = 8482;
userData = {
"interface.width-adjustments" = (
-16
);
};
},
{
glyphname = degree;
lastChange = "2023-04-12 18:47:14 +0000";
layers = (
{
layerId = m01;
shapes = (
{
closed = 1;
nodes = (
(326,383,o),
(404,461,o),
(404,558,cs),
(404,654,o),
(326,732,o),
(230,732,cs),
(133,732,o),
(56,654,o),
(55,558,cs),
(56,461,o),
(133,383,o),
(230,383,cs)
);
},
{
closed = 1;
nodes = (
(189,484,o),
(156,517,o),
(156,558,cs),
(156,598,o),
(189,631,o),
(230,631,cs),
(271,631,o),
(303,598,o),
(304,558,cs),
(303,517,o),
(271,484,o),
(230,484,cs)
);
}
);
width = 459;
}
);
unicode = 176;
userData = {
interface.gridadjust.original = "{'width': 896, 'leftMargin': 28, 'rightMargin': 168}";
"interface.width-adjustments" = (
-16
);
};
},
{
glyphname = prime;
lastChange = "2023-04-12 18:47:14 +0000";
layers = (
{
layerId = m01;
shapes = (
{
closed = 1;
nodes = (
(147,445,ls),
(156,445,o),
(162,450,o),
(164,458,cs),
(218,712,ls),
(220,723,o),
(214,728,o),
(204,728,cs),
(98,728,ls),
(89,728,o),
(84,724,o),
(83,714,cs),
(59,461,ls),
(58,451,o),
(64,445,o),
(74,445,cs)
);
}
);
width = 279;
}
);
unicode = 8242;
},
{
glyphname = bar;
lastChange = "2023-04-12 18:47:14 +0000";
layers = (
{
layerId = m01;
shapes = (
{
closed = 1;
nodes = (
(130,962,ls),
(121,962,o),
(115,956,o),
(115,947,cs),
(115,-219,ls),
(115,-228,o),
(121,-234,o),
(130,-234,cs),
(243,-234,ls),
(252,-234,o),
(258,-228,o),
(258,-219,cs),
(258,947,ls),
(258,956,o),
(252,962,o),
(243,962,cs)
);
}
);
width = 374;
}
);
unicode = 124;
userData = {
"interface.width-adjustments" = (
-16
);
};
},
{
glyphname = numero;
lastChange = "2023-04-12 18:47:14 +0000";
layers = (
{
layerId = m01;
shapes = (
{
closed = 1;
nodes = (
(175,0,ls),
(184,0,o),
(190,6,o),
(190,15,cs),
(190,499,l),
(197,499,l),
(484,10,ls),
(488,3,o),
(494,0,o),
(502,0,cs),
(598,0,ls),
(607,0,o),
(613,6,o),
(613,15,cs),
(613,713,ls),
(613,722,o),
(607,728,o),
(598,728,cs),
(501,728,ls),
(492,728,o),
(486,722,o),
(486,713,cs),
(486,227,l),
(480,227,l),
(194,718,ls),
(190,725,o),
(184,728,o),
(176,728,cs),
(78,728,ls),
(69,728,o),
(63,722,o),
(63,713,cs),
(63,15,ls),
(63,6,o),
(69,0,o),
(78,0,cs)
);
},
{
closed = 1;
nodes = (
(1010,212,ls),
(1019,212,o),
(1025,218,o),
(1025,227,cs),
(1025,280,ls),
(1025,289,o),
(1019,295,o),
(1010,295,cs),
(725,295,ls),
(716,295,o),
(710,289,o),
(710,280,cs),
(710,227,ls),
(710,218,o),
(716,212,o),
(725,212,cs)
);
},
{
closed = 1;
nodes = (
(975,353,o),
(1041,430,o),
(1041,529,cs),
(1041,561,ls),
(1041,661,o),
(974,737,o),
(867,736,cs),
(760,737,o),
(692,661,o),
(692,561,cs),
(692,529,ls),
(692,429,o),
(760,353,o),
(867,354,cs)
);
},
{
closed = 1;
nodes = (
(821,441,o),
(795,476,o),
(796,529,cs),
(796,561,ls),
(795,614,o),
(820,647,o),
(867,647,cs),
(913,647,o),
(938,614,o),
(938,561,cs),
(938,529,ls),
(938,476,o),
(912,441,o),
(867,441,cs)
);
}
);
width = 1102;
}
);
unicode = 8470;
userData = {
interface.gridadjust.original = "{'width': 2901, 'leftMargin': 219, 'rightMargin': 154}";
"interface.width-adjustments" = (
-16
);
};
},
{
glyphname = cent;
lastChange = "2023-04-12 18:47:14 +0000";
layers = (
{
layerId = m01;
shapes = (
{
closed = 1;
nodes = (
(291,0,ls),
(300,0,o),
(306,6,o),
(306,15,cs),
(306,713,ls),
(306,722,o),
(300,728,o),
(291,728,cs),
(263,728,ls),
(254,728,o),
(248,722,o),
(248,713,cs),
(248,15,ls),
(248,6,o),
(254,0,o),
(263,0,cs)
);
},
{
closed = 1;
nodes = (
(418,81,o),
(507,161,o),
(520,278,cs),
(521,287,o),
(515,292,o),
(505,292,cs),
(393,292,ls),
(384,292,o),
(379,287,o),
(376,278,cs),
(364,229,o),
(327,199,o),
(280,199,cs),
(209,199,o),
(163,260,o),
(163,364,cs),
(163,468,o),
(209,527,o),
(280,527,cs),
(330,527,o),
(364,496,o),
(376,449,cs),
(378,440,o),
(384,436,o),
(393,436,cs),
(505,436,ls),
(515,436,o),
(521,442,o),
(520,452,cs),
(507,569,o),
(414,645,o),
(277,645,cs),
(112,645,o),
(10,530,o),
(10,363,cs),
(10,196,o),
(110,81,o),
(278,81,cs)
);
}
);
width = 531;
}
);
metricLeft = c;
metricRight = c;
unicode = 162;
userData = {
com.typemytype.robofont.guideline.magnetic.Wyvc05k93r = 5;
"interface.width-adjustments" = (
-16
);
};
},
{
glyphname = dollar;
lastChange = "2023-04-12 18:47:14 +0000";
layers = (
{
layerId = m01;
shapes = (
{
closed = 1;
nodes = (
(280,-91,ls),
(289,-91,o),
(295,-85,o),
(295,-76,cs),
(295,803,ls),
(295,812,o),
(289,818,o),
(280,818,cs),
(252,818,ls),
(243,818,o),
(237,812,o),
(237,803,cs),
(237,-76,ls),
(237,-85,o),
(243,-91,o),
(252,-91,cs)
);
},
{
closed = 1;
nodes = (
(476,593,o),
(396,649,o),
(266,649,cs),
(126,649,o),
(35,584,o),
(35,479,cs),
(35,397,o),
(86,345,o),
(192,324,cs),
(287,304,ls),
(335,294,o),
(357,277,o),
(357,249,cs),
(357,217,o),
(321,194,o),
(268,194,cs),
(220,194,o),
(186,213,o),
(173,249,cs),
(170,258,o),
(164,261,o),
(155,261,cs),
(36,255,ls),
(26,254,o),
(21,248,o),
(23,238,cs),
(44,143,o),
(130,85,o),
(268,85,cs),
(409,85,o),
(510,158,o),
(510,265,cs),
(510,344,o),
(459,392,o),
(353,413,cs),
(254,432,ls),
(204,443,o),
(185,461,o),
(185,488,cs),
(185,520,o),
(221,541,o),
(268,541,cs),
(314,541,o),
(344,519,o),
(356,491,cs),
(359,482,o),
(364,479,o),
(373,479,cs),
(482,485,ls),
(492,486,o),
(497,492,o),
(495,502,cs)
);
}
);
width = 530;
}
);
metricLeft = S;
metricRight = S;
unicode = 36;
userData = {
"interface.width-adjustments" = (
-16
);
};
},
{
glyphname = euro;
lastChange = "2023-04-12 18:47:14 +0000";
layers = (
{
layerId = m01;
shapes = (
{
closed = 1;
nodes = (
(62,477,ls),
(54,477,o),
(48,473,o),
(45,465,cs),
(26,416,ls),
(22,405,o),
(27,399,o),
(38,399,cs),
(483,399,ls),
(491,399,o),
(497,402,o),
(500,410,cs),
(522,459,ls),
(527,470,o),
(522,477,o),
(511,477,cs)
);
},
{
closed = 1;
nodes = (
(62,328,ls),
(54,328,o),
(48,325,o),
(45,316,cs),
(26,266,ls),
(22,255,o),
(27,249,o),
(38,249,cs),
(412,249,ls),
(420,249,o),
(426,253,o),
(429,260,cs),
(453,310,ls),
(458,321,o),
(453,328,o),
(442,328,cs)
);
},
{
closed = 1;
nodes = (
(561,717,o),
(500,737,o),
(429,737,cs),
(242,737,o),
(112,598,o),
(111,363,cs),
(112,127,o),
(242,-10,o),
(429,-10,cs),
(497,-10,o),
(560,9,o),
(610,47,cs),
(617,52,o),
(618,58,o),
(614,67,cs),
(570,161,ls),
(566,170,o),
(558,173,o),
(550,167,cs),
(522,149,o),
(482,127,o),
(429,127,cs),
(330,127,o),
(265,197,o),
(266,363,cs),
(265,528,o),
(330,600,o),
(429,600,cs),
(482,600,o),
(524,578,o),
(553,559,cs),
(561,553,o),
(569,556,o),
(573,565,cs),
(617,659,ls),
(621,668,o),
(620,674,o),
(612,679,cs)
);
}
);
width = 643;
}
);
unicode = 8364;
userData = {
com.typemytype.robofont.guideline.magnetic.P3MjIU5x5C = 5;
com.typemytype.robofont.guideline.magnetic.WxZraS8qhG = 5;
com.typemytype.robofont.guideline.magnetic.b8KedwRYT4 = 5;
com.typemytype.robofont.guideline.magnetic.dxfmP19I7X = 5;
com.typemytype.robofont.guideline.magnetic.v5vqb3q4OH = 5;
com.typemytype.robofont.guideline.magnetic.vdf6Melrtj = 5;
"interface.width-adjustments" = (
-16
);
};
},
{
glyphname = hryvnia;
lastChange = "2023-04-12 18:47:14 +0000";
layers = (
{
layerId = m01;
shapes = (
{
closed = 1;
nodes = (
(363,612,o),
(390,591,o),
(390,558,cs),
(390,536,o),
(383,518,o),
(368,503,cs),
(360,494,o),
(361,487,o),
(372,484,cs),
(464,459,ls),
(471,457,o),
(478,458,o),
(484,463,cs),
(515,489,o),
(542,527,o),
(542,571,cs),
(542,670,o),
(457,737,o),
(306,737,cs),
(161,737,o),
(84,675,o),
(70,563,cs),
(69,553,o),
(75,547,o),
(85,547,cs),
(210,547,ls),
(219,547,o),
(224,552,o),
(226,561,cs),
(233,594,o),
(260,612,o),
(309,612,cs)
);
},
{
closed = 1;
nodes = (
(589,481,ls),
(589,490,o),
(583,496,o),
(574,496,cs),
(35,496,ls),
(26,496,o),
(20,490,o),
(20,481,cs),
(20,409,ls),
(20,400,o),
(26,394,o),
(35,394,cs),
(574,394,ls),
(583,394,o),
(589,400,o),
(589,409,cs)
);
},
{
closed = 1;
nodes = (
(589,325,ls),
(589,334,o),
(583,340,o),
(574,340,cs),
(35,340,ls),
(26,340,o),
(20,334,o),
(20,325,cs),
(20,256,ls),
(20,247,o),
(26,241,o),
(35,241,cs),
(574,241,ls),
(583,241,o),
(589,247,o),
(589,256,cs)
);
},
{
closed = 1;
nodes = (
(471,-10,o),
(549,47,o),
(561,175,cs),
(562,183,o),
(556,188,o),
(546,188,cs),
(420,188,ls),
(411,188,o),
(406,183,o),
(404,174,cs),
(396,130,o),
(360,114,o),
(306,113,cs),
(248,114,o),
(212,137,o),
(212,177,cs),
(212,198,o),
(220,221,o),
(237,239,cs),
(245,248,o),
(244,255,o),
(233,258,cs),
(142,281,ls),
(135,283,o),
(129,283,o),
(123,279,cs),
(87,255,o),
(58,210,o),
(58,166,cs),
(58,57,o),
(143,-10,o),
(306,-10,cs)
);
}
);
width = 609;
}
);
unicode = 8372;
userData = {
interface.gridadjust.original = "{'width': 1635, 'leftMargin': 83, 'rightMargin': 83}";
"interface.width-adjustments" = (
-16
);
};
},
{
glyphname = uni20BD;
lastChange = "2023-04-12 18:47:14 +0000";
layers = (
{
layerId = m01;
shapes = (
{
closed = 1;
nodes = (
(577,263,o),
(682,352,o),
(682,493,cs),
(682,627,o),
(580,727,o),
(408,728,cs),
(138,728,ls),
(129,728,o),
(123,722,o),
(123,713,cs),
(123,15,ls),
(123,6,o),
(129,0,o),
(138,0,cs),
(261,0,ls),
(270,0,o),
(276,6,o),
(276,15,cs),
(276,603,l),
(408,603,ls),
(489,602,o),
(529,553,o),
(528,491,cs),
(529,427,o),
(490,386,o),
(403,386,cs),
(35,386,ls),
(26,386,o),
(20,380,o),
(20,371,cs),
(20,278,ls),
(20,269,o),
(26,263,o),
(35,263,cs),
(408,263,ls)
);
},
{
closed = 1;
nodes = (
(35,216,ls),
(26,216,o),
(20,210,o),
(20,201,cs),
(20,108,ls),
(20,99,o),
(26,93,o),
(35,93,cs),
(420,93,ls),
(429,93,o),
(435,99,o),
(435,108,cs),
(435,201,ls),
(435,210,o),
(429,216,o),
(420,216,cs)
);
}
);
width = 702;
}
);
note = "line up with Yen";
unicode = 8381;
userData = {
com.typemytype.robofont.guideline.magnetic.S2re7kPBZ8 = 5;
interface.gridadjust.original = "{'width': 1882, 'leftMargin': 41, 'rightMargin': 99}";
"interface.width-adjustments" = (
-16
);
};
},
{
glyphname = plus;
lastChange = "2023-04-12 18:47:14 +0000";
layers = (
{
anchors = (
{
name = _center;
pos = (340,291);
}
);
layerId = m01;
shapes = (
{
closed = 1;
nodes = (
(388,39,ls),
(397,39,o),
(403,45,o),
(403,54,cs),
(403,527,ls),
(403,536,o),
(397,542,o),
(388,542,cs),
(291,542,ls),
(282,542,o),
(276,536,o),
(276,527,cs),
(276,54,ls),
(276,45,o),
(282,39,o),
(291,39,cs)
);
},
{
closed = 1;
nodes = (
(576,227,ls),
(585,227,o),
(591,233,o),
(591,242,cs),
(591,339,ls),
(591,348,o),
(585,354,o),
(576,354,cs),
(103,354,ls),
(94,354,o),
(88,348,o),
(88,339,cs),
(88,242,ls),
(88,233,o),
(94,227,o),
(103,227,cs)
);
}
);
width = 680;
}
);
unicode = 43;
userData = {
com.typemytype.robofont.guideline.magnetic.vWa5hxe2x0 = 5;
"interface.width-adjustments" = (
-16
);
};
},
{
glyphname = minus;
lastChange = "2023-04-12 18:47:14 +0000";
layers = (
{
anchors = (
{
name = _center;
pos = (340,291);
}
);
layerId = m01;
shapes = (
{
closed = 1;
nodes = (
(106,354,ls),
(97,354,o),
(91,348,o),
(91,339,cs),
(91,242,ls),
(91,233,o),
(97,227,o),
(106,227,cs),
(573,227,ls),
(582,227,o),
(588,233,o),
(588,242,cs),
(588,339,ls),
(588,348,o),
(582,354,o),
(573,354,cs)
);
}
);
width = 680;
}
);
metricWidth = plus;
unicode = 8722;
userData = {
"interface.width-adjustments" = (
-16
);
};
},
{
glyphname = multiply;
lastChange = "2023-04-12 18:47:14 +0000";
layers = (
{
anchors = (
{
name = _center;
pos = (340,291);
}
);
layerId = m01;
shapes = (
{
closed = 1;
nodes = (
(587,114,ls),
(594,121,o),
(594,129,o),
(587,136,cs),
(185,539,ls),
(178,546,o),
(170,546,o),
(163,539,cs),
(91,466,ls),
(84,459,o),
(85,451,o),
(92,444,cs),
(494,43,ls),
(501,36,o),
(509,36,o),
(516,43,cs)
);
},
{
closed = 1;
nodes = (
(587,444,ls),
(594,451,o),
(595,459,o),
(588,466,cs),
(516,539,ls),
(509,546,o),
(501,546,o),
(494,539,cs),
(92,136,ls),
(85,129,o),
(85,121,o),
(92,114,cs),
(163,43,ls),
(170,36,o),
(178,36,o),
(185,43,cs)
);
}
);
width = 680;
}
);
metricWidth = plus;
unicode = 215;
userData = {
"interface.width-adjustments" = (
-16
);
};
},
{
glyphname = divide;
lastChange = "2023-04-12 18:47:14 +0000";
layers = (
{
anchors = (
{
name = _center;
pos = (340,291);
}
);
layerId = m01;
shapes = (
{
closed = 1;
nodes = (
(106,351,ls),
(97,351,o),
(91,345,o),
(91,336,cs),
(91,245,ls),
(91,236,o),
(97,230,o),
(106,230,cs),
(573,230,ls),
(582,230,o),
(588,236,o),
(588,245,cs),
(588,336,ls),
(588,345,o),
(582,351,o),
(573,351,cs)
);
},
{
closed = 1;
nodes = (
(386,8,o),
(424,46,o),
(424,94,cs),
(424,140,o),
(386,179,o),
(340,178,cs),
(292,179,o),
(253,140,o),
(254,94,cs),
(253,46,o),
(292,8,o),
(340,8,cs)
);
},
{
closed = 1;
nodes = (
(387,403,o),
(424,441,o),
(424,489,cs),
(424,536,o),
(387,574,o),
(340,574,cs),
(292,574,o),
(253,536,o),
(254,489,cs),
(253,441,o),
(292,403,o),
(340,403,cs)
);
}
);
width = 680;
}
);
metricWidth = plus;
unicode = 247;
userData = {
"interface.width-adjustments" = (
-16
);
};
},
{
glyphname = equal;
lastChange = "2023-04-12 18:47:14 +0000";
layers = (
{
anchors = (
{
name = _center;
pos = (340,291);
}
);
layerId = m01;
shapes = (
{
closed = 1;
nodes = (
(570,346,ls),
(579,346,o),
(585,352,o),
(585,361,cs),
(585,457,ls),
(585,466,o),
(579,472,o),
(570,472,cs),
(110,472,ls),
(101,472,o),
(95,466,o),
(95,457,cs),
(95,361,ls),
(95,352,o),
(101,346,o),
(110,346,cs)
);
},
{
closed = 1;
nodes = (
(570,110,ls),
(579,110,o),
(585,116,o),
(585,125,cs),
(585,221,ls),
(585,230,o),
(579,236,o),
(570,236,cs),
(110,236,ls),
(101,236,o),
(95,230,o),
(95,221,cs),
(95,125,ls),
(95,116,o),
(101,110,o),
(110,110,cs)
);
}
);
width = 680;
}
);
metricWidth = plus;
unicode = 61;
userData = {
com.typemytype.robofont.guideline.magnetic.7d4CjnlrzW = 5;
interface.gridadjust.original = "{'width': 1664, 'leftMargin': 256, 'rightMargin': 256}";
"interface.width-adjustments" = (
-16
);
};
},
{
glyphname = notequal;
lastChange = "2023-04-12 18:47:14 +0000";
layers = (
{
layerId = m01;
shapes = (
{
closed = 1;
nodes = (
(180,39,ls),
(176,28,o),
(180,22,o),
(191,22,cs),
(292,22,ls),
(300,22,o),
(306,26,o),
(309,34,cs),
(502,543,ls),
(506,554,o),
(501,560,o),
(490,560,cs),
(390,560,ls),
(382,560,o),
(375,556,o),
(372,548,cs)
);
},
{
alignment = -1;
ref = equal;
}
);
width = 680;
}
);
metricWidth = plus;
unicode = 8800;
userData = {
interface.gridadjust.original = "{'width': 1543, 'leftMargin': 256, 'rightMargin': 135}";
"interface.width-adjustments" = (
-16
);
};
},
{
glyphname = greater;
lastChange = "2023-04-12 18:47:14 +0000";
layers = (
{
anchors = (
{
name = _center;
pos = (340,291);
}
);
layerId = m01;
shapes = (
{
closed = 1;
nodes = (
(599,342,ls),
(599,350,o),
(596,355,o),
(588,359,cs),
(117,566,ls),
(107,571,o),
(99,566,o),
(99,555,cs),
(99,443,ls),
(99,435,o),
(103,428,o),
(111,425,cs),
(441,292,l),
(439,295,o),
(437,294,o),
(437,291,cs),
(437,288,o),
(438,285,o),
(439,286,cs),
(440,287,o),
(427,283,o),
(414,278,cs),
(111,157,ls),
(103,154,o),
(99,147,o),
(99,139,cs),
(99,27,ls),
(99,16,o),
(107,11,o),
(117,16,cs),
(588,224,ls),
(596,228,o),
(599,233,o),
(599,241,cs)
);
}
);
width = 680;
}
);
metricLeft = "=|less";
metricRight = "=|less";
unicode = 62;
userData = {
"interface.width-adjustments" = (
-16
);
};
},
{
glyphname = less;
lastChange = "2023-04-12 18:47:14 +0000";
layers = (
{
anchors = (
{
name = _center;
pos = (340,291);
}
);
layerId = m01;
shapes = (
{
closed = 1;
nodes = (
(563,16,ls),
(573,11,o),
(581,16,o),
(581,27,cs),
(581,139,ls),
(581,147,o),
(577,154,o),
(569,157,cs),
(280,272,ls),
(266,277,o),
(241,287,o),
(242,286,cs),
(243,285,o),
(244,287,o),
(244,291,cs),
(244,294,o),
(243,297,o),
(242,296,cs),
(241,294,o),
(254,298,o),
(268,304,cs),
(569,425,ls),
(577,428,o),
(581,435,o),
(581,443,cs),
(581,555,ls),
(581,566,o),
(573,571,o),
(563,566,cs),
(92,359,ls),
(84,355,o),
(81,350,o),
(81,342,cs),
(81,241,ls),
(81,233,o),
(84,228,o),
(92,224,cs)
);
}
);
width = 680;
}
);
metricWidth = plus;
note = "Recipe: Make rect and rotate 63deg (regular) or 69deg (black)";
unicode = 60;
userData = {
com.typemytype.robofont.guideline.magnetic.UCqMAsbNEX = 5;
com.typemytype.robofont.guideline.magnetic.abdyNxiJ0X = 5;
com.typemytype.robofont.guideline.magnetic.hl7wBCA74H = 5;
com.typemytype.robofont.guideline.magnetic.o3FB2ulJxh = 5;
com.typemytype.robofont.guideline.magnetic.oUvmdsbOwf = 5;
"interface.width-adjustments" = (
-16
);
};
},
{
glyphname = greaterequal;
lastChange = "2023-04-12 18:47:14 +0000";
layers = (
{
layerId = m01;
shapes = (
{
closed = 1;
nodes = (
(575,27,ls),
(584,27,o),
(590,33,o),
(590,42,cs),
(590,133,ls),
(590,142,o),
(584,148,o),
(575,148,cs),
(104,148,ls),
(95,148,o),
(89,142,o),
(89,133,cs),
(89,42,ls),
(89,33,o),
(95,27,o),
(104,27,cs)
);
},
{
closed = 1;
nodes = (
(590,430,ls),
(590,439,o),
(585,444,o),
(577,446,cs),
(106,573,ls),
(96,576,o),
(89,571,o),
(89,561,cs),
(89,474,ls),
(89,465,o),
(94,460,o),
(102,458,cs),
(397,388,ls),
(409,385,o),
(419,383,o),
(418,386,cs),
(417,387,o),
(415,384,o),
(415,381,cs),
(415,377,o),
(417,374,o),
(418,376,cs),
(419,377,o),
(406,375,o),
(393,372,cs),
(102,303,ls),
(94,301,o),
(89,296,o),
(89,287,cs),
(89,200,ls),
(89,190,o),
(96,185,o),
(106,188,cs),
(577,315,ls),
(585,317,o),
(590,322,o),
(590,331,cs)
);
}
);
width = 680;
}
);
metricWidth = plus;
unicode = 8805;
userData = {
interface.gridadjust.original = "{'width': 1475, 'leftMargin': 209, 'rightMargin': 195}";
"interface.width-adjustments" = (
-16
);
};
},
{
glyphname = lessequal;
lastChange = "2023-04-12 18:47:14 +0000";
layers = (
{
layerId = m01;
shapes = (
{
closed = 1;
nodes = (
(590,133,ls),
(590,142,o),
(584,148,o),
(575,148,cs),
(104,148,ls),
(95,148,o),
(89,142,o),
(89,133,cs),
(89,42,ls),
(89,33,o),
(95,27,o),
(104,27,cs),
(575,27,ls),
(584,27,o),
(590,33,o),
(590,42,cs)
);
},
{
closed = 1;
nodes = (
(573,188,ls),
(583,185,o),
(590,190,o),
(590,200,cs),
(590,287,ls),
(590,296,o),
(585,301,o),
(577,303,cs),
(294,371,ls),
(279,375,o),
(262,377,o),
(263,376,cs),
(264,375,o),
(265,377,o),
(265,381,cs),
(265,384,o),
(264,387,o),
(263,386,cs),
(262,384,o),
(273,385,o),
(286,388,cs),
(577,458,ls),
(585,460,o),
(590,465,o),
(590,474,cs),
(590,561,ls),
(590,571,o),
(583,576,o),
(573,573,cs),
(102,446,ls),
(94,444,o),
(89,439,o),
(89,430,cs),
(89,331,ls),
(89,322,o),
(94,317,o),
(102,315,cs)
);
}
);
width = 680;
}
);
metricWidth = plus;
unicode = 8804;
userData = {
com.typemytype.robofont.guideline.magnetic.IZcS8u7tGE = 5;
interface.gridadjust.original = "{'width': 1430.0, 'leftMargin': 106, 'rightMargin': 150.0}";
"interface.width-adjustments" = (
-16
);
};
},
{
glyphname = plusminus;
lastChange = "2023-04-12 18:47:14 +0000";
layers = (
{
layerId = m01;
shapes = (
{
closed = 1;
nodes = (
(575,27,ls),
(584,27,o),
(590,33,o),
(590,42,cs),
(590,133,ls),
(590,142,o),
(584,148,o),
(575,148,cs),
(104,148,ls),
(95,148,o),
(89,142,o),
(89,133,cs),
(89,42,ls),
(89,33,o),
(95,27,o),
(104,27,cs)
);
},
{
closed = 1;
nodes = (
(575,323,ls),
(584,323,o),
(590,329,o),
(590,338,cs),
(590,424,ls),
(590,433,o),
(584,439,o),
(575,439,cs),
(104,439,ls),
(95,439,o),
(89,433,o),
(89,424,cs),
(89,338,ls),
(89,329,o),
(95,323,o),
(104,323,cs)
);
},
{
closed = 1;
nodes = (
(388,200,ls),
(397,200,o),
(403,206,o),
(403,215,cs),
(403,548,ls),
(403,557,o),
(397,563,o),
(388,563,cs),
(291,563,ls),
(282,563,o),
(276,557,o),
(276,548,cs),
(276,215,ls),
(276,206,o),
(282,200,o),
(291,200,cs)
);
}
);
width = 680;
}
);
metricWidth = plus;
unicode = 177;
userData = {
"interface.width-adjustments" = (
-16
);
};
},
{
glyphname = approxequal;
lastChange = "2023-04-12 18:47:14 +0000";
layers = (
{
layerId = m01;
shapes = (
{
closed = 1;
nodes = (
(177,316,ls),
(186,316,o),
(192,321,o),
(193,331,cs),
(197,372,o),
(218,391,o),
(250,391,cs),
(272,391,o),
(285,384,o),
(315,359,cs),
(368,317,o),
(402,302,o),
(447,302,cs),
(537,302,o),
(599,364,o),
(604,485,cs),
(604,495,o),
(598,500,o),
(589,500,cs),
(502,500,ls),
(493,500,o),
(487,495,o),
(486,485,cs),
(483,443,o),
(463,421,o),
(431,420,cs),
(408,421,o),
(389,431,o),
(358,456,cs),
(311,494,o),
(278,511,o),
(229,512,cs),
(141,511,o),
(81,455,o),
(76,332,cs),
(76,321,o),
(82,316,o),
(91,316,cs)
);
},
{
closed = 1;
nodes = (
(177,85,ls),
(186,85,o),
(192,90,o),
(193,100,cs),
(197,141,o),
(218,159,o),
(250,159,cs),
(272,159,o),
(285,152,o),
(315,127,cs),
(368,86,o),
(402,71,o),
(447,71,cs),
(537,71,o),
(599,132,o),
(604,253,cs),
(604,264,o),
(598,269,o),
(589,269,cs),
(502,269,ls),
(493,269,o),
(487,264,o),
(486,254,cs),
(483,212,o),
(463,189,o),
(431,189,cs),
(408,189,o),
(389,199,o),
(358,224,cs),
(311,263,o),
(278,280,o),
(229,280,cs),
(141,280,o),
(81,224,o),
(76,101,cs),
(76,90,o),
(82,85,o),
(91,85,cs)
);
}
);
width = 680;
}
);
metricWidth = plus;
unicode = 8776;
userData = {
interface.gridadjust.original = "{'width': 1587, 'leftMargin': 139, 'rightMargin': 164}";
"interface.width-adjustments" = (
-16
);
};
},
{
glyphname = asciicircum;
lastChange = "2023-04-12 18:47:14 +0000";
layers = (
{
layerId = m01;
shapes = (
{
closed = 1;
nodes = (
(231,624,ls),
(231,615,o),
(236,609,o),
(244,609,cs),
(252,609,o),
(256,615,o),
(256,624,cs),
(256,633,ls),
(256,642,o),
(251,648,o),
(244,648,cs),
(236,648,o),
(231,642,o),
(231,633,cs)
);
},
{
closed = 1;
nodes = (
(136,397,ls),
(144,397,o),
(150,400,o),
(153,408,cs),
(239,606,ls),
(243,616,o),
(245,624,o),
(244,624,cs),
(242,624,o),
(244,616,o),
(248,606,cs),
(335,408,ls),
(338,400,o),
(344,397,o),
(352,397,cs),
(435,397,ls),
(446,397,o),
(452,404,o),
(447,415,cs),
(310,700,ls),
(307,707,o),
(301,711,o),
(293,711,cs),
(195,711,ls),
(187,711,o),
(181,707,o),
(178,700,cs),
(41,415,ls),
(36,404,o),
(42,397,o),
(53,397,cs)
);
}
);
width = 487;
}
);
unicode = 94;
userData = {
interface.gridadjust.original = "{'width': 1178, 'leftMargin': 84, 'rightMargin': 86}";
"interface.width-adjustments" = (
-16
);
};
},
{
glyphname = percent;
lastChange = "2023-04-12 18:47:14 +0000";
layers = (
{
layerId = m01;
shapes = (
{
closed = 1;
nodes = (
(30,452,o),
(86,378,o),
(190,378,cs),
(293,378,o),
(349,451,o),
(349,540,cs),
(349,578,ls),
(349,666,o),
(294,739,o),
(190,739,cs),
(88,739,o),
(30,666,o),
(30,578,cs),
(30,540,ls)
);
},
{
closed = 1;
nodes = (
(134,611,o),
(147,648,o),
(190,648,cs),
(234,648,o),
(245,612,o),
(245,578,cs),
(245,540,ls),
(245,504,o),
(233,470,o),
(190,470,cs),
(147,470,o),
(134,504,o),
(134,540,cs),
(134,578,ls)
);
},
{
closed = 1;
nodes = (
(212,0,ls),
(220,0,o),
(227,4,o),
(231,10,cs),
(712,710,ls),
(719,721,o),
(714,728,o),
(702,728,cs),
(634,728,ls),
(626,728,o),
(619,724,o),
(615,718,cs),
(134,18,ls),
(127,7,o),
(132,0,o),
(144,0,cs)
);
},
{
closed = 1;
nodes = (
(497,62,o),
(553,-12,o),
(657,-12,cs),
(760,-12,o),
(816,61,o),
(816,150,cs),
(816,188,ls),
(816,276,o),
(761,349,o),
(657,349,cs),
(555,349,o),
(497,276,o),
(497,188,cs),
(497,150,ls)
);
},
{
closed = 1;
nodes = (
(601,221,o),
(614,258,o),
(657,258,cs),
(701,258,o),
(712,222,o),
(712,188,cs),
(712,150,ls),
(712,114,o),
(700,80,o),
(657,80,cs),
(614,80,o),
(601,114,o),
(601,150,cs),
(601,188,ls)
);
}
